<svg width="35" height="35" viewBox="0 0 35 35" fill="none" xmlns="http://www.w3.org/2000/svg">
<path d="M17.4994 2.91699C15.5842 2.91699 13.6879 3.2942 11.9185 4.02708C10.1492 4.75996 8.54156 5.83416 7.18738 7.18835C4.45247 9.92326 2.91602 13.6326 2.91602 17.5003C2.91602 23.9462 7.10143 29.4149 12.891 31.3545C13.6202 31.4712 13.8535 31.0191 13.8535 30.6253C13.8535 30.2899 13.8535 29.3712 13.8535 28.1607C9.81393 29.0357 8.95352 26.2066 8.95352 26.2066C8.28268 24.5149 7.33477 24.0628 7.33477 24.0628C6.00768 23.1587 7.43685 23.1878 7.43685 23.1878C8.89518 23.2899 9.6681 24.6899 9.6681 24.6899C10.9368 26.9066 13.0806 26.2503 13.9118 25.9003C14.0431 24.9524 14.4223 24.3107 14.8306 23.9462C11.5931 23.5816 8.19518 22.3274 8.19518 16.7712C8.19518 15.1524 8.74935 13.8545 9.69727 12.8191C9.55143 12.4545 9.04102 10.9378 9.8431 8.96908C9.8431 8.96908 11.0681 8.57533 13.8535 10.4566C15.0056 10.1357 16.2598 9.97533 17.4994 9.97533C18.7389 9.97533 19.9931 10.1357 21.1452 10.4566C23.9306 8.57533 25.1556 8.96908 25.1556 8.96908C25.9577 10.9378 25.4473 12.4545 25.3014 12.8191C26.2494 13.8545 26.8035 15.1524 26.8035 16.7712C26.8035 22.342 23.391 23.567 20.1389 23.9316C20.6639 24.3837 21.1452 25.2732 21.1452 26.6295C21.1452 28.5837 21.1452 30.1587 21.1452 30.6253C21.1452 31.0191 21.3785 31.4857 22.1223 31.3545C27.9119 29.4003 32.0827 23.9462 32.0827 17.5003C32.0827 15.5852 31.7055 13.6889 30.9726 11.9195C30.2397 10.1502 29.1655 8.54254 27.8113 7.18835C26.4571 5.83416 24.8495 4.75996 23.0802 4.02708C21.3108 3.2942 19.4145 2.91699 17.4994 2.91699Z" fill="black"/>
</svg>
