<svg width="411" height="57" viewBox="0 0 411 57" fill="none" xmlns="http://www.w3.org/2000/svg">
<rect width="70" height="57" rx="16" fill="#1D1A1B"/>
<path d="M15.2784 33.3877L16.7102 24.6604H17.3707L15.9389 33.3877H15.2784ZM11.2259 30.8692L11.3366 30.213H17.848L17.7372 30.8692H11.2259ZM12.2102 33.3877L13.642 24.6604H14.3026L12.8707 33.3877H12.2102ZM11.733 27.8351L11.8395 27.1789H18.3509L18.2443 27.8351H11.733ZM22.2468 24.6604V33.3877H21.4499V25.4956H21.3988L19.3533 26.855V26.0283L21.4158 24.6604H22.2468ZM27.6417 33.3877H25.0849V24.6604H27.7951C28.6275 24.6604 29.3391 24.8337 29.93 25.1803C30.5238 25.5269 30.9783 26.0241 31.2937 26.6718C31.609 27.3195 31.7667 28.0965 31.7667 29.0028C31.7667 29.9175 31.6048 30.703 31.2809 31.3593C30.9599 32.0127 30.4911 32.5141 29.8746 32.8635C29.261 33.213 28.5167 33.3877 27.6417 33.3877ZM25.8817 32.6718H27.5948C28.3448 32.6718 28.9727 32.5241 29.4783 32.2286C29.984 31.9331 30.3633 31.5113 30.6161 30.963C30.869 30.4147 30.9954 29.7613 30.9954 29.0028C30.9925 28.2499 30.8675 27.6022 30.6204 27.0596C30.3761 26.517 30.0124 26.1008 29.5295 25.811C29.0494 25.5212 28.4556 25.3763 27.7482 25.3763H25.8817V32.6718ZM36.2038 24.6604V33.3877H35.407V25.4956H35.3558L33.3104 26.855V26.0283L35.3729 24.6604H36.2038ZM39.0547 33.3877H38.2195L41.3942 24.6604H42.2464L45.4212 33.3877H44.5859L41.8501 25.6959H41.7905L39.0547 33.3877ZM39.6555 30.0425H43.9851V30.7584H39.6555V30.0425ZM49.0124 24.6604V33.3877H48.2156V25.4956H48.1644L46.119 26.855V26.0283L48.1815 24.6604H49.0124ZM51.8505 33.3877V24.6604H54.7951C55.3633 24.6604 55.8363 24.7599 56.2141 24.9587C56.5948 25.1576 56.8803 25.4289 57.0707 25.7726C57.261 26.1164 57.3562 26.507 57.3562 26.9445C57.3562 27.3081 57.2951 27.6192 57.1729 27.8778C57.0508 28.1363 56.8846 28.3451 56.6744 28.5042C56.4641 28.6633 56.2298 28.7783 55.9712 28.8493V28.9175C56.2525 28.9374 56.5252 29.0368 56.7894 29.2158C57.0536 29.392 57.271 29.6391 57.4414 29.9573C57.6119 30.2755 57.6971 30.6562 57.6971 31.0993C57.6971 31.5397 57.5991 31.9331 57.4031 32.2797C57.207 32.6235 56.9059 32.8948 56.4996 33.0937C56.0962 33.2897 55.582 33.3877 54.957 33.3877H51.8505ZM52.6474 32.6718H54.957C55.6303 32.6718 56.1275 32.5226 56.4485 32.2243C56.7724 31.926 56.9343 31.551 56.9343 31.0993C56.9343 30.767 56.8533 30.4658 56.6914 30.1959C56.5323 29.9232 56.3065 29.7073 56.0138 29.5482C55.7241 29.3891 55.3832 29.3096 54.9911 29.3096H52.6474V32.6718ZM52.6474 28.6022H54.8675C55.2113 28.6022 55.5124 28.5312 55.771 28.3891C56.0295 28.2471 56.2312 28.051 56.3761 27.801C56.521 27.551 56.5934 27.2655 56.5934 26.9445C56.5934 26.4814 56.4428 26.105 56.1417 25.8153C55.8406 25.5226 55.3917 25.3763 54.7951 25.3763H52.6474V28.6022Z" fill="#F8F8F8"/>
<rect x="85" width="70" height="57" rx="16" fill="#B1B1B1"/>
<path d="M97.7354 32.3877L99.1673 23.6604H99.8278L98.396 32.3877H97.7354ZM93.6829 29.8692L93.7937 29.213H100.305L100.194 29.8692H93.6829ZM94.6673 32.3877L96.0991 23.6604H96.7596L95.3278 32.3877H94.6673ZM94.19 26.8351L94.2965 26.1789H100.808L100.701 26.8351H94.19ZM102.198 32.3877V23.6604H105.143C105.711 23.6604 106.184 23.7599 106.562 23.9587C106.942 24.1576 107.228 24.4289 107.418 24.7726C107.609 25.1164 107.704 25.507 107.704 25.9445C107.704 26.3081 107.643 26.6192 107.521 26.8778C107.398 27.1363 107.232 27.3451 107.022 27.5042C106.812 27.6633 106.577 27.7783 106.319 27.8493V27.9175C106.6 27.9374 106.873 28.0368 107.137 28.2158C107.401 28.392 107.619 28.6391 107.789 28.9573C107.96 29.2755 108.045 29.6562 108.045 30.0993C108.045 30.5397 107.947 30.9331 107.751 31.2797C107.555 31.6235 107.254 31.8948 106.847 32.0937C106.444 32.2897 105.93 32.3877 105.305 32.3877H102.198ZM102.995 31.6718H105.305C105.978 31.6718 106.475 31.5226 106.796 31.2243C107.12 30.926 107.282 30.551 107.282 30.0993C107.282 29.767 107.201 29.4658 107.039 29.1959C106.88 28.9232 106.654 28.7073 106.362 28.5482C106.072 28.3891 105.731 28.3096 105.339 28.3096H102.995V31.6718ZM102.995 27.6022H105.215C105.559 27.6022 105.86 27.5312 106.119 27.3891C106.377 27.2471 106.579 27.051 106.724 26.801C106.869 26.551 106.941 26.2655 106.941 25.9445C106.941 25.4814 106.79 25.105 106.489 24.8153C106.188 24.5226 105.739 24.3763 105.143 24.3763H102.995V27.6022ZM112.473 23.6604V32.3877H111.676V24.4956H111.625L109.58 25.855V25.0283L111.642 23.6604H112.473ZM115.311 32.3877V23.6604H118.256C118.824 23.6604 119.297 23.7599 119.675 23.9587C120.056 24.1576 120.341 24.4289 120.532 24.7726C120.722 25.1164 120.817 25.507 120.817 25.9445C120.817 26.3081 120.756 26.6192 120.634 26.8778C120.512 27.1363 120.346 27.3451 120.135 27.5042C119.925 27.6633 119.691 27.7783 119.432 27.8493V27.9175C119.713 27.9374 119.986 28.0368 120.25 28.2158C120.515 28.392 120.732 28.6391 120.902 28.9573C121.073 29.2755 121.158 29.6562 121.158 30.0993C121.158 30.5397 121.06 30.9331 120.864 31.2797C120.668 31.6235 120.367 31.8948 119.961 32.0937C119.557 32.2897 119.043 32.3877 118.418 32.3877H115.311ZM116.108 31.6718H118.418C119.091 31.6718 119.588 31.5226 119.909 31.2243C120.233 30.926 120.395 30.551 120.395 30.0993C120.395 29.767 120.314 29.4658 120.152 29.1959C119.993 28.9232 119.767 28.7073 119.475 28.5482C119.185 28.3891 118.844 28.3096 118.452 28.3096H116.108V31.6718ZM116.108 27.6022H118.328C118.672 27.6022 118.973 27.5312 119.232 27.3891C119.49 27.2471 119.692 27.051 119.837 26.801C119.982 26.551 120.054 26.2655 120.054 25.9445C120.054 25.4814 119.904 25.105 119.603 24.8153C119.301 24.5226 118.853 24.3763 118.256 24.3763H116.108V27.6022ZM125.587 23.6604V32.3877H124.79V24.4956H124.739L122.693 25.855V25.0283L124.756 23.6604H125.587ZM128.425 32.3877V23.6604H131.369C131.938 23.6604 132.411 23.7599 132.788 23.9587C133.169 24.1576 133.455 24.4289 133.645 24.7726C133.835 25.1164 133.93 25.507 133.93 25.9445C133.93 26.3081 133.869 26.6192 133.747 26.8778C133.625 27.1363 133.459 27.3451 133.249 27.5042C133.038 27.6633 132.804 27.7783 132.545 27.8493V27.9175C132.827 27.9374 133.099 28.0368 133.364 28.2158C133.628 28.392 133.845 28.6391 134.016 28.9573C134.186 29.2755 134.271 29.6562 134.271 30.0993C134.271 30.5397 134.173 30.9331 133.977 31.2797C133.781 31.6235 133.48 31.8948 133.074 32.0937C132.67 32.2897 132.156 32.3877 131.531 32.3877H128.425ZM129.222 31.6718H131.531C132.205 31.6718 132.702 31.5226 133.023 31.2243C133.347 30.926 133.509 30.551 133.509 30.0993C133.509 29.767 133.428 29.4658 133.266 29.1959C133.107 28.9232 132.881 28.7073 132.588 28.5482C132.298 28.3891 131.957 28.3096 131.565 28.3096H129.222V31.6718ZM129.222 27.6022H131.442C131.786 27.6022 132.087 27.5312 132.345 27.3891C132.604 27.2471 132.805 27.051 132.95 26.801C133.095 26.551 133.168 26.2655 133.168 25.9445C133.168 25.4814 133.017 25.105 132.716 24.8153C132.415 24.5226 131.966 24.3763 131.369 24.3763H129.222V27.6022ZM138.7 23.6604V32.3877H137.903V24.4956H137.852L135.806 25.855V25.0283L137.869 23.6604H138.7Z" fill="black"/>
<rect x="170" width="70" height="57" rx="16" fill="#F4EEE0"/>
<path d="M182.735 32.3877L184.167 23.6604H184.828L183.396 32.3877H182.735ZM178.683 29.8692L178.794 29.213H185.305L185.194 29.8692H178.683ZM179.667 32.3877L181.099 23.6604H181.76L180.328 32.3877H179.667ZM179.19 26.8351L179.297 26.1789H185.808L185.701 26.8351H179.19ZM187.198 32.3877V23.6604H192.248V24.3763H187.995V27.6618H191.852V28.3778H187.995V32.3877H187.198ZM193.833 30.5127V29.865L197.724 23.6604H198.201V24.7471H197.847L194.724 29.7414V29.7968H199.825V30.5127H193.833ZM197.907 32.3877V30.3081V30.0099V23.6604H198.665V32.3877H197.907ZM201.741 32.3877V23.6604H206.804V24.3763H202.538V27.6618H206.535V28.3778H202.538V31.6718H206.889V32.3877H201.741ZM208.866 32.3877V23.6604H213.929V24.3763H209.663V27.6618H213.66V28.3778H209.663V31.6718H214.014V32.3877H208.866ZM215.991 32.3877V23.6604H221.054V24.3763H216.788V27.6618H220.785V28.3778H216.788V31.6718H221.139V32.3877H215.991ZM225.639 32.507C225.025 32.507 224.501 32.3309 224.066 31.9786C223.635 31.6235 223.302 31.1107 223.069 30.4403C222.839 29.7698 222.724 28.9644 222.724 28.0241C222.724 27.0866 222.839 26.284 223.069 25.6164C223.302 24.9459 223.636 24.4331 224.071 24.078C224.508 23.7201 225.031 23.5411 225.639 23.5411C226.247 23.5411 226.768 23.7201 227.203 24.078C227.64 24.4331 227.974 24.9459 228.204 25.6164C228.437 26.284 228.554 27.0866 228.554 28.0241C228.554 28.9644 228.437 29.7698 228.204 30.4403C227.974 31.1107 227.642 31.6235 227.207 31.9786C226.775 32.3309 226.252 32.507 225.639 32.507ZM225.639 31.7911C226.312 31.7911 226.838 31.463 227.216 30.8067C227.593 30.1476 227.782 29.2201 227.782 28.0241C227.782 27.2286 227.696 26.5496 227.522 25.9871C227.352 25.4218 227.106 24.99 226.785 24.6917C226.467 24.3934 226.085 24.2442 225.639 24.2442C224.971 24.2442 224.447 24.5766 224.066 25.2414C223.686 25.9033 223.495 26.8309 223.495 28.0241C223.495 28.8195 223.581 29.4985 223.751 30.061C223.924 30.6235 224.17 31.0525 224.488 31.3479C224.809 31.6434 225.193 31.7911 225.639 31.7911Z" fill="black"/>
<rect x="255" width="70" height="57" rx="16" fill="#B9FB2C"/>
<path d="M267.278 33.3877L268.71 24.6604H269.371L267.939 33.3877H267.278ZM263.226 30.8692L263.337 30.213H269.848L269.737 30.8692H263.226ZM264.21 33.3877L265.642 24.6604H266.303L264.871 33.3877H264.21ZM263.733 27.8351L263.839 27.1789H270.351L270.244 27.8351H263.733ZM271.741 33.3877V24.6604H274.686C275.254 24.6604 275.727 24.7599 276.105 24.9587C276.485 25.1576 276.771 25.4289 276.961 25.7726C277.152 26.1164 277.247 26.507 277.247 26.9445C277.247 27.3081 277.186 27.6192 277.064 27.8778C276.941 28.1363 276.775 28.3451 276.565 28.5042C276.355 28.6633 276.12 28.7783 275.862 28.8493V28.9175C276.143 28.9374 276.416 29.0368 276.68 29.2158C276.944 29.392 277.162 29.6391 277.332 29.9573C277.502 30.2755 277.588 30.6562 277.588 31.0993C277.588 31.5397 277.49 31.9331 277.294 32.2797C277.098 32.6235 276.797 32.8948 276.39 33.0937C275.987 33.2897 275.473 33.3877 274.848 33.3877H271.741ZM272.538 32.6718H274.848C275.521 32.6718 276.018 32.5226 276.339 32.2243C276.663 31.926 276.825 31.551 276.825 31.0993C276.825 30.767 276.744 30.4658 276.582 30.1959C276.423 29.9232 276.197 29.7073 275.904 29.5482C275.615 29.3891 275.274 29.3096 274.882 29.3096H272.538V32.6718ZM272.538 28.6022H274.758C275.102 28.6022 275.403 28.5312 275.662 28.3891C275.92 28.2471 276.122 28.051 276.267 27.801C276.412 27.551 276.484 27.2655 276.484 26.9445C276.484 26.4814 276.333 26.105 276.032 25.8153C275.731 25.5226 275.282 25.3763 274.686 25.3763H272.538V28.6022ZM281.948 24.5411C282.312 24.5439 282.664 24.6178 283.005 24.7627C283.349 24.9047 283.658 25.1349 283.934 25.453C284.21 25.7684 284.428 26.1888 284.59 26.7144C284.752 27.2371 284.833 27.8806 284.833 28.6448C284.833 29.3579 284.771 30.0113 284.646 30.605C284.521 31.1988 284.333 31.713 284.083 32.1476C283.836 32.5795 283.523 32.9147 283.146 33.1533C282.771 33.3891 282.332 33.507 281.829 33.507C281.36 33.507 280.944 33.409 280.58 33.213C280.219 33.017 279.927 32.7456 279.702 32.3991C279.478 32.0496 279.339 31.6462 279.285 31.1888H280.069C280.146 31.6547 280.333 32.0383 280.631 32.3394C280.933 32.6405 281.332 32.7911 281.829 32.7911C282.542 32.7911 283.096 32.4587 283.491 31.7939C283.886 31.1292 284.083 30.1831 284.083 28.9559H284.028C283.891 29.2116 283.712 29.4346 283.491 29.6249C283.272 29.8153 283.022 29.9644 282.741 30.0724C282.46 30.1775 282.163 30.23 281.85 30.23C281.364 30.23 280.92 30.1079 280.516 29.8635C280.113 29.6164 279.79 29.2797 279.549 28.8536C279.308 28.4246 279.187 27.936 279.187 27.3877C279.187 26.8706 279.3 26.3962 279.528 25.9644C279.758 25.5297 280.079 25.1831 280.491 24.9246C280.906 24.6633 281.391 24.5354 281.948 24.5411ZM281.948 25.257C281.57 25.257 281.231 25.3536 280.93 25.5468C280.631 25.7371 280.394 25.9942 280.218 26.3181C280.045 26.6391 279.958 26.9956 279.958 27.3877C279.958 27.7826 280.045 28.142 280.218 28.4658C280.394 28.7868 280.631 29.0425 280.93 29.2329C281.231 29.4204 281.57 29.5141 281.948 29.5141C282.238 29.5141 282.508 29.4559 282.758 29.3394C283.008 29.2201 283.224 29.0581 283.406 28.8536C283.59 28.6491 283.729 28.4175 283.823 28.159C283.92 27.8976 283.958 27.6235 283.938 27.3366C283.904 26.9388 283.798 26.5837 283.619 26.2712C283.442 25.9559 283.21 25.7087 282.92 25.5297C282.633 25.3479 282.309 25.257 281.948 25.257ZM286.823 33.3877V24.6604H291.873V25.3763H287.62V28.6618H291.477V29.3778H287.62V33.3877H286.823ZM293.854 33.3877V24.6604H296.799C297.367 24.6604 297.84 24.7599 298.218 24.9587C298.599 25.1576 298.884 25.4289 299.075 25.7726C299.265 26.1164 299.36 26.507 299.36 26.9445C299.36 27.3081 299.299 27.6192 299.177 27.8778C299.055 28.1363 298.888 28.3451 298.678 28.5042C298.468 28.6633 298.234 28.7783 297.975 28.8493V28.9175C298.256 28.9374 298.529 29.0368 298.793 29.2158C299.058 29.392 299.275 29.6391 299.445 29.9573C299.616 30.2755 299.701 30.6562 299.701 31.0993C299.701 31.5397 299.603 31.9331 299.407 32.2797C299.211 32.6235 298.91 32.8948 298.504 33.0937C298.1 33.2897 297.586 33.3877 296.961 33.3877H293.854ZM294.651 32.6718H296.961C297.634 32.6718 298.131 32.5226 298.452 32.2243C298.776 31.926 298.938 31.551 298.938 31.0993C298.938 30.767 298.857 30.4658 298.695 30.1959C298.536 29.9232 298.31 29.7073 298.018 29.5482C297.728 29.3891 297.387 29.3096 296.995 29.3096H294.651V32.6718ZM294.651 28.6022H296.871C297.215 28.6022 297.516 28.5312 297.775 28.3891C298.033 28.2471 298.235 28.051 298.38 27.801C298.525 27.551 298.597 27.2655 298.597 26.9445C298.597 26.4814 298.447 26.105 298.146 25.8153C297.844 25.5226 297.396 25.3763 296.799 25.3763H294.651V28.6022ZM301.436 33.3877V32.8039L304.287 29.5993C304.659 29.1789 304.959 28.8195 305.186 28.5212C305.414 28.2229 305.578 27.9474 305.681 27.6945C305.786 27.4417 305.838 27.1789 305.838 26.9062C305.838 26.5738 305.76 26.284 305.604 26.0368C305.451 25.7868 305.239 25.5922 304.969 25.453C304.699 25.3138 304.395 25.2442 304.057 25.2442C303.699 25.2442 303.385 25.3209 303.115 25.4743C302.848 25.6278 302.641 25.838 302.493 26.105C302.346 26.3721 302.272 26.6789 302.272 27.0255H301.509C301.509 26.5425 301.62 26.115 301.841 25.7428C302.066 25.3678 302.371 25.0738 302.757 24.8607C303.147 24.6476 303.587 24.5411 304.078 24.5411C304.564 24.5411 304.996 24.6462 305.374 24.8564C305.752 25.0638 306.049 25.3465 306.265 25.7045C306.48 26.0624 306.588 26.463 306.588 26.9062C306.588 27.2272 306.532 27.5383 306.418 27.8394C306.307 28.1405 306.115 28.4758 305.843 28.8451C305.57 29.2144 305.192 29.6661 304.709 30.2002L302.544 32.6164V32.6718H306.861V33.3877H301.436ZM315.783 27.3877H314.982C314.923 27.0894 314.815 26.8138 314.658 26.561C314.505 26.3053 314.312 26.0823 314.079 25.892C313.846 25.7016 313.582 25.5539 313.286 25.4488C312.991 25.3437 312.671 25.2911 312.327 25.2911C311.776 25.2911 311.273 25.4346 310.819 25.7215C310.367 26.0084 310.005 26.4303 309.732 26.9871C309.462 27.5411 309.327 28.2201 309.327 29.0241C309.327 29.8337 309.462 30.5155 309.732 31.0695C310.005 31.6235 310.367 32.0439 310.819 32.3309C311.273 32.615 311.776 32.757 312.327 32.757C312.671 32.757 312.991 32.7045 313.286 32.5993C313.582 32.4942 313.846 32.3479 314.079 32.1604C314.312 31.9701 314.505 31.7471 314.658 31.4914C314.815 31.2357 314.923 30.9587 314.982 30.6604H315.783C315.712 31.061 315.579 31.4346 315.383 31.7812C315.19 32.1249 314.942 32.426 314.641 32.6846C314.343 32.9431 313.999 33.1448 313.61 33.2897C313.221 33.4346 312.793 33.507 312.327 33.507C311.594 33.507 310.944 33.3238 310.376 32.9573C309.808 32.588 309.362 32.0681 309.038 31.3976C308.717 30.7272 308.556 29.936 308.556 29.0241C308.556 28.1121 308.717 27.3209 309.038 26.6505C309.362 25.98 309.808 25.4616 310.376 25.0951C310.944 24.7258 311.594 24.5411 312.327 24.5411C312.793 24.5411 313.221 24.6135 313.61 24.7584C313.999 24.9005 314.343 25.1022 314.641 25.3635C314.942 25.6221 315.19 25.9232 315.383 26.267C315.579 26.6107 315.712 26.9843 315.783 27.3877Z" fill="black"/>
<rect x="340" width="70.4401" height="57" rx="16" fill="#D2BEFF"/>
<path d="M352.278 33L353.71 24.2727H354.371L352.939 33H352.278ZM348.226 30.4815L348.337 29.8253H354.848L354.737 30.4815H348.226ZM349.21 33L350.642 24.2727H351.303L349.871 33H349.21ZM348.733 27.4474L348.839 26.7912H355.351L355.244 27.4474H348.733ZM359.298 33H356.741V24.2727H359.451C360.284 24.2727 360.995 24.446 361.586 24.7926C362.18 25.1392 362.635 25.6364 362.95 26.2841C363.265 26.9318 363.423 27.7088 363.423 28.6151C363.423 29.5298 363.261 30.3153 362.937 30.9716C362.616 31.625 362.147 32.1264 361.531 32.4759C360.917 32.8253 360.173 33 359.298 33ZM357.538 32.2841H359.251C360.001 32.2841 360.629 32.1364 361.135 31.8409C361.64 31.5455 362.02 31.1236 362.272 30.5753C362.525 30.027 362.652 29.3736 362.652 28.6151C362.649 27.8622 362.524 27.2145 362.277 26.6719C362.032 26.1293 361.669 25.7131 361.186 25.4233C360.706 25.1335 360.112 24.9886 359.404 24.9886H357.538V32.2841ZM365.167 33V32.4162L368.018 29.2116C368.39 28.7912 368.69 28.4318 368.917 28.1335C369.144 27.8352 369.309 27.5597 369.411 27.3068C369.516 27.054 369.569 26.7912 369.569 26.5185C369.569 26.1861 369.491 25.8963 369.335 25.6491C369.181 25.3991 368.969 25.2045 368.7 25.0653C368.43 24.9261 368.126 24.8565 367.788 24.8565C367.43 24.8565 367.116 24.9332 366.846 25.0866C366.579 25.2401 366.371 25.4503 366.224 25.7173C366.076 25.9844 366.002 26.2912 366.002 26.6378H365.239C365.239 26.1548 365.35 25.7273 365.572 25.3551C365.796 24.9801 366.102 24.6861 366.488 24.473C366.877 24.2599 367.317 24.1534 367.809 24.1534C368.295 24.1534 368.727 24.2585 369.104 24.4688C369.482 24.6761 369.779 24.9588 369.995 25.3168C370.211 25.6747 370.319 26.0753 370.319 26.5185C370.319 26.8395 370.262 27.1506 370.148 27.4517C370.038 27.7528 369.846 28.0881 369.573 28.4574C369.3 28.8267 368.923 29.2784 368.44 29.8125L366.275 32.2287V32.2841H370.592V33H365.167ZM372.679 33V24.2727H375.623C376.191 24.2727 376.664 24.3722 377.042 24.571C377.423 24.7699 377.708 25.0412 377.899 25.3849C378.089 25.7287 378.184 26.1193 378.184 26.5568C378.184 26.9205 378.123 27.2315 378.001 27.4901C377.879 27.7486 377.713 27.9574 377.502 28.1165C377.292 28.2756 377.058 28.3906 376.799 28.4616V28.5298C377.081 28.5497 377.353 28.6491 377.618 28.8281C377.882 29.0043 378.099 29.2514 378.27 29.5696C378.44 29.8878 378.525 30.2685 378.525 30.7116C378.525 31.152 378.427 31.5455 378.231 31.892C378.035 32.2358 377.734 32.5071 377.328 32.706C376.924 32.902 376.41 33 375.785 33H372.679ZM373.475 32.2841H375.785C376.458 32.2841 376.956 32.1349 377.277 31.8366C377.6 31.5384 377.762 31.1634 377.762 30.7116C377.762 30.3793 377.681 30.0781 377.52 29.8082C377.36 29.5355 377.135 29.3196 376.842 29.1605C376.552 29.0014 376.211 28.9219 375.819 28.9219H373.475V32.2841ZM373.475 28.2145H375.696C376.039 28.2145 376.341 28.1435 376.599 28.0014C376.858 27.8594 377.059 27.6634 377.204 27.4134C377.349 27.1634 377.422 26.8778 377.422 26.5568C377.422 26.0937 377.271 25.7173 376.97 25.4276C376.669 25.1349 376.22 24.9886 375.623 24.9886H373.475V28.2145ZM380.448 33V24.2727H385.511V24.9886H381.245V28.2741H385.242V28.9901H381.245V32.2841H385.596V33H380.448ZM387.573 33V24.2727H392.623V24.9886H388.37V28.2741H392.227V28.9901H388.37V33H387.573ZM394.604 33V24.2727H399.654V24.9886H395.401V28.2741H399.258V28.9901H395.401V33H394.604Z" fill="black"/>
</svg>
