<svg width="340" height="156" viewBox="0 0 340 156" fill="none" xmlns="http://www.w3.org/2000/svg">
<path d="M18.843 35.7011C27.6306 35.7011 34.7543 28.574 34.7543 19.7822C34.7543 10.9904 27.6306 3.86328 18.843 3.86328C10.0554 3.86328 2.93164 10.9904 2.93164 19.7822C2.93164 28.574 10.0554 35.7011 18.843 35.7011Z" stroke="black"/>
<path d="M18.5995 25.1719H17.4366C17.4464 24.4061 17.5249 23.7434 17.6721 23.1837C17.8193 22.6143 18.0646 22.084 18.4082 21.5931C18.7516 21.1022 19.2178 20.5819 19.8066 20.032C20.3758 19.4724 20.8665 18.9569 21.2786 18.4856C21.7006 18.0143 22.0245 17.4939 22.2502 16.9244C22.4759 16.3452 22.5888 15.6285 22.5888 14.7742C22.5888 13.9298 22.4367 13.1837 22.1324 12.5357C21.8381 11.8876 21.3915 11.377 20.7929 11.0039C20.1942 10.6309 19.4484 10.4444 18.5553 10.4444C17.6819 10.4444 16.9214 10.6211 16.2736 10.9745C15.6357 11.3181 15.1353 11.8091 14.7722 12.4473C14.4189 13.0757 14.2324 13.812 14.2128 14.6564H13.0352C13.0548 13.5371 13.3148 12.5798 13.8153 11.7846C14.3159 10.9893 14.9783 10.3855 15.8026 9.97307C16.6367 9.56068 17.5543 9.35449 18.5553 9.35449C19.6839 9.35449 20.631 9.59009 21.3964 10.0614C22.1717 10.5229 22.7605 11.166 23.1629 11.9907C23.5653 12.8056 23.7664 13.7384 23.7664 14.789C23.7664 15.653 23.6389 16.4237 23.3837 17.1012C23.1285 17.7787 22.7507 18.4218 22.2502 19.0305C21.7595 19.6295 21.156 20.2579 20.4395 20.9156C19.7428 21.4655 19.2619 22.1086 18.997 22.8449C18.732 23.5715 18.5995 24.3472 18.5995 25.1719ZM17.1275 30.2383C17.1275 29.9732 17.2157 29.7473 17.3924 29.5608C17.569 29.3742 17.7997 29.281 18.0843 29.281C18.3689 29.281 18.6044 29.3742 18.7909 29.5608C18.9774 29.7473 19.0706 29.9732 19.0706 30.2383C19.0706 30.5034 18.9774 30.7292 18.7909 30.9157C18.6044 31.1022 18.3689 31.1955 18.0843 31.1955C17.7997 31.1955 17.569 31.1022 17.3924 30.9157C17.2157 30.7292 17.1275 30.5034 17.1275 30.2383Z" fill="black"/>
<path d="M321.157 35.7011C329.945 35.7011 337.069 28.574 337.069 19.7822C337.069 10.9904 329.945 3.86328 321.157 3.86328C312.37 3.86328 305.246 10.9904 305.246 19.7822C305.246 28.574 312.37 35.7011 321.157 35.7011Z" stroke="black"/>
<path d="M314.881 9.64941L321.447 19.2077L328.027 9.64941H329.484L322.183 20.1797L329.734 31.0929H328.292L321.447 21.1518L314.587 31.0929H313.174L320.725 20.1797L313.424 9.64941H314.881Z" fill="black"/>
<path d="M61.552 35.7011C70.3395 35.7011 77.4633 28.574 77.4633 19.7822C77.4633 10.9904 70.3395 3.86328 61.552 3.86328C52.7644 3.86328 45.6406 10.9904 45.6406 19.7822C45.6406 28.574 52.7644 35.7011 61.552 35.7011Z" stroke="black"/>
<path d="M54.793 18.2861L57.3188 26.4251H66.5036L69.0294 18.2861H54.793Z" stroke="black" stroke-miterlimit="10" stroke-linejoin="round"/>
<path d="M66.5199 18.0328L64.3359 12.5576" stroke="black" stroke-miterlimit="10" stroke-linecap="round"/>
<path d="M57.6934 18.0884L59.8773 12.6133" stroke="black" stroke-miterlimit="10" stroke-linecap="round"/>
<path fill-rule="evenodd" clip-rule="evenodd" d="M18.8418 94.7685C27.8606 94.7685 35.1718 87.4541 35.1718 78.4306C35.1718 69.4074 27.8606 62.0928 18.8418 62.0928C9.82289 62.0928 2.51172 69.4074 2.51172 78.4306C2.51172 87.4541 9.82289 94.7685 18.8418 94.7685ZM16.7447 70.9522C16.7336 69.2702 17.4685 67.5436 18.2033 65.817C18.9716 67.4656 19.7398 69.1253 19.751 70.8075C19.7621 71.5092 19.6396 72.2221 19.4392 72.9239C19.5283 72.768 19.6173 72.612 19.7287 72.4561C20.664 71.1527 22.5122 70.0388 24.3716 68.9248C24.3716 70.4064 24.3716 71.8991 23.4475 73.1913C22.6124 74.3609 21.0314 75.3857 19.3612 76.3883V78.5939L12.3245 71.5538C12.1241 70.696 12.1241 69.816 12.1241 68.9248C13.9835 70.0388 15.8318 71.1527 16.767 72.4561C16.8783 72.612 16.9786 72.7791 17.0677 72.9574C16.8783 72.2667 16.7559 71.6206 16.7447 70.9522ZM7.11373 72.0105L8.53893 70.5957C10.7303 72.7883 12.8047 74.8649 14.8489 76.9113C18.8491 80.916 22.7339 84.8049 27.1552 89.2211L25.7411 90.6471L21.666 86.5694C20.9757 87.093 20.1852 87.5949 19.3612 88.085V90.09H17.1344V88.085C15.4643 87.0821 13.8833 86.0575 13.0482 84.8878C12.1241 83.5955 12.1241 82.1028 12.1241 80.6213C13.9835 81.7352 15.8318 82.8491 16.767 84.1525L17.1344 84.7764V82.2365C15.4643 81.2339 13.8833 80.2091 13.0482 79.0395C12.6251 78.449 12.4025 77.8364 12.2799 77.1792L7.11373 72.0105ZM19.7287 78.3043C20.664 77.0009 22.5122 75.887 24.3716 74.773C24.3716 76.2546 24.3716 77.7473 23.4475 79.0395C23.0021 79.6632 22.3341 80.2425 21.5881 80.7995L19.4949 78.7164L19.7287 78.3043ZM22.5345 81.7686C23.1246 81.3787 23.7369 81 24.3716 80.6213C24.3716 81.5459 24.3716 82.4816 24.1378 83.3727L22.5345 81.7686Z" fill="#9A9A9A"/>
<path fill-rule="evenodd" clip-rule="evenodd" d="M73.2754 94.7685C82.2942 94.7685 89.6054 87.4541 89.6054 78.4306C89.6054 69.4074 82.2942 62.0928 73.2754 62.0928C64.2565 62.0928 56.9453 69.4074 56.9453 78.4306C56.9453 87.4541 64.2565 94.7685 73.2754 94.7685ZM71.9989 84.6833C71.8945 84.5788 71.7529 84.5202 71.6053 84.5202C71.4576 84.5202 71.316 84.5788 71.2116 84.6833C71.1072 84.7881 71.0485 84.9297 71.0485 85.0772C71.0485 85.2246 71.1072 85.3662 71.2116 85.471C71.316 85.5757 71.4576 85.6343 71.6053 85.6343C71.7529 85.6343 71.8945 85.5757 71.9989 85.471C72.1033 85.3662 72.162 85.2246 72.162 85.0772C72.162 84.9297 72.1033 84.7881 71.9989 84.6833ZM75.3391 84.6833C75.2347 84.5788 75.0931 84.5202 74.9455 84.5202C74.7978 84.5202 74.6562 84.5788 74.5519 84.6833C74.4474 84.7881 74.3887 84.9297 74.3887 85.0772C74.3887 85.2246 74.4474 85.3662 74.5519 85.471C74.6562 85.5757 74.7978 85.6343 74.9455 85.6343C75.0931 85.6343 75.2347 85.5757 75.3391 85.471C75.4436 85.3662 75.5022 85.2246 75.5022 85.0772C75.5022 84.9297 75.4436 84.7881 75.3391 84.6833ZM71.8358 77.0488C71.627 76.8399 71.3438 76.7226 71.0485 76.7226C70.7532 76.7226 70.47 76.8399 70.2613 77.0488C70.0524 77.2577 69.9352 77.5411 69.9352 77.8365C69.9352 78.1319 70.0524 78.4153 70.2613 78.6242C70.47 78.8331 70.7532 78.9505 71.0485 78.9505C71.3438 78.9505 71.627 78.8331 71.8358 78.6242C72.0447 78.4153 72.162 78.1319 72.162 77.8365C72.162 77.5411 72.0447 77.2577 71.8358 77.0488ZM76.2895 77.0488C76.0807 76.8399 75.7975 76.7226 75.5022 76.7226C75.2069 76.7226 74.9237 76.8399 74.7149 77.0488C74.5061 77.2577 74.3887 77.5411 74.3887 77.8365C74.3887 78.1319 74.5061 78.4153 74.7149 78.6242C74.9237 78.8331 75.2069 78.9505 75.5022 78.9505C75.7975 78.9505 76.0807 78.8331 76.2895 78.6242C76.4983 78.4153 76.6156 78.1319 76.6156 77.8365C76.6156 77.5411 76.4983 77.2577 76.2895 77.0488ZM73.2754 88.9756C76.9608 88.9756 79.9559 86.9816 79.9559 84.5202C79.9559 83.5176 79.4548 82.5931 78.6197 81.8467C79.4548 80.7327 79.9559 79.3403 79.9559 77.8365L79.8222 76.4775C80.4235 76.6446 81.1472 76.6446 81.7373 76.4775C82.873 76.1656 84.5875 74.8845 84.3312 73.9934C84.0758 73.1022 81.9489 72.9351 80.8131 73.2694C80.1563 73.4587 79.4548 73.9377 79.0428 74.4501L78.4082 73.5479C79.0762 72.3225 78.8424 68.9249 75.5022 67.811L75.6024 67.9669C75.9141 68.4571 76.7158 70.0055 75.8696 71.6764C75.068 71.3423 74.1995 71.1528 73.2754 71.1528C72.3512 71.1528 71.4827 71.3423 70.6811 71.6764C69.8349 70.0055 70.6366 68.4571 70.9483 67.9669L71.0485 67.811C67.7083 68.9249 67.4745 72.3225 68.1425 73.5479L67.5079 74.4501C67.0959 73.9377 66.3945 73.4587 65.7376 73.2694C64.6018 72.9351 62.4753 73.1022 62.2192 73.9934C61.9631 74.8845 63.6777 76.1656 64.8135 76.4775C65.4035 76.6446 66.1272 76.6446 66.7285 76.4775L66.5949 77.8365C66.5949 79.3403 67.0959 80.7327 67.931 81.8467C67.0959 82.5931 66.5949 83.5176 66.5949 84.5202C66.5949 86.9816 69.59 88.9756 73.2754 88.9756ZM68.8217 84.5202C68.8217 83.2949 70.8147 82.2923 73.2754 82.2923C75.736 82.2923 77.729 83.2949 77.729 84.5202C77.729 85.7458 75.736 86.7478 73.2754 86.7478C70.8147 86.7478 68.8217 85.7458 68.8217 84.5202ZM76.6935 80.6882C75.6915 80.2983 74.5224 80.0644 73.2754 80.0644C72.0283 80.0644 70.8593 80.2983 69.8572 80.6882C69.2114 79.9196 68.8217 78.9505 68.8217 77.8365C68.8217 76.6547 69.2909 75.5214 70.1262 74.6858C70.9614 73.8502 72.0942 73.3807 73.2754 73.3807C74.4566 73.3807 75.5894 73.8502 76.4245 74.6858C77.2598 75.5214 77.729 76.6547 77.729 77.8365C77.729 78.9505 77.3393 79.9196 76.6935 80.6882Z" fill="#9A9A9A"/>
<path fill-rule="evenodd" clip-rule="evenodd" d="M127.709 94.7685C136.728 94.7685 144.039 87.4541 144.039 78.4306C144.039 69.4074 136.728 62.0928 127.709 62.0928C118.69 62.0928 111.379 69.4074 111.379 78.4306C111.379 87.4541 118.69 94.7685 127.709 94.7685ZM136.546 84.4237C136.902 84.2342 137.136 83.8667 137.136 83.4434V73.4178C137.136 72.9946 136.902 72.627 136.546 72.4376L127.75 67.4917C127.572 67.358 127.349 67.2911 127.115 67.2911C126.882 67.2911 126.659 67.358 126.48 67.4917L117.685 72.4376C117.328 72.627 117.094 72.9946 117.094 73.4178V83.4434C117.094 83.8667 117.328 84.2342 117.685 84.4237L126.48 89.3694C126.659 89.5035 126.882 89.5697 127.115 89.5697C127.349 89.5697 127.572 89.5035 127.75 89.3694L136.546 84.4237ZM120.479 73.4178L127.115 69.6862L133.751 73.4178L127.115 77.1496L120.479 73.4178ZM126.001 86.5509L119.321 82.7861V75.3227L126.001 79.0767V86.5509ZM134.909 75.3227V82.7861L128.228 86.5509V79.0767L134.909 75.3227Z" fill="#9A9A9A"/>
<path d="M112.216 35.7014H97.142C95.5232 35.7014 94.2109 34.3885 94.2109 32.769V8.05273H115.147V32.769C115.147 34.3885 113.835 35.7014 112.216 35.7014Z" stroke="black"/>
<path d="M103.005 3.86328H106.355C107.974 3.86328 109.286 5.17617 109.286 6.79571V8.05247H100.074V6.79571C100.074 5.17617 101.386 3.86328 103.005 3.86328Z" stroke="black"/>
<path d="M92.5371 8.05273H116.823" stroke="black" stroke-linecap="round"/>
<path d="M99.4668 16.5146L109.035 26.088" stroke="black" stroke-linecap="round"/>
<path d="M109.225 16.5146L99.6559 26.088" stroke="black" stroke-linecap="round"/>
<path d="M270.539 15.5928H285.149" stroke="black" stroke-linecap="round"/>
<path d="M265.049 23.9717H279.66" stroke="black" stroke-linecap="round"/>
<path d="M135.027 19.9581H158.897M146.109 8.5332L135.027 19.9581L146.109 8.5332ZM135.027 19.9581L146.109 31.046L135.027 19.9581Z" stroke="black" stroke-linecap="round"/>
<path d="M232.39 4.28223V23.5525M239.508 11.2333L232.39 4.28223L239.508 11.2333ZM232.39 4.28223L225.271 11.2333L232.39 4.28223Z" stroke="black" stroke-linecap="round"/>
<path fill-rule="evenodd" clip-rule="evenodd" d="M229.676 17.6875H225.272C223.422 17.6875 221.922 19.188 221.922 21.0389V32.7686C221.922 34.6194 223.422 36.1199 225.272 36.1199H239.508C241.358 36.1199 242.858 34.6194 242.858 32.7686V21.0389C242.858 19.188 241.358 17.6875 239.508 17.6875H235.104V18.5253H239.508C240.896 18.5253 242.02 19.6506 242.02 21.0389V32.7686C242.02 34.1568 240.896 35.2821 239.508 35.2821H225.272C223.884 35.2821 222.759 34.1568 222.759 32.7686V21.0389C222.759 19.6506 223.884 18.5253 225.272 18.5253H229.676V17.6875Z" fill="black"/>
<path d="M181.353 28.3516L198.232 11.4648M181.115 12.4327L181.353 28.3516L181.115 12.4327ZM181.353 28.3516H197.027H181.353Z" stroke="black" stroke-linecap="round"/>
</svg>
