<svg width="1103" height="588" viewBox="0 0 1103 588" fill="none" xmlns="http://www.w3.org/2000/svg">
<rect x="51.5" y="37.5" width="124" height="77" rx="37.5" fill="#ECECEC"/>
<path d="M84.3463 71V55.7273H85.7408V62.7298H94.4063V55.7273H95.8008V71H94.4063V63.9826H85.7408V71H84.3463ZM112.371 63.3636C112.371 64.9545 112.088 66.3391 111.521 67.5174C110.954 68.6907 110.174 69.6005 109.179 70.2468C108.19 70.8881 107.052 71.2088 105.764 71.2088C104.476 71.2088 103.335 70.8881 102.341 70.2468C101.352 69.6005 100.574 68.6907 100.007 67.5174C99.445 66.3391 99.1641 64.9545 99.1641 63.3636C99.1641 61.7727 99.445 60.3906 100.007 59.2173C100.574 58.0391 101.354 57.1293 102.348 56.4879C103.343 55.8416 104.481 55.5185 105.764 55.5185C107.052 55.5185 108.19 55.8416 109.179 56.4879C110.174 57.1293 110.954 58.0391 111.521 59.2173C112.088 60.3906 112.371 61.7727 112.371 63.3636ZM111.014 63.3636C111.014 61.9964 110.785 60.8256 110.328 59.8512C109.87 58.8718 109.246 58.1236 108.456 57.6065C107.666 57.0895 106.768 56.831 105.764 56.831C104.765 56.831 103.87 57.0895 103.079 57.6065C102.289 58.1236 101.662 58.8693 101.2 59.8438C100.743 60.8182 100.514 61.9915 100.514 63.3636C100.514 64.7308 100.743 65.9016 101.2 66.8761C101.657 67.8505 102.281 68.5987 103.072 69.1207C103.862 69.6378 104.76 69.8963 105.764 69.8963C106.768 69.8963 107.666 69.6378 108.456 69.1207C109.251 68.6037 109.878 67.858 110.335 66.8835C110.793 65.9041 111.019 64.7308 111.014 63.3636ZM115.744 55.7273H117.355L122.895 69.0312H123.03L128.57 55.7273H130.181V71H128.869V58.6729H128.749L123.596 71H122.329L117.176 58.6729H117.056V71H115.744V55.7273ZM134.242 71V55.7273H143.101V56.9801H135.636V62.7298H142.631V63.9826H135.636V69.7472H143.25V71H134.242ZM89.1964 96V80.7273H94.1257C95.2095 80.7273 96.1143 80.9361 96.8402 81.3537C97.571 81.7663 98.1204 82.3281 98.4883 83.0391C98.8612 83.75 99.0476 84.5504 99.0476 85.4403C99.0476 86.3303 98.8636 87.1332 98.4957 87.8491C98.1278 88.56 97.581 89.1243 96.8551 89.5419C96.1293 89.9545 95.2269 90.1609 94.1481 90.1609H90.2702V88.908H94.1108C94.9112 88.908 95.5749 88.7589 96.1019 88.4606C96.6289 88.1573 97.0217 87.7447 97.2802 87.2227C97.5437 86.7006 97.6754 86.1065 97.6754 85.4403C97.6754 84.7741 97.5437 84.18 97.2802 83.658C97.0217 83.136 96.6264 82.7259 96.0945 82.4276C95.5675 82.1293 94.8988 81.9801 94.0884 81.9801H90.5909V96H89.1964ZM100.785 96H99.3235L104.879 80.7273H106.371L111.926 96H110.465L105.677 82.5394H105.573L100.785 96ZM101.837 90.146H109.413V91.3988H101.837V90.146ZM124.393 85.5C124.254 84.9929 124.05 84.5181 123.782 84.0756C123.513 83.6282 123.18 83.2379 122.783 82.9048C122.39 82.5668 121.935 82.3033 121.418 82.1143C120.906 81.9254 120.334 81.831 119.703 81.831C118.708 81.831 117.818 82.0895 117.033 82.6065C116.247 83.1236 115.626 83.8693 115.169 84.8438C114.716 85.8182 114.49 86.9915 114.49 88.3636C114.49 89.7308 114.719 90.9016 115.176 91.8761C115.633 92.8505 116.26 93.5987 117.055 94.1207C117.856 94.6378 118.771 94.8963 119.8 94.8963C120.739 94.8963 121.57 94.6875 122.29 94.2699C123.011 93.8523 123.573 93.2557 123.976 92.4801C124.383 91.7045 124.582 90.7823 124.572 89.7134L125.02 89.8551H120.128V88.6023H125.93V89.8551C125.93 91.1577 125.666 92.2837 125.139 93.2333C124.612 94.1829 123.889 94.9162 122.969 95.4332C122.049 95.9503 120.993 96.2088 119.8 96.2088C118.467 96.2088 117.301 95.8881 116.302 95.2468C115.303 94.6005 114.525 93.6907 113.968 92.5174C113.416 91.3391 113.14 89.9545 113.14 88.3636C113.14 87.1655 113.299 86.0842 113.617 85.1197C113.936 84.1552 114.386 83.3299 114.967 82.6438C115.554 81.9577 116.247 81.4332 117.048 81.0703C117.848 80.7024 118.733 80.5185 119.703 80.5185C120.538 80.5185 121.301 80.6502 121.992 80.9137C122.688 81.1772 123.3 81.5401 123.827 82.0025C124.359 82.4599 124.794 82.9893 125.132 83.5909C125.475 84.1875 125.706 84.8239 125.825 85.5H124.393ZM129.392 96V80.7273H138.251V81.9801H130.786V87.7298H137.781V88.9826H130.786V94.7472H138.4V96H129.392Z" fill="black"/>
<rect x="51.5" y="37.5" width="124" height="77" rx="37.5" stroke="black"/>
<path d="M412.544 34H411.083L416.639 18.7273H418.13L423.686 34H422.224L417.436 20.5394H417.332L412.544 34ZM413.596 28.146H421.173V29.3988H413.596V28.146ZM426.303 34V18.7273H427.698V32.7472H434.976V34H426.303ZM438.116 34V18.7273H439.51V32.7472H446.789V34H438.116ZM455.835 34V18.7273H460.764C461.848 18.7273 462.753 18.9361 463.478 19.3537C464.209 19.7663 464.759 20.3281 465.126 21.0391C465.499 21.75 465.686 22.5504 465.686 23.4403C465.686 24.3303 465.502 25.1332 465.134 25.8491C464.766 26.56 464.219 27.1243 463.493 27.5419C462.767 27.9545 461.865 28.1609 460.786 28.1609H456.908V26.908H460.749C461.549 26.908 462.213 26.7589 462.74 26.4606C463.267 26.1573 463.66 25.7447 463.918 25.2227C464.182 24.7006 464.314 24.1065 464.314 23.4403C464.314 22.7741 464.182 22.18 463.918 21.658C463.66 21.136 463.265 20.7259 462.733 20.4276C462.206 20.1293 461.537 19.9801 460.727 19.9801H457.229V34H455.835ZM468.96 34V18.7273H473.889C474.973 18.7273 475.878 18.9237 476.603 19.3164C477.334 19.7042 477.884 20.2436 478.251 20.9347C478.624 21.6207 478.811 22.4087 478.811 23.2987C478.811 24.1886 478.624 24.9741 478.251 25.6552C477.884 26.3363 477.337 26.8683 476.611 27.2511C475.885 27.6339 474.985 27.8253 473.911 27.8253H469.713V26.5501H473.874C474.669 26.5501 475.331 26.4183 475.858 26.1548C476.39 25.8913 476.785 25.516 477.043 25.0288C477.307 24.5415 477.439 23.9648 477.439 23.2987C477.439 22.6325 477.307 22.0508 477.043 21.5536C476.78 21.0515 476.382 20.6637 475.85 20.3903C475.323 20.1168 474.657 19.9801 473.852 19.9801H470.354V34H468.96ZM475.694 27.1094L479.452 34H477.841L474.12 27.1094H475.694ZM494.729 26.3636C494.729 27.9545 494.445 29.3391 493.878 30.5174C493.312 31.6907 492.531 32.6005 491.537 33.2468C490.547 33.8881 489.409 34.2088 488.121 34.2088C486.834 34.2088 485.693 33.8881 484.698 33.2468C483.709 32.6005 482.931 31.6907 482.364 30.5174C481.802 29.3391 481.522 27.9545 481.522 26.3636C481.522 24.7727 481.802 23.3906 482.364 22.2173C482.931 21.0391 483.712 20.1293 484.706 19.4879C485.7 18.8416 486.839 18.5185 488.121 18.5185C489.409 18.5185 490.547 18.8416 491.537 19.4879C492.531 20.1293 493.312 21.0391 493.878 22.2173C494.445 23.3906 494.729 24.7727 494.729 26.3636ZM493.371 26.3636C493.371 24.9964 493.143 23.8256 492.685 22.8512C492.228 21.8718 491.604 21.1236 490.813 20.6065C490.023 20.0895 489.126 19.831 488.121 19.831C487.122 19.831 486.227 20.0895 485.437 20.6065C484.646 21.1236 484.02 21.8693 483.557 22.8438C483.1 23.8182 482.871 24.9915 482.871 26.3636C482.871 27.7308 483.1 28.9016 483.557 29.8761C484.015 30.8505 484.639 31.5987 485.429 32.1207C486.22 32.6378 487.117 32.8963 488.121 32.8963C489.126 32.8963 490.023 32.6378 490.813 32.1207C491.609 31.6037 492.235 30.858 492.693 29.8835C493.15 28.9041 493.376 27.7308 493.371 26.3636ZM502.576 34H498.101V18.7273H502.844C504.301 18.7273 505.546 19.0305 506.58 19.6371C507.619 20.2436 508.415 21.1136 508.967 22.2472C509.518 23.3807 509.794 24.7404 509.794 26.3263C509.794 27.9272 509.511 29.3018 508.944 30.4503C508.382 31.5937 507.562 32.4712 506.483 33.0827C505.409 33.6942 504.107 34 502.576 34ZM499.496 32.7472H502.494C503.806 32.7472 504.905 32.4886 505.79 31.9716C506.675 31.4545 507.338 30.7163 507.781 29.7567C508.223 28.7972 508.445 27.6538 508.445 26.3263C508.44 25.0089 508.221 23.8754 507.788 22.9258C507.361 21.9762 506.724 21.2479 505.879 20.7408C505.039 20.2337 504 19.9801 502.762 19.9801H499.496V32.7472ZM523.354 18.7273H524.748V28.8395C524.748 29.8786 524.505 30.8082 524.017 31.6286C523.53 32.4439 522.852 33.0877 521.982 33.56C521.117 34.0273 520.11 34.261 518.961 34.261C517.818 34.261 516.811 34.0249 515.941 33.5526C515.071 33.0803 514.392 32.4364 513.905 31.6211C513.418 30.8058 513.174 29.8786 513.174 28.8395V18.7273H514.569V28.7425C514.569 29.5529 514.75 30.2763 515.113 30.9126C515.476 31.544 515.986 32.0412 516.642 32.4041C517.303 32.767 518.076 32.9485 518.961 32.9485C519.846 32.9485 520.619 32.767 521.281 32.4041C521.942 32.0412 522.451 31.544 522.809 30.9126C523.172 30.2763 523.354 29.5529 523.354 28.7425V18.7273ZM540.763 23.5H539.361C539.257 22.978 539.068 22.4957 538.794 22.0533C538.526 21.6058 538.188 21.2156 537.78 20.8825C537.372 20.5494 536.91 20.2908 536.393 20.1069C535.876 19.9229 535.317 19.831 534.715 19.831C533.751 19.831 532.871 20.082 532.075 20.5842C531.285 21.0863 530.651 21.8246 530.174 22.799C529.701 23.7685 529.465 24.9567 529.465 26.3636C529.465 27.7805 529.701 28.9737 530.174 29.9432C530.651 30.9126 531.285 31.6484 532.075 32.1506C532.871 32.6477 533.751 32.8963 534.715 32.8963C535.317 32.8963 535.876 32.8043 536.393 32.6204C536.91 32.4364 537.372 32.1804 537.78 31.8523C538.188 31.5192 538.526 31.1289 538.794 30.6815C539.068 30.234 539.257 29.7493 539.361 29.2273H540.763C540.639 29.9283 540.405 30.582 540.062 31.1886C539.724 31.7901 539.291 32.3171 538.764 32.7695C538.242 33.2219 537.641 33.5749 536.96 33.8285C536.279 34.082 535.53 34.2088 534.715 34.2088C533.432 34.2088 532.294 33.8881 531.3 33.2468C530.305 32.6005 529.525 31.6907 528.958 30.5174C528.396 29.3441 528.115 27.9595 528.115 26.3636C528.115 24.7678 528.396 23.3832 528.958 22.2099C529.525 21.0366 530.305 20.1293 531.3 19.4879C532.294 18.8416 533.432 18.5185 534.715 18.5185C535.53 18.5185 536.279 18.6452 536.96 18.8988C537.641 19.1474 538.242 19.5004 538.764 19.9577C539.291 20.4102 539.724 20.9371 540.062 21.5387C540.405 22.1403 540.639 22.794 540.763 23.5ZM543.114 19.9801V18.7273H554.188V19.9801H549.348V34H547.954V19.9801H543.114ZM565.62 22.5455C565.536 21.6953 565.16 21.0192 564.494 20.517C563.828 20.0149 562.99 19.7638 561.981 19.7638C561.27 19.7638 560.644 19.8857 560.102 20.1293C559.565 20.3729 559.142 20.7109 558.834 21.1435C558.531 21.571 558.379 22.0582 558.379 22.6051C558.379 23.0078 558.466 23.3608 558.64 23.6641C558.814 23.9673 559.048 24.2283 559.341 24.4471C559.64 24.6609 559.968 24.8448 560.326 24.9989C560.689 25.1531 561.054 25.2823 561.422 25.3867L563.033 25.8491C563.52 25.9833 564.007 26.1548 564.494 26.3636C564.981 26.5724 565.426 26.8359 565.829 27.1541C566.237 27.4673 566.562 27.8526 566.806 28.31C567.055 28.7624 567.179 29.3068 567.179 29.9432C567.179 30.7585 566.968 31.4918 566.545 32.1431C566.122 32.7944 565.516 33.3114 564.725 33.6942C563.935 34.0721 562.988 34.261 561.884 34.261C560.845 34.261 559.943 34.0895 559.177 33.7464C558.412 33.3984 557.81 32.9187 557.372 32.3072C556.935 31.6957 556.689 30.9872 556.634 30.1818H558.066C558.116 30.7834 558.315 31.293 558.663 31.7106C559.011 32.1282 559.463 32.4464 560.02 32.6651C560.577 32.8789 561.198 32.9858 561.884 32.9858C562.645 32.9858 563.321 32.859 563.913 32.6055C564.509 32.3469 564.977 31.989 565.315 31.5316C565.658 31.0692 565.829 30.5323 565.829 29.9208C565.829 29.4038 565.695 28.9712 565.426 28.6232C565.158 28.2702 564.783 27.9744 564.3 27.7358C563.823 27.4972 563.269 27.2859 562.637 27.1019L560.81 26.565C559.612 26.207 558.682 25.7124 558.021 25.081C557.36 24.4496 557.029 23.6442 557.029 22.6648C557.029 21.8445 557.248 21.1236 557.686 20.5021C558.128 19.8757 558.725 19.3885 559.475 19.0405C560.231 18.6875 561.079 18.511 562.018 18.511C562.968 18.511 563.808 18.685 564.539 19.033C565.27 19.381 565.849 19.8608 566.277 20.4723C566.709 21.0788 566.94 21.7699 566.97 22.5455H565.62Z" fill="black"/>
<rect x="384.5" y="0.5" width="210" height="52" stroke="black"/>
<path d="M119.212 316.5H117.81C117.706 315.978 117.517 315.496 117.243 315.053C116.975 314.606 116.637 314.216 116.229 313.882C115.822 313.549 115.359 313.291 114.842 313.107C114.325 312.923 113.766 312.831 113.164 312.831C112.2 312.831 111.32 313.082 110.524 313.584C109.734 314.086 109.1 314.825 108.623 315.799C108.15 316.768 107.914 317.957 107.914 319.364C107.914 320.781 108.15 321.974 108.623 322.943C109.1 323.913 109.734 324.648 110.524 325.151C111.32 325.648 112.2 325.896 113.164 325.896C113.766 325.896 114.325 325.804 114.842 325.62C115.359 325.436 115.822 325.18 116.229 324.852C116.637 324.519 116.975 324.129 117.243 323.681C117.517 323.234 117.706 322.749 117.81 322.227H119.212C119.088 322.928 118.854 323.582 118.511 324.189C118.173 324.79 117.741 325.317 117.214 325.77C116.692 326.222 116.09 326.575 115.409 326.828C114.728 327.082 113.98 327.209 113.164 327.209C111.882 327.209 110.743 326.888 109.749 326.247C108.754 325.6 107.974 324.691 107.407 323.517C106.845 322.344 106.564 320.96 106.564 319.364C106.564 317.768 106.845 316.383 107.407 315.21C107.974 314.037 108.754 313.129 109.749 312.488C110.743 311.842 111.882 311.518 113.164 311.518C113.98 311.518 114.728 311.645 115.409 311.899C116.09 312.147 116.692 312.5 117.214 312.958C117.741 313.41 118.173 313.937 118.511 314.539C118.854 315.14 119.088 315.794 119.212 316.5ZM122.51 327H121.049L126.604 311.727H128.096L133.652 327H132.19L127.402 313.539H127.298L122.51 327ZM123.562 321.146H131.138V322.399H123.562V321.146ZM136.269 327V311.727H141.198C142.282 311.727 143.187 311.924 143.913 312.316C144.644 312.704 145.193 313.244 145.561 313.935C145.934 314.621 146.12 315.409 146.12 316.299C146.12 317.189 145.934 317.974 145.561 318.655C145.193 319.336 144.646 319.868 143.92 320.251C143.195 320.634 142.295 320.825 141.221 320.825H137.022V319.55H141.184C141.979 319.55 142.64 319.418 143.167 319.155C143.699 318.891 144.094 318.516 144.353 318.029C144.616 317.542 144.748 316.965 144.748 316.299C144.748 315.632 144.616 315.051 144.353 314.554C144.089 314.051 143.692 313.664 143.16 313.39C142.633 313.117 141.967 312.98 141.161 312.98H137.664V327H136.269ZM143.003 320.109L146.762 327H145.151L141.43 320.109H143.003ZM148.592 312.98V311.727H159.667V312.98H154.827V327H153.432V312.98H148.592Z" fill="black"/>
<rect x="79.5" y="293.5" width="107" height="52" stroke="black"/>
<path d="M523.584 518.364C523.584 519.955 523.3 521.339 522.733 522.517C522.167 523.691 521.386 524.6 520.392 525.247C519.402 525.888 518.264 526.209 516.976 526.209C515.689 526.209 514.548 525.888 513.553 525.247C512.564 524.6 511.786 523.691 511.219 522.517C510.657 521.339 510.377 519.955 510.377 518.364C510.377 516.773 510.657 515.391 511.219 514.217C511.786 513.039 512.566 512.129 513.561 511.488C514.555 510.842 515.694 510.518 516.976 510.518C518.264 510.518 519.402 510.842 520.392 511.488C521.386 512.129 522.167 513.039 522.733 514.217C523.3 515.391 523.584 516.773 523.584 518.364ZM522.226 518.364C522.226 516.996 521.998 515.826 521.54 514.851C521.083 513.872 520.459 513.124 519.668 512.607C518.878 512.089 517.981 511.831 516.976 511.831C515.977 511.831 515.082 512.089 514.292 512.607C513.501 513.124 512.875 513.869 512.412 514.844C511.955 515.818 511.726 516.991 511.726 518.364C511.726 519.731 511.955 520.902 512.412 521.876C512.87 522.85 513.494 523.599 514.284 524.121C515.075 524.638 515.972 524.896 516.976 524.896C517.981 524.896 518.878 524.638 519.668 524.121C520.464 523.604 521.09 522.858 521.548 521.884C522.005 520.904 522.231 519.731 522.226 518.364ZM526.956 526V510.727H531.885C532.969 510.727 533.874 510.924 534.6 511.316C535.331 511.704 535.88 512.244 536.248 512.935C536.621 513.621 536.807 514.409 536.807 515.299C536.807 516.189 536.621 516.974 536.248 517.655C535.88 518.336 535.333 518.868 534.607 519.251C533.882 519.634 532.982 519.825 531.908 519.825H527.709V518.55H531.871C532.666 518.55 533.327 518.418 533.854 518.155C534.386 517.891 534.781 517.516 535.04 517.029C535.303 516.542 535.435 515.965 535.435 515.299C535.435 514.632 535.303 514.051 535.04 513.554C534.776 513.051 534.379 512.664 533.847 512.39C533.32 512.117 532.654 511.98 531.848 511.98H528.351V526H526.956ZM533.69 519.109L537.449 526H535.838L532.117 519.109H533.69ZM544.679 526H540.204V510.727H544.947C546.404 510.727 547.649 511.031 548.683 511.637C549.722 512.244 550.518 513.114 551.07 514.247C551.621 515.381 551.897 516.74 551.897 518.326C551.897 519.927 551.614 521.302 551.047 522.45C550.485 523.594 549.665 524.471 548.586 525.083C547.512 525.694 546.21 526 544.679 526ZM541.599 524.747H544.597C545.909 524.747 547.008 524.489 547.893 523.972C548.778 523.455 549.441 522.716 549.884 521.757C550.326 520.797 550.548 519.654 550.548 518.326C550.543 517.009 550.324 515.875 549.891 514.926C549.464 513.976 548.827 513.248 547.982 512.741C547.142 512.234 546.103 511.98 544.865 511.98H541.599V524.747ZM555.277 526V510.727H564.137V511.98H556.672V517.73H563.667V518.983H556.672V524.747H564.286V526H555.277ZM567.746 526V510.727H572.676C573.759 510.727 574.664 510.924 575.39 511.316C576.121 511.704 576.67 512.244 577.038 512.935C577.411 513.621 577.597 514.409 577.597 515.299C577.597 516.189 577.411 516.974 577.038 517.655C576.67 518.336 576.123 518.868 575.397 519.251C574.672 519.634 573.772 519.825 572.698 519.825H568.499V518.55H572.661C573.456 518.55 574.117 518.418 574.644 518.155C575.176 517.891 575.571 517.516 575.83 517.029C576.093 516.542 576.225 515.965 576.225 515.299C576.225 514.632 576.093 514.051 575.83 513.554C575.566 513.051 575.169 512.664 574.637 512.39C574.11 512.117 573.444 511.98 572.638 511.98H569.141V526H567.746ZM574.48 519.109L578.239 526H576.628L572.907 519.109H574.48ZM478.399 540.5H476.997C476.893 539.978 476.704 539.496 476.43 539.053C476.162 538.606 475.824 538.216 475.416 537.882C475.009 537.549 474.546 537.291 474.029 537.107C473.512 536.923 472.953 536.831 472.351 536.831C471.387 536.831 470.507 537.082 469.711 537.584C468.921 538.086 468.287 538.825 467.81 539.799C467.337 540.768 467.101 541.957 467.101 543.364C467.101 544.781 467.337 545.974 467.81 546.943C468.287 547.913 468.921 548.648 469.711 549.151C470.507 549.648 471.387 549.896 472.351 549.896C472.953 549.896 473.512 549.804 474.029 549.62C474.546 549.436 475.009 549.18 475.416 548.852C475.824 548.519 476.162 548.129 476.43 547.681C476.704 547.234 476.893 546.749 476.997 546.227H478.399C478.275 546.928 478.041 547.582 477.698 548.189C477.36 548.79 476.928 549.317 476.401 549.77C475.879 550.222 475.277 550.575 474.596 550.828C473.915 551.082 473.167 551.209 472.351 551.209C471.069 551.209 469.93 550.888 468.936 550.247C467.941 549.6 467.161 548.691 466.594 547.517C466.032 546.344 465.752 544.96 465.752 543.364C465.752 541.768 466.032 540.383 466.594 539.21C467.161 538.037 467.941 537.129 468.936 536.488C469.93 535.842 471.069 535.518 472.351 535.518C473.167 535.518 473.915 535.645 474.596 535.899C475.277 536.147 475.879 536.5 476.401 536.958C476.928 537.41 477.36 537.937 477.698 538.539C478.041 539.14 478.275 539.794 478.399 540.5ZM494.196 543.364C494.196 544.955 493.912 546.339 493.346 547.517C492.779 548.691 491.998 549.6 491.004 550.247C490.015 550.888 488.876 551.209 487.589 551.209C486.301 551.209 485.16 550.888 484.166 550.247C483.176 549.6 482.398 548.691 481.831 547.517C481.27 546.339 480.989 544.955 480.989 543.364C480.989 541.773 481.27 540.391 481.831 539.217C482.398 538.039 483.179 537.129 484.173 536.488C485.167 535.842 486.306 535.518 487.589 535.518C488.876 535.518 490.015 535.842 491.004 536.488C491.998 537.129 492.779 538.039 493.346 539.217C493.912 540.391 494.196 541.773 494.196 543.364ZM492.839 543.364C492.839 541.996 492.61 540.826 492.153 539.851C491.695 538.872 491.071 538.124 490.281 537.607C489.49 537.089 488.593 536.831 487.589 536.831C486.589 536.831 485.694 537.089 484.904 537.607C484.113 538.124 483.487 538.869 483.025 539.844C482.567 540.818 482.339 541.991 482.339 543.364C482.339 544.731 482.567 545.902 483.025 546.876C483.482 547.85 484.106 548.599 484.896 549.121C485.687 549.638 486.584 549.896 487.589 549.896C488.593 549.896 489.49 549.638 490.281 549.121C491.076 548.604 491.703 547.858 492.16 546.884C492.617 545.904 492.844 544.731 492.839 543.364ZM509.463 535.727V551H508.106L499.082 538.211H498.963V551H497.568V535.727H498.918L507.972 548.532H508.091V535.727H509.463ZM513.524 551V535.727H522.361V536.98H514.918V542.73H521.667V543.983H514.918V551H513.524ZM527.223 535.727V551H525.828V535.727H527.223ZM531.283 551V535.727H536.213C537.296 535.727 538.201 535.924 538.927 536.316C539.658 536.704 540.207 537.244 540.575 537.935C540.948 538.621 541.135 539.409 541.135 540.299C541.135 541.189 540.948 541.974 540.575 542.655C540.207 543.336 539.66 543.868 538.935 544.251C538.209 544.634 537.309 544.825 536.235 544.825H532.036V543.55H536.198C536.993 543.55 537.654 543.418 538.181 543.155C538.713 542.891 539.109 542.516 539.367 542.029C539.631 541.542 539.762 540.965 539.762 540.299C539.762 539.632 539.631 539.051 539.367 538.554C539.104 538.051 538.706 537.664 538.174 537.39C537.647 537.117 536.981 536.98 536.175 536.98H532.678V551H531.283ZM538.017 544.109L541.776 551H540.165L536.444 544.109H538.017ZM544.531 535.727H546.142L551.683 549.031H551.817L557.358 535.727H558.969V551H557.656V538.673H557.537L552.384 551H551.116L545.963 538.673H545.844V551H544.531V535.727ZM563.052 551H561.59L567.146 535.727H568.637L574.193 551H572.731L567.944 537.539H567.839L563.052 551ZM564.103 545.146H571.68V546.399H564.103V545.146ZM574.102 536.98V535.727H585.176V536.98H580.336V551H578.942V536.98H574.102ZM589.71 535.727V551H588.316V535.727H589.71ZM606.292 543.364C606.292 544.955 606.008 546.339 605.441 547.517C604.875 548.691 604.094 549.6 603.1 550.247C602.11 550.888 600.972 551.209 599.684 551.209C598.397 551.209 597.256 550.888 596.261 550.247C595.272 549.6 594.494 548.691 593.927 547.517C593.365 546.339 593.085 544.955 593.085 543.364C593.085 541.773 593.365 540.391 593.927 539.217C594.494 538.039 595.275 537.129 596.269 536.488C597.263 535.842 598.402 535.518 599.684 535.518C600.972 535.518 602.11 535.842 603.1 536.488C604.094 537.129 604.875 538.039 605.441 539.217C606.008 540.391 606.292 541.773 606.292 543.364ZM604.934 543.364C604.934 541.996 604.706 540.826 604.248 539.851C603.791 538.872 603.167 538.124 602.376 537.607C601.586 537.089 600.689 536.831 599.684 536.831C598.685 536.831 597.79 537.089 597 537.607C596.209 538.124 595.583 538.869 595.12 539.844C594.663 540.818 594.434 541.991 594.434 543.364C594.434 544.731 594.663 545.902 595.12 546.876C595.578 547.85 596.202 548.599 596.992 549.121C597.783 549.638 598.68 549.896 599.684 549.896C600.689 549.896 601.586 549.638 602.376 549.121C603.172 548.604 603.798 547.858 604.256 546.884C604.713 545.904 604.939 544.731 604.934 543.364ZM621.559 535.727V551H620.201L611.178 538.211H611.059V551H609.664V535.727H611.014L620.067 548.532H620.187V535.727H621.559Z" fill="black"/>
<rect x="438.5" y="492.5" width="211" height="77" stroke="black"/>
<path d="M540.863 307.273V316H540.066V308.108H540.015L537.97 309.467V308.641L540.032 307.273H540.863ZM545.265 316.064C545.098 316.064 544.953 316.004 544.831 315.885C544.711 315.763 544.652 315.618 544.652 315.45C544.652 315.28 544.711 315.135 544.831 315.016C544.953 314.896 545.098 314.837 545.265 314.837C545.436 314.837 545.581 314.896 545.7 315.016C545.819 315.135 545.879 315.28 545.879 315.45C545.879 315.561 545.851 315.663 545.794 315.757C545.74 315.851 545.666 315.926 545.572 315.983C545.481 316.037 545.379 316.064 545.265 316.064ZM557.874 307.273H558.671V313.051C558.671 313.645 558.532 314.176 558.254 314.645C557.975 315.111 557.587 315.479 557.09 315.749C556.596 316.016 556.021 316.149 555.364 316.149C554.711 316.149 554.136 316.014 553.638 315.744C553.141 315.474 552.754 315.107 552.475 314.641C552.197 314.175 552.058 313.645 552.058 313.051V307.273H552.854V312.996C552.854 313.459 552.958 313.872 553.165 314.236C553.373 314.597 553.664 314.881 554.039 315.088C554.417 315.295 554.859 315.399 555.364 315.399C555.87 315.399 556.312 315.295 556.69 315.088C557.067 314.881 557.359 314.597 557.563 314.236C557.771 313.872 557.874 313.459 557.874 312.996V307.273ZM565.726 309.455C565.678 308.969 565.463 308.582 565.082 308.295C564.702 308.009 564.223 307.865 563.646 307.865C563.24 307.865 562.882 307.935 562.572 308.074C562.266 308.213 562.024 308.406 561.848 308.653C561.675 308.898 561.588 309.176 561.588 309.489C561.588 309.719 561.638 309.92 561.737 310.094C561.837 310.267 561.97 310.416 562.138 310.541C562.308 310.663 562.496 310.768 562.7 310.857C562.908 310.945 563.116 311.018 563.327 311.078L564.247 311.342C564.526 311.419 564.804 311.517 565.082 311.636C565.361 311.756 565.615 311.906 565.845 312.088C566.078 312.267 566.264 312.487 566.403 312.749C566.545 313.007 566.616 313.318 566.616 313.682C566.616 314.148 566.496 314.567 566.254 314.939C566.013 315.311 565.666 315.607 565.214 315.825C564.763 316.041 564.222 316.149 563.591 316.149C562.997 316.149 562.482 316.051 562.044 315.855C561.607 315.656 561.263 315.382 561.013 315.033C560.763 314.683 560.622 314.278 560.591 313.818H561.409C561.438 314.162 561.551 314.453 561.75 314.692C561.949 314.93 562.207 315.112 562.526 315.237C562.844 315.359 563.199 315.42 563.591 315.42C564.026 315.42 564.412 315.348 564.75 315.203C565.091 315.055 565.358 314.851 565.551 314.589C565.747 314.325 565.845 314.018 565.845 313.669C565.845 313.374 565.768 313.126 565.615 312.928C565.462 312.726 565.247 312.557 564.972 312.42C564.699 312.284 564.382 312.163 564.021 312.058L562.977 311.751C562.293 311.547 561.761 311.264 561.384 310.903C561.006 310.543 560.817 310.082 560.817 309.523C560.817 309.054 560.942 308.642 561.192 308.287C561.445 307.929 561.786 307.651 562.214 307.452C562.646 307.25 563.131 307.149 563.668 307.149C564.21 307.149 564.69 307.249 565.108 307.447C565.526 307.646 565.857 307.92 566.101 308.27C566.348 308.616 566.48 309.011 566.497 309.455H565.726ZM568.534 316V307.273H573.597V307.989H569.331V311.274H573.328V311.99H569.331V315.284H573.682V316H568.534ZM575.659 316V307.273H578.476C579.095 307.273 579.612 307.385 580.027 307.609C580.445 307.831 580.759 308.139 580.969 308.534C581.182 308.926 581.288 309.376 581.288 309.885C581.288 310.393 581.182 310.842 580.969 311.232C580.759 311.621 580.446 311.925 580.031 312.143C579.616 312.362 579.102 312.472 578.489 312.472H576.089V311.743H578.467C578.922 311.743 579.3 311.668 579.601 311.517C579.905 311.366 580.131 311.152 580.278 310.874C580.429 310.595 580.504 310.266 580.504 309.885C580.504 309.504 580.429 309.172 580.278 308.888C580.128 308.601 579.901 308.379 579.597 308.223C579.295 308.067 578.915 307.989 578.455 307.989H576.456V316H575.659ZM579.507 312.062L581.655 316H580.734L578.608 312.062H579.507ZM589.161 316H586.604V307.273H589.315C590.147 307.273 590.859 307.446 591.45 307.793C592.043 308.139 592.498 308.636 592.813 309.284C593.129 309.932 593.286 310.709 593.286 311.615C593.286 312.53 593.124 313.315 592.8 313.972C592.479 314.625 592.011 315.126 591.394 315.476C590.781 315.825 590.036 316 589.161 316ZM587.401 315.284H589.114C589.864 315.284 590.492 315.136 590.998 314.841C591.504 314.545 591.883 314.124 592.136 313.575C592.388 313.027 592.515 312.374 592.515 311.615C592.512 310.862 592.387 310.214 592.14 309.672C591.896 309.129 591.532 308.713 591.049 308.423C590.569 308.134 589.975 307.989 589.268 307.989H587.401V315.284ZM594.82 316H593.985L597.16 307.273H598.012L601.187 316H600.352L597.616 308.308H597.556L594.82 316ZM595.421 312.655H599.751V313.371H595.421V312.655ZM601.135 307.989V307.273H607.463V307.989H604.697V316H603.9V307.989H601.135ZM608.25 316H607.415L610.589 307.273H611.442L614.616 316H613.781L611.045 308.308H610.986L608.25 316ZM608.851 312.655H613.18V313.371H608.851V312.655ZM618.788 306.864L615.976 317.312H615.264L618.077 306.864H618.788ZM529.245 324.455C529.197 323.969 528.983 323.582 528.602 323.295C528.221 323.009 527.743 322.865 527.166 322.865C526.76 322.865 526.402 322.935 526.092 323.074C525.785 323.213 525.544 323.406 525.368 323.653C525.194 323.898 525.108 324.176 525.108 324.489C525.108 324.719 525.157 324.92 525.257 325.094C525.356 325.267 525.49 325.416 525.657 325.541C525.828 325.663 526.015 325.768 526.22 325.857C526.427 325.945 526.636 326.018 526.846 326.078L527.767 326.342C528.045 326.419 528.324 326.517 528.602 326.636C528.88 326.756 529.135 326.906 529.365 327.088C529.598 327.267 529.784 327.487 529.923 327.749C530.065 328.007 530.136 328.318 530.136 328.682C530.136 329.148 530.015 329.567 529.774 329.939C529.532 330.311 529.186 330.607 528.734 330.825C528.282 331.041 527.741 331.149 527.11 331.149C526.517 331.149 526.001 331.051 525.564 330.855C525.126 330.656 524.782 330.382 524.532 330.033C524.282 329.683 524.142 329.278 524.11 328.818H524.929C524.957 329.162 525.071 329.453 525.27 329.692C525.468 329.93 525.727 330.112 526.045 330.237C526.363 330.359 526.718 330.42 527.11 330.42C527.545 330.42 527.931 330.348 528.27 330.203C528.61 330.055 528.877 329.851 529.071 329.589C529.267 329.325 529.365 329.018 529.365 328.669C529.365 328.374 529.288 328.126 529.135 327.928C528.981 327.726 528.767 327.557 528.491 327.42C528.218 327.284 527.902 327.163 527.541 327.058L526.497 326.751C525.812 326.547 525.281 326.264 524.903 325.903C524.525 325.543 524.336 325.082 524.336 324.523C524.336 324.054 524.461 323.642 524.711 323.287C524.964 322.929 525.305 322.651 525.734 322.452C526.166 322.25 526.65 322.149 527.187 322.149C527.73 322.149 528.21 322.249 528.627 322.447C529.045 322.646 529.376 322.92 529.62 323.27C529.868 323.616 530 324.011 530.017 324.455H529.245ZM532.054 331V322.273H532.85V326.274H537.802V322.273H538.599V331H537.802V326.99H532.85V331H532.054ZM541.71 322.273V331H540.913V322.273H541.71ZM544.03 331V322.273H546.847C547.466 322.273 547.983 322.392 548.398 322.631C548.816 322.866 549.13 323.188 549.34 323.594C549.553 324 549.659 324.457 549.659 324.966C549.659 325.474 549.554 325.933 549.344 326.342C549.134 326.749 548.821 327.071 548.407 327.31C547.992 327.545 547.476 327.663 546.86 327.663H544.644V326.947H546.838C547.296 326.947 547.675 326.862 547.976 326.692C548.277 326.518 548.502 326.283 548.65 325.984C548.8 325.686 548.875 325.347 548.875 324.966C548.875 324.585 548.8 324.246 548.65 323.947C548.502 323.649 548.276 323.415 547.972 323.244C547.671 323.074 547.289 322.989 546.826 322.989H544.827V331H544.03ZM551.53 331V322.273H554.347C554.966 322.273 555.483 322.392 555.898 322.631C556.316 322.866 556.63 323.188 556.84 323.594C557.053 324 557.159 324.457 557.159 324.966C557.159 325.474 557.054 325.933 556.844 326.342C556.634 326.749 556.321 327.071 555.907 327.31C555.492 327.545 554.976 327.663 554.36 327.663H552.144V326.947H554.338C554.796 326.947 555.175 326.862 555.476 326.692C555.777 326.518 556.002 326.283 556.15 325.984C556.3 325.686 556.375 325.347 556.375 324.966C556.375 324.585 556.3 324.246 556.15 323.947C556.002 323.649 555.776 323.415 555.472 323.244C555.171 323.074 554.789 322.989 554.326 322.989H552.327V331H551.53ZM559.827 322.273V331H559.03V322.273H559.827ZM568.944 322.273V331H568.169L563.012 323.692H562.944V331H562.147V322.273H562.919L568.092 329.589H568.16V322.273H568.944ZM577.303 325C577.223 324.71 577.107 324.439 576.953 324.186C576.8 323.93 576.61 323.707 576.382 323.517C576.158 323.324 575.898 323.173 575.603 323.065C575.31 322.957 574.983 322.903 574.623 322.903C574.054 322.903 573.546 323.051 573.097 323.347C572.648 323.642 572.293 324.068 572.032 324.625C571.773 325.182 571.644 325.852 571.644 326.636C571.644 327.418 571.775 328.087 572.036 328.643C572.297 329.2 572.655 329.628 573.11 329.926C573.567 330.222 574.09 330.369 574.678 330.369C575.215 330.369 575.689 330.25 576.101 330.011C576.513 329.773 576.834 329.432 577.064 328.989C577.297 328.545 577.411 328.018 577.405 327.408L577.661 327.489H574.865V326.773H578.181V327.489C578.181 328.233 578.03 328.876 577.729 329.419C577.428 329.962 577.015 330.381 576.489 330.676C575.963 330.972 575.36 331.119 574.678 331.119C573.917 331.119 573.25 330.936 572.679 330.57C572.108 330.2 571.664 329.68 571.346 329.01C571.03 328.337 570.873 327.545 570.873 326.636C570.873 325.952 570.963 325.334 571.145 324.783C571.327 324.232 571.584 323.76 571.917 323.368C572.252 322.976 572.648 322.676 573.105 322.469C573.563 322.259 574.069 322.153 574.623 322.153C575.1 322.153 575.536 322.229 575.931 322.379C576.328 322.53 576.678 322.737 576.979 323.001C577.283 323.263 577.532 323.565 577.725 323.909C577.921 324.25 578.053 324.614 578.121 325H577.303ZM583.547 331H582.712L585.886 322.273H586.739L589.913 331H589.078L586.342 323.308H586.283L583.547 331ZM584.148 327.655H588.477V328.371H584.148V327.655ZM593.966 331H591.409V322.273H594.119C594.952 322.273 595.663 322.446 596.254 322.793C596.848 323.139 597.303 323.636 597.618 324.284C597.933 324.932 598.091 325.709 598.091 326.615C598.091 327.53 597.929 328.315 597.605 328.972C597.284 329.625 596.815 330.126 596.199 330.476C595.585 330.825 594.841 331 593.966 331ZM592.206 330.284H593.919C594.669 330.284 595.297 330.136 595.803 329.841C596.308 329.545 596.688 329.124 596.94 328.575C597.193 328.027 597.32 327.374 597.32 326.615C597.317 325.862 597.192 325.214 596.945 324.672C596.7 324.129 596.337 323.713 595.854 323.423C595.374 323.134 594.78 322.989 594.072 322.989H592.206V330.284ZM600.022 331V322.273H602.839C603.458 322.273 603.975 322.385 604.39 322.609C604.808 322.831 605.122 323.139 605.332 323.534C605.545 323.926 605.652 324.376 605.652 324.885C605.652 325.393 605.545 325.842 605.332 326.232C605.122 326.621 604.809 326.925 604.395 327.143C603.98 327.362 603.466 327.472 602.852 327.472H600.453V326.743H602.831C603.285 326.743 603.663 326.668 603.964 326.517C604.268 326.366 604.494 326.152 604.642 325.874C604.792 325.595 604.868 325.266 604.868 324.885C604.868 324.504 604.792 324.172 604.642 323.888C604.491 323.601 604.264 323.379 603.96 323.223C603.659 323.067 603.278 322.989 602.818 322.989H600.819V331H600.022ZM603.87 327.062L606.018 331H605.098L602.971 327.062H603.87ZM607.593 331V322.273H612.655V322.989H608.39V326.274H612.387V326.99H608.39V330.284H612.74V331H607.593ZM619.456 324.455C619.408 323.969 619.194 323.582 618.813 323.295C618.432 323.009 617.953 322.865 617.377 322.865C616.971 322.865 616.613 322.935 616.303 323.074C615.996 323.213 615.755 323.406 615.578 323.653C615.405 323.898 615.319 324.176 615.319 324.489C615.319 324.719 615.368 324.92 615.468 325.094C615.567 325.267 615.701 325.416 615.868 325.541C616.039 325.663 616.226 325.768 616.431 325.857C616.638 325.945 616.847 326.018 617.057 326.078L617.978 326.342C618.256 326.419 618.534 326.517 618.813 326.636C619.091 326.756 619.346 326.906 619.576 327.088C619.809 327.267 619.995 327.487 620.134 327.749C620.276 328.007 620.347 328.318 620.347 328.682C620.347 329.148 620.226 329.567 619.985 329.939C619.743 330.311 619.397 330.607 618.945 330.825C618.493 331.041 617.952 331.149 617.321 331.149C616.728 331.149 616.212 331.051 615.775 330.855C615.337 330.656 614.993 330.382 614.743 330.033C614.493 329.683 614.353 329.278 614.321 328.818H615.14C615.168 329.162 615.282 329.453 615.48 329.692C615.679 329.93 615.938 330.112 616.256 330.237C616.574 330.359 616.929 330.42 617.321 330.42C617.756 330.42 618.142 330.348 618.48 330.203C618.821 330.055 619.088 329.851 619.282 329.589C619.478 329.325 619.576 329.018 619.576 328.669C619.576 328.374 619.499 328.126 619.346 327.928C619.192 327.726 618.978 327.557 618.702 327.42C618.429 327.284 618.113 327.163 617.752 327.058L616.708 326.751C616.023 326.547 615.492 326.264 615.114 325.903C614.736 325.543 614.547 325.082 614.547 324.523C614.547 324.054 614.672 323.642 614.922 323.287C615.175 322.929 615.516 322.651 615.945 322.452C616.377 322.25 616.861 322.149 617.398 322.149C617.941 322.149 618.421 322.249 618.838 322.447C619.256 322.646 619.587 322.92 619.831 323.27C620.078 323.616 620.211 324.011 620.228 324.455H619.456ZM627.003 324.455C626.955 323.969 626.74 323.582 626.36 323.295C625.979 323.009 625.5 322.865 624.924 322.865C624.517 322.865 624.159 322.935 623.85 323.074C623.543 323.213 623.301 323.406 623.125 323.653C622.952 323.898 622.865 324.176 622.865 324.489C622.865 324.719 622.915 324.92 623.015 325.094C623.114 325.267 623.248 325.416 623.415 325.541C623.586 325.663 623.773 325.768 623.978 325.857C624.185 325.945 624.394 326.018 624.604 326.078L625.525 326.342C625.803 326.419 626.081 326.517 626.36 326.636C626.638 326.756 626.892 326.906 627.123 327.088C627.355 327.267 627.542 327.487 627.681 327.749C627.823 328.007 627.894 328.318 627.894 328.682C627.894 329.148 627.773 329.567 627.532 329.939C627.29 330.311 626.944 330.607 626.492 330.825C626.04 331.041 625.499 331.149 624.868 331.149C624.275 331.149 623.759 331.051 623.321 330.855C622.884 330.656 622.54 330.382 622.29 330.033C622.04 329.683 621.9 329.278 621.868 328.818H622.686C622.715 329.162 622.828 329.453 623.027 329.692C623.226 329.93 623.485 330.112 623.803 330.237C624.121 330.359 624.476 330.42 624.868 330.42C625.303 330.42 625.689 330.348 626.027 330.203C626.368 330.055 626.635 329.851 626.828 329.589C627.025 329.325 627.123 329.018 627.123 328.669C627.123 328.374 627.046 328.126 626.892 327.928C626.739 327.726 626.525 327.557 626.249 327.42C625.976 327.284 625.659 327.163 625.299 327.058L624.255 326.751C623.57 326.547 623.039 326.264 622.661 325.903C622.283 325.543 622.094 325.082 622.094 324.523C622.094 324.054 622.219 323.642 622.469 323.287C622.722 322.929 623.063 322.651 623.492 322.452C623.924 322.25 624.408 322.149 624.945 322.149C625.488 322.149 625.968 322.249 626.385 322.447C626.803 322.646 627.134 322.92 627.378 323.27C627.625 323.616 627.757 324.011 627.775 324.455H627.003Z" fill="black"/>
<rect x="497.5" y="290.5" width="157" height="57" stroke="black"/>
<path d="M724.112 316V315.416L726.963 312.212C727.335 311.791 727.635 311.432 727.862 311.134C728.089 310.835 728.254 310.56 728.357 310.307C728.462 310.054 728.514 309.791 728.514 309.518C728.514 309.186 728.436 308.896 728.28 308.649C728.126 308.399 727.915 308.205 727.645 308.065C727.375 307.926 727.071 307.857 726.733 307.857C726.375 307.857 726.061 307.933 725.791 308.087C725.524 308.24 725.317 308.45 725.169 308.717C725.021 308.984 724.947 309.291 724.947 309.638H724.185C724.185 309.155 724.295 308.727 724.517 308.355C724.741 307.98 725.047 307.686 725.433 307.473C725.822 307.26 726.263 307.153 726.754 307.153C727.24 307.153 727.672 307.259 728.05 307.469C728.428 307.676 728.724 307.959 728.94 308.317C729.156 308.675 729.264 309.075 729.264 309.518C729.264 309.839 729.207 310.151 729.094 310.452C728.983 310.753 728.791 311.088 728.518 311.457C728.246 311.827 727.868 312.278 727.385 312.812L725.22 315.229V315.284H729.537V316H724.112ZM732.071 316.064C731.904 316.064 731.759 316.004 731.637 315.885C731.517 315.763 731.458 315.618 731.458 315.45C731.458 315.28 731.517 315.135 731.637 315.016C731.759 314.896 731.904 314.837 732.071 314.837C732.242 314.837 732.387 314.896 732.506 315.016C732.625 315.135 732.685 315.28 732.685 315.45C732.685 315.561 732.657 315.663 732.6 315.757C732.546 315.851 732.472 315.926 732.378 315.983C732.287 316.037 732.185 316.064 732.071 316.064ZM741.597 307.273H742.517L745.683 314.875H745.76L748.926 307.273H749.847V316H749.097V308.956H749.028L746.084 316H745.359L742.415 308.956H742.347V316H741.597V307.273ZM752.167 316V307.273H757.229V307.989H752.964V311.274H756.961V311.99H752.964V315.284H757.315V316H752.167ZM764.031 309.455C763.982 308.969 763.768 308.582 763.387 308.295C763.006 308.009 762.528 307.865 761.951 307.865C761.545 307.865 761.187 307.935 760.877 308.074C760.57 308.213 760.329 308.406 760.153 308.653C759.979 308.898 759.893 309.176 759.893 309.489C759.893 309.719 759.942 309.92 760.042 310.094C760.141 310.267 760.275 310.416 760.442 310.541C760.613 310.663 760.8 310.768 761.005 310.857C761.212 310.945 761.421 311.018 761.631 311.078L762.552 311.342C762.83 311.419 763.109 311.517 763.387 311.636C763.665 311.756 763.92 311.906 764.15 312.088C764.383 312.267 764.569 312.487 764.708 312.749C764.85 313.007 764.921 313.318 764.921 313.682C764.921 314.148 764.8 314.567 764.559 314.939C764.317 315.311 763.971 315.607 763.519 315.825C763.067 316.041 762.526 316.149 761.896 316.149C761.302 316.149 760.786 316.051 760.349 315.855C759.911 315.656 759.567 315.382 759.317 315.033C759.067 314.683 758.927 314.278 758.896 313.818H759.714C759.742 314.162 759.856 314.453 760.055 314.692C760.254 314.93 760.512 315.112 760.83 315.237C761.148 315.359 761.504 315.42 761.896 315.42C762.33 315.42 762.717 315.348 763.055 315.203C763.396 315.055 763.663 314.851 763.856 314.589C764.052 314.325 764.15 314.018 764.15 313.669C764.15 313.374 764.073 313.126 763.92 312.928C763.766 312.726 763.552 312.557 763.276 312.42C763.004 312.284 762.687 312.163 762.326 312.058L761.282 311.751C760.597 311.547 760.066 311.264 759.688 310.903C759.31 310.543 759.121 310.082 759.121 309.523C759.121 309.054 759.246 308.642 759.496 308.287C759.749 307.929 760.09 307.651 760.519 307.452C760.951 307.25 761.435 307.149 761.972 307.149C762.515 307.149 762.995 307.249 763.413 307.447C763.83 307.646 764.161 307.92 764.406 308.27C764.653 308.616 764.785 309.011 764.802 309.455H764.031ZM771.577 309.455C771.529 308.969 771.315 308.582 770.934 308.295C770.553 308.009 770.075 307.865 769.498 307.865C769.092 307.865 768.734 307.935 768.424 308.074C768.117 308.213 767.876 308.406 767.7 308.653C767.526 308.898 767.44 309.176 767.44 309.489C767.44 309.719 767.489 309.92 767.589 310.094C767.688 310.267 767.822 310.416 767.989 310.541C768.16 310.663 768.347 310.768 768.552 310.857C768.759 310.945 768.968 311.018 769.178 311.078L770.099 311.342C770.377 311.419 770.656 311.517 770.934 311.636C771.212 311.756 771.467 311.906 771.697 312.088C771.93 312.267 772.116 312.487 772.255 312.749C772.397 313.007 772.468 313.318 772.468 313.682C772.468 314.148 772.347 314.567 772.106 314.939C771.864 315.311 771.518 315.607 771.066 315.825C770.614 316.041 770.073 316.149 769.442 316.149C768.849 316.149 768.333 316.051 767.896 315.855C767.458 315.656 767.114 315.382 766.864 315.033C766.614 314.683 766.474 314.278 766.442 313.818H767.261C767.289 314.162 767.403 314.453 767.602 314.692C767.8 314.93 768.059 315.112 768.377 315.237C768.695 315.359 769.05 315.42 769.442 315.42C769.877 315.42 770.263 315.348 770.602 315.203C770.942 315.055 771.21 314.851 771.403 314.589C771.599 314.325 771.697 314.018 771.697 313.669C771.697 313.374 771.62 313.126 771.467 312.928C771.313 312.726 771.099 312.557 770.823 312.42C770.55 312.284 770.234 312.163 769.873 312.058L768.829 311.751C768.144 311.547 767.613 311.264 767.235 310.903C766.857 310.543 766.668 310.082 766.668 309.523C766.668 309.054 766.793 308.642 767.043 308.287C767.296 307.929 767.637 307.651 768.066 307.452C768.498 307.25 768.982 307.149 769.519 307.149C770.062 307.149 770.542 307.249 770.96 307.447C771.377 307.646 771.708 307.92 771.952 308.27C772.2 308.616 772.332 309.011 772.349 309.455H771.577ZM774.398 316H773.563L776.738 307.273H777.59L780.765 316H779.93L777.194 308.308H777.134L774.398 316ZM774.999 312.655H779.329V313.371H774.999V312.655ZM787.889 310C787.809 309.71 787.693 309.439 787.539 309.186C787.386 308.93 787.196 308.707 786.968 308.517C786.744 308.324 786.484 308.173 786.189 308.065C785.896 307.957 785.569 307.903 785.208 307.903C784.64 307.903 784.132 308.051 783.683 308.347C783.234 308.642 782.879 309.068 782.618 309.625C782.359 310.182 782.23 310.852 782.23 311.636C782.23 312.418 782.36 313.087 782.622 313.643C782.883 314.2 783.241 314.628 783.696 314.926C784.153 315.222 784.676 315.369 785.264 315.369C785.801 315.369 786.275 315.25 786.687 315.011C787.099 314.773 787.42 314.432 787.65 313.989C787.883 313.545 787.997 313.018 787.991 312.408L788.247 312.489H785.451V311.773H788.767V312.489C788.767 313.233 788.616 313.876 788.315 314.419C788.014 314.962 787.6 315.381 787.075 315.676C786.549 315.972 785.946 316.119 785.264 316.119C784.502 316.119 783.836 315.936 783.265 315.57C782.694 315.2 782.25 314.68 781.931 314.01C781.616 313.337 781.458 312.545 781.458 311.636C781.458 310.952 781.549 310.334 781.731 309.783C781.913 309.232 782.17 308.76 782.502 308.368C782.838 307.976 783.234 307.676 783.691 307.469C784.149 307.259 784.654 307.153 785.208 307.153C785.686 307.153 786.122 307.229 786.517 307.379C786.914 307.53 787.264 307.737 787.565 308.001C787.869 308.263 788.118 308.565 788.311 308.909C788.507 309.25 788.639 309.614 788.707 310H787.889ZM790.745 316V307.273H795.808V307.989H791.542V311.274H795.539V311.99H791.542V315.284H795.893V316H790.745ZM800.546 306.864L797.734 317.312H797.022L799.835 306.864H800.546ZM715.911 331H713.354V322.273H716.065C716.897 322.273 717.609 322.446 718.2 322.793C718.793 323.139 719.248 323.636 719.563 324.284C719.879 324.932 720.036 325.709 720.036 326.615C720.036 327.53 719.874 328.315 719.55 328.972C719.229 329.625 718.761 330.126 718.144 330.476C717.531 330.825 716.786 331 715.911 331ZM714.151 330.284H715.864C716.614 330.284 717.242 330.136 717.748 329.841C718.254 329.545 718.633 329.124 718.886 328.575C719.138 328.027 719.265 327.374 719.265 326.615C719.262 325.862 719.137 325.214 718.89 324.672C718.646 324.129 718.282 323.713 717.799 323.423C717.319 323.134 716.725 322.989 716.018 322.989H714.151V330.284ZM722.765 322.273V331H721.968V322.273H722.765ZM729.824 324.455C729.775 323.969 729.561 323.582 729.18 323.295C728.799 323.009 728.321 322.865 727.744 322.865C727.338 322.865 726.98 322.935 726.67 323.074C726.363 323.213 726.122 323.406 725.946 323.653C725.772 323.898 725.686 324.176 725.686 324.489C725.686 324.719 725.735 324.92 725.835 325.094C725.934 325.267 726.068 325.416 726.235 325.541C726.406 325.663 726.593 325.768 726.798 325.857C727.005 325.945 727.214 326.018 727.424 326.078L728.345 326.342C728.623 326.419 728.902 326.517 729.18 326.636C729.458 326.756 729.713 326.906 729.943 327.088C730.176 327.267 730.362 327.487 730.501 327.749C730.643 328.007 730.714 328.318 730.714 328.682C730.714 329.148 730.593 329.567 730.352 329.939C730.11 330.311 729.764 330.607 729.312 330.825C728.86 331.041 728.319 331.149 727.689 331.149C727.095 331.149 726.579 331.051 726.142 330.855C725.704 330.656 725.36 330.382 725.11 330.033C724.86 329.683 724.72 329.278 724.689 328.818H725.507C725.535 329.162 725.649 329.453 725.848 329.692C726.047 329.93 726.305 330.112 726.623 330.237C726.941 330.359 727.297 330.42 727.689 330.42C728.123 330.42 728.51 330.348 728.848 330.203C729.189 330.055 729.456 329.851 729.649 329.589C729.845 329.325 729.943 329.018 729.943 328.669C729.943 328.374 729.866 328.126 729.713 327.928C729.559 327.726 729.345 327.557 729.069 327.42C728.797 327.284 728.48 327.163 728.119 327.058L727.075 326.751C726.39 326.547 725.859 326.264 725.481 325.903C725.103 325.543 724.914 325.082 724.914 324.523C724.914 324.054 725.039 323.642 725.289 323.287C725.542 322.929 725.883 322.651 726.312 322.452C726.744 322.25 727.228 322.149 727.765 322.149C728.308 322.149 728.788 322.249 729.206 322.447C729.623 322.646 729.954 322.92 730.199 323.27C730.446 323.616 730.578 324.011 730.595 324.455H729.824ZM739.467 325H738.666C738.606 324.702 738.498 324.426 738.342 324.173C738.189 323.918 737.995 323.695 737.762 323.504C737.529 323.314 737.265 323.166 736.97 323.061C736.674 322.956 736.355 322.903 736.011 322.903C735.46 322.903 734.957 323.047 734.502 323.334C734.051 323.621 733.689 324.043 733.416 324.599C733.146 325.153 733.011 325.832 733.011 326.636C733.011 327.446 733.146 328.128 733.416 328.682C733.689 329.236 734.051 329.656 734.502 329.943C734.957 330.227 735.46 330.369 736.011 330.369C736.355 330.369 736.674 330.317 736.97 330.212C737.265 330.107 737.529 329.96 737.762 329.773C737.995 329.582 738.189 329.359 738.342 329.104C738.498 328.848 738.606 328.571 738.666 328.273H739.467C739.396 328.673 739.262 329.047 739.066 329.393C738.873 329.737 738.626 330.038 738.325 330.297C738.027 330.555 737.683 330.757 737.294 330.902C736.904 331.047 736.477 331.119 736.011 331.119C735.278 331.119 734.627 330.936 734.059 330.57C733.491 330.2 733.045 329.68 732.721 329.01C732.4 328.339 732.24 327.548 732.24 326.636C732.24 325.724 732.4 324.933 732.721 324.263C733.045 323.592 733.491 323.074 734.059 322.707C734.627 322.338 735.278 322.153 736.011 322.153C736.477 322.153 736.904 322.226 737.294 322.371C737.683 322.513 738.027 322.714 738.325 322.976C738.626 323.234 738.873 323.536 739.066 323.879C739.262 324.223 739.396 324.597 739.467 325ZM748.494 326.636C748.494 327.545 748.332 328.337 748.008 329.01C747.684 329.68 747.238 330.2 746.67 330.57C746.104 330.936 745.454 331.119 744.718 331.119C743.982 331.119 743.33 330.936 742.762 330.57C742.197 330.2 741.752 329.68 741.428 329.01C741.107 328.337 740.947 327.545 740.947 326.636C740.947 325.727 741.107 324.937 741.428 324.267C741.752 323.594 742.198 323.074 742.766 322.707C743.335 322.338 743.985 322.153 744.718 322.153C745.454 322.153 746.104 322.338 746.67 322.707C747.238 323.074 747.684 323.594 748.008 324.267C748.332 324.937 748.494 325.727 748.494 326.636ZM747.718 326.636C747.718 325.855 747.587 325.186 747.326 324.629C747.065 324.07 746.708 323.642 746.256 323.347C745.805 323.051 745.292 322.903 744.718 322.903C744.147 322.903 743.636 323.051 743.184 323.347C742.732 323.642 742.374 324.068 742.11 324.625C741.849 325.182 741.718 325.852 741.718 326.636C741.718 327.418 741.849 328.087 742.11 328.643C742.371 329.2 742.728 329.628 743.18 329.926C743.631 330.222 744.144 330.369 744.718 330.369C745.292 330.369 745.805 330.222 746.256 329.926C746.711 329.631 747.069 329.205 747.33 328.648C747.592 328.088 747.721 327.418 747.718 326.636ZM756.238 322.273H757.034V328.051C757.034 328.645 756.895 329.176 756.617 329.645C756.338 330.111 755.951 330.479 755.453 330.749C754.959 331.016 754.384 331.149 753.728 331.149C753.074 331.149 752.499 331.014 752.002 330.744C751.505 330.474 751.117 330.107 750.838 329.641C750.56 329.175 750.421 328.645 750.421 328.051V322.273H751.218V327.996C751.218 328.459 751.321 328.872 751.529 329.236C751.736 329.597 752.027 329.881 752.402 330.088C752.78 330.295 753.222 330.399 753.728 330.399C754.233 330.399 754.675 330.295 755.053 330.088C755.431 329.881 755.722 329.597 755.926 329.236C756.134 328.872 756.238 328.459 756.238 327.996V322.273ZM766.147 322.273V331H765.372L760.216 323.692H760.147V331H759.35V322.273H760.122L765.295 329.589H765.363V322.273H766.147ZM767.939 322.989V322.273H774.267V322.989H771.502V331H770.705V322.989H767.939ZM786.272 325H785.471C785.411 324.702 785.303 324.426 785.147 324.173C784.993 323.918 784.8 323.695 784.567 323.504C784.334 323.314 784.07 323.166 783.775 323.061C783.479 322.956 783.159 322.903 782.816 322.903C782.265 322.903 781.762 323.047 781.307 323.334C780.855 323.621 780.493 324.043 780.221 324.599C779.951 325.153 779.816 325.832 779.816 326.636C779.816 327.446 779.951 328.128 780.221 328.682C780.493 329.236 780.855 329.656 781.307 329.943C781.762 330.227 782.265 330.369 782.816 330.369C783.159 330.369 783.479 330.317 783.775 330.212C784.07 330.107 784.334 329.96 784.567 329.773C784.8 329.582 784.993 329.359 785.147 329.104C785.303 328.848 785.411 328.571 785.471 328.273H786.272C786.201 328.673 786.067 329.047 785.871 329.393C785.678 329.737 785.431 330.038 785.13 330.297C784.831 330.555 784.488 330.757 784.098 330.902C783.709 331.047 783.282 331.119 782.816 331.119C782.083 331.119 781.432 330.936 780.864 330.57C780.296 330.2 779.85 329.68 779.526 329.01C779.205 328.339 779.044 327.548 779.044 326.636C779.044 325.724 779.205 324.933 779.526 324.263C779.85 323.592 780.296 323.074 780.864 322.707C781.432 322.338 782.083 322.153 782.816 322.153C783.282 322.153 783.709 322.226 784.098 322.371C784.488 322.513 784.831 322.714 785.13 322.976C785.431 323.234 785.678 323.536 785.871 323.879C786.067 324.223 786.201 324.597 786.272 325ZM795.298 326.636C795.298 327.545 795.136 328.337 794.812 329.01C794.489 329.68 794.043 330.2 793.474 330.57C792.909 330.936 792.259 331.119 791.523 331.119C790.787 331.119 790.135 330.936 789.567 330.57C789.001 330.2 788.557 329.68 788.233 329.01C787.912 328.337 787.751 327.545 787.751 326.636C787.751 325.727 787.912 324.937 788.233 324.267C788.557 323.594 789.003 323.074 789.571 322.707C790.139 322.338 790.79 322.153 791.523 322.153C792.259 322.153 792.909 322.338 793.474 322.707C794.043 323.074 794.489 323.594 794.812 324.267C795.136 324.937 795.298 325.727 795.298 326.636ZM794.523 326.636C794.523 325.855 794.392 325.186 794.131 324.629C793.869 324.07 793.513 323.642 793.061 323.347C792.609 323.051 792.097 322.903 791.523 322.903C790.952 322.903 790.44 323.051 789.989 323.347C789.537 323.642 789.179 324.068 788.915 324.625C788.653 325.182 788.523 325.852 788.523 326.636C788.523 327.418 788.653 328.087 788.915 328.643C789.176 329.2 789.533 329.628 789.984 329.926C790.436 330.222 790.949 330.369 791.523 330.369C792.097 330.369 792.609 330.222 793.061 329.926C793.516 329.631 793.874 329.205 794.135 328.648C794.396 328.088 794.526 327.418 794.523 326.636ZM799.782 331H797.225V322.273H799.936C800.768 322.273 801.48 322.446 802.071 322.793C802.664 323.139 803.119 323.636 803.434 324.284C803.75 324.932 803.907 325.709 803.907 326.615C803.907 327.53 803.745 328.315 803.422 328.972C803.1 329.625 802.632 330.126 802.015 330.476C801.402 330.825 800.657 331 799.782 331ZM798.022 330.284H799.735C800.485 330.284 801.113 330.136 801.619 329.841C802.125 329.545 802.504 329.124 802.757 328.575C803.01 328.027 803.136 327.374 803.136 326.615C803.133 325.862 803.008 325.214 802.761 324.672C802.517 324.129 802.153 323.713 801.67 323.423C801.19 323.134 800.596 322.989 799.889 322.989H798.022V330.284ZM805.839 331V322.273H810.901V322.989H806.636V326.274H810.633V326.99H806.636V330.284H810.987V331H805.839Z" fill="black"/>
<rect x="686.5" y="290.5" width="151" height="57" stroke="black"/>
<path d="M898.27 316.119C897.733 316.119 897.253 316.023 896.83 315.83C896.407 315.634 896.071 315.362 895.824 315.016C895.577 314.669 895.446 314.27 895.432 313.818H896.238C896.252 314.136 896.35 314.415 896.532 314.653C896.713 314.889 896.955 315.074 897.256 315.207C897.557 315.338 897.892 315.403 898.262 315.403C898.665 315.403 899.02 315.328 899.327 315.178C899.637 315.027 899.878 314.821 900.051 314.56C900.228 314.295 900.316 313.997 900.316 313.665C900.316 313.312 900.226 313.001 900.047 312.732C899.868 312.462 899.611 312.251 899.276 312.101C898.944 311.95 898.546 311.875 898.083 311.875H897.571V311.159H898.083C898.461 311.159 898.794 311.091 899.084 310.955C899.377 310.815 899.607 310.621 899.775 310.371C899.942 310.121 900.026 309.827 900.026 309.489C900.026 309.168 899.953 308.885 899.809 308.641C899.664 308.396 899.459 308.205 899.195 308.065C898.934 307.926 898.628 307.857 898.279 307.857C897.941 307.857 897.631 307.922 897.35 308.053C897.069 308.183 896.841 308.368 896.668 308.607C896.498 308.845 896.407 309.128 896.395 309.455H895.624C895.635 309 895.76 308.601 895.999 308.257C896.24 307.911 896.56 307.641 896.958 307.447C897.358 307.251 897.801 307.153 898.287 307.153C898.801 307.153 899.246 307.259 899.621 307.469C899.996 307.679 900.286 307.959 900.49 308.308C900.698 308.655 900.801 309.037 900.801 309.455C900.801 309.952 900.667 310.378 900.397 310.733C900.127 311.085 899.763 311.33 899.306 311.466V311.521C899.863 311.632 900.3 311.879 900.618 312.263C900.939 312.643 901.1 313.111 901.1 313.665C901.1 314.131 900.978 314.55 900.733 314.922C900.489 315.291 900.154 315.584 899.728 315.8C899.304 316.013 898.819 316.119 898.27 316.119ZM903.302 316.064C903.134 316.064 902.989 316.004 902.867 315.885C902.748 315.763 902.688 315.618 902.688 315.45C902.688 315.28 902.748 315.135 902.867 315.016C902.989 314.896 903.134 314.837 903.302 314.837C903.472 314.837 903.617 314.896 903.737 315.016C903.856 315.135 903.915 315.28 903.915 315.45C903.915 315.561 903.887 315.663 903.83 315.757C903.776 315.851 903.702 315.926 903.609 315.983C903.518 316.037 903.415 316.064 903.302 316.064ZM912.84 316H912.005L915.179 307.273H916.032L919.206 316H918.371L915.635 308.308H915.576L912.84 316ZM913.441 312.655H917.77V313.371H913.441V312.655ZM926.519 307.273H927.316V313.051C927.316 313.645 927.176 314.176 926.898 314.645C926.62 315.111 926.232 315.479 925.735 315.749C925.24 316.016 924.665 316.149 924.009 316.149C923.355 316.149 922.78 316.014 922.283 315.744C921.786 315.474 921.398 315.107 921.12 314.641C920.841 314.175 920.702 313.645 920.702 313.051V307.273H921.499V312.996C921.499 313.459 921.603 313.872 921.81 314.236C922.017 314.597 922.309 314.881 922.684 315.088C923.061 315.295 923.503 315.399 924.009 315.399C924.515 315.399 924.956 315.295 925.334 315.088C925.712 314.881 926.003 314.597 926.208 314.236C926.415 313.872 926.519 313.459 926.519 312.996V307.273ZM929.103 307.989V307.273H935.431V307.989H932.666V316H931.869V307.989H929.103ZM937.225 316V307.273H938.022V311.274H942.974V307.273H943.771V316H942.974V311.99H938.022V316H937.225ZM946.085 316V307.273H951.147V307.989H946.882V311.274H950.879V311.99H946.882V315.284H951.233V316H946.085ZM960.007 307.273V316H959.231L954.075 308.692H954.007V316H953.21V307.273H953.981L959.154 314.589H959.223V307.273H960.007ZM961.799 307.989V307.273H968.127V307.989H965.361V316H964.564V307.989H961.799ZM970.718 307.273V316H969.921V307.273H970.718ZM979.873 310H979.072C979.012 309.702 978.904 309.426 978.748 309.173C978.595 308.918 978.402 308.695 978.169 308.504C977.936 308.314 977.672 308.166 977.376 308.061C977.081 307.956 976.761 307.903 976.417 307.903C975.866 307.903 975.363 308.047 974.909 308.334C974.457 308.621 974.095 309.043 973.822 309.599C973.552 310.153 973.417 310.832 973.417 311.636C973.417 312.446 973.552 313.128 973.822 313.682C974.095 314.236 974.457 314.656 974.909 314.943C975.363 315.227 975.866 315.369 976.417 315.369C976.761 315.369 977.081 315.317 977.376 315.212C977.672 315.107 977.936 314.96 978.169 314.773C978.402 314.582 978.595 314.359 978.748 314.104C978.904 313.848 979.012 313.571 979.072 313.273H979.873C979.802 313.673 979.669 314.047 979.473 314.393C979.279 314.737 979.032 315.038 978.731 315.297C978.433 315.555 978.089 315.757 977.7 315.902C977.311 316.047 976.883 316.119 976.417 316.119C975.684 316.119 975.034 315.936 974.466 315.57C973.897 315.2 973.451 314.68 973.127 314.01C972.806 313.339 972.646 312.548 972.646 311.636C972.646 310.724 972.806 309.933 973.127 309.263C973.451 308.592 973.897 308.074 974.466 307.707C975.034 307.338 975.684 307.153 976.417 307.153C976.883 307.153 977.311 307.226 977.7 307.371C978.089 307.513 978.433 307.714 978.731 307.976C979.032 308.234 979.279 308.536 979.473 308.879C979.669 309.223 979.802 309.597 979.873 310ZM981.758 316H980.923L984.097 307.273H984.95L988.124 316H987.289L984.553 308.308H984.494L981.758 316ZM982.359 312.655H986.688V313.371H982.359V312.655ZM988.072 307.989V307.273H994.4V307.989H991.635V316H990.838V307.989H988.072ZM996.194 316V307.273H1001.26V307.989H996.991V311.274H1000.99V311.99H996.991V315.284H1001.34V316H996.194ZM918.561 325H917.76C917.7 324.702 917.592 324.426 917.436 324.173C917.282 323.918 917.089 323.695 916.856 323.504C916.623 323.314 916.359 323.166 916.064 323.061C915.768 322.956 915.449 322.903 915.105 322.903C914.554 322.903 914.051 323.047 913.596 323.334C913.145 323.621 912.782 324.043 912.51 324.599C912.24 325.153 912.105 325.832 912.105 326.636C912.105 327.446 912.24 328.128 912.51 328.682C912.782 329.236 913.145 329.656 913.596 329.943C914.051 330.227 914.554 330.369 915.105 330.369C915.449 330.369 915.768 330.317 916.064 330.212C916.359 330.107 916.623 329.96 916.856 329.773C917.089 329.582 917.282 329.359 917.436 329.104C917.592 328.848 917.7 328.571 917.76 328.273H918.561C918.49 328.673 918.356 329.047 918.16 329.393C917.967 329.737 917.72 330.038 917.419 330.297C917.12 330.555 916.777 330.757 916.387 330.902C915.998 331.047 915.571 331.119 915.105 331.119C914.372 331.119 913.721 330.936 913.153 330.57C912.585 330.2 912.139 329.68 911.815 329.01C911.494 328.339 911.333 327.548 911.333 326.636C911.333 325.724 911.494 324.933 911.815 324.263C912.139 323.592 912.585 323.074 913.153 322.707C913.721 322.338 914.372 322.153 915.105 322.153C915.571 322.153 915.998 322.226 916.387 322.371C916.777 322.513 917.12 322.714 917.419 322.976C917.72 323.234 917.967 323.536 918.16 323.879C918.356 324.223 918.49 324.597 918.561 325ZM920.433 331V322.273H923.249C923.869 322.273 924.386 322.385 924.8 322.609C925.218 322.831 925.532 323.139 925.742 323.534C925.955 323.926 926.062 324.376 926.062 324.885C926.062 325.393 925.955 325.842 925.742 326.232C925.532 326.621 925.219 326.925 924.805 327.143C924.39 327.362 923.876 327.472 923.262 327.472H920.863V326.743H923.241C923.695 326.743 924.073 326.668 924.374 326.517C924.678 326.366 924.904 326.152 925.052 325.874C925.202 325.595 925.278 325.266 925.278 324.885C925.278 324.504 925.202 324.172 925.052 323.888C924.901 323.601 924.674 323.379 924.37 323.223C924.069 323.067 923.688 322.989 923.228 322.989H921.229V331H920.433ZM924.281 327.062L926.428 331H925.508L923.381 327.062H924.281ZM928.003 331V322.273H933.065V322.989H928.8V326.274H932.797V326.99H928.8V330.284H933.151V331H928.003ZM937.685 331H935.128V322.273H937.838C938.67 322.273 939.382 322.446 939.973 322.793C940.567 323.139 941.021 323.636 941.337 324.284C941.652 324.932 941.81 325.709 941.81 326.615C941.81 327.53 941.648 328.315 941.324 328.972C941.003 329.625 940.534 330.126 939.918 330.476C939.304 330.825 938.56 331 937.685 331ZM935.925 330.284H937.638C938.388 330.284 939.016 330.136 939.521 329.841C940.027 329.545 940.406 329.124 940.659 328.575C940.912 328.027 941.038 327.374 941.038 326.615C941.036 325.862 940.911 325.214 940.663 324.672C940.419 324.129 940.055 323.713 939.572 323.423C939.092 323.134 938.499 322.989 937.791 322.989H935.925V330.284ZM944.538 322.273V331H943.741V322.273H944.538ZM946.33 322.989V322.273H952.658V322.989H949.892V331H949.096V322.989H946.33ZM964.662 325H963.861C963.801 324.702 963.694 324.426 963.537 324.173C963.384 323.918 963.191 323.695 962.958 323.504C962.725 323.314 962.461 323.166 962.165 323.061C961.87 322.956 961.55 322.903 961.206 322.903C960.655 322.903 960.152 323.047 959.698 323.334C959.246 323.621 958.884 324.043 958.611 324.599C958.341 325.153 958.206 325.832 958.206 326.636C958.206 327.446 958.341 328.128 958.611 328.682C958.884 329.236 959.246 329.656 959.698 329.943C960.152 330.227 960.655 330.369 961.206 330.369C961.55 330.369 961.87 330.317 962.165 330.212C962.461 330.107 962.725 329.96 962.958 329.773C963.191 329.582 963.384 329.359 963.537 329.104C963.694 328.848 963.801 328.571 963.861 328.273H964.662C964.591 328.673 964.458 329.047 964.262 329.393C964.069 329.737 963.821 330.038 963.52 330.297C963.222 330.555 962.878 330.757 962.489 330.902C962.1 331.047 961.672 331.119 961.206 331.119C960.473 331.119 959.823 330.936 959.255 330.57C958.686 330.2 958.24 329.68 957.917 329.01C957.596 328.339 957.435 327.548 957.435 326.636C957.435 325.724 957.596 324.933 957.917 324.263C958.24 323.592 958.686 323.074 959.255 322.707C959.823 322.338 960.473 322.153 961.206 322.153C961.672 322.153 962.1 322.226 962.489 322.371C962.878 322.513 963.222 322.714 963.52 322.976C963.821 323.234 964.069 323.536 964.262 323.879C964.458 324.223 964.591 324.597 964.662 325ZM966.547 331H965.712L968.886 322.273H969.739L972.913 331H972.078L969.342 323.308H969.283L966.547 331ZM967.148 327.655H971.477V328.371H967.148V327.655ZM974.409 331V322.273H977.226C977.845 322.273 978.362 322.385 978.777 322.609C979.195 322.831 979.509 323.139 979.719 323.534C979.932 323.926 980.038 324.376 980.038 324.885C980.038 325.393 979.932 325.842 979.719 326.232C979.509 326.621 979.196 326.925 978.781 327.143C978.366 327.362 977.852 327.472 977.239 327.472H974.839V326.743H977.217C977.672 326.743 978.05 326.668 978.351 326.517C978.655 326.366 978.881 326.152 979.028 325.874C979.179 325.595 979.254 325.266 979.254 324.885C979.254 324.504 979.179 324.172 979.028 323.888C978.878 323.601 978.651 323.379 978.347 323.223C978.045 323.067 977.665 322.989 977.205 322.989H975.206V331H974.409ZM978.257 327.062L980.405 331H979.484L977.358 327.062H978.257ZM984.536 331H981.979V322.273H984.69C985.522 322.273 986.234 322.446 986.825 322.793C987.418 323.139 987.873 323.636 988.188 324.284C988.504 324.932 988.661 325.709 988.661 326.615C988.661 327.53 988.499 328.315 988.175 328.972C987.854 329.625 987.386 330.126 986.769 330.476C986.156 330.825 985.411 331 984.536 331ZM982.776 330.284H984.489C985.239 330.284 985.867 330.136 986.373 329.841C986.879 329.545 987.258 329.124 987.511 328.575C987.763 328.027 987.89 327.374 987.89 326.615C987.887 325.862 987.762 325.214 987.515 324.672C987.271 324.129 986.907 323.713 986.424 323.423C985.944 323.134 985.35 322.989 984.643 322.989H982.776V330.284Z" fill="black"/>
<rect x="868.5" y="290.5" width="163" height="57" stroke="black"/>
<path d="M440.282 138V122.727H445.211C446.295 122.727 447.2 122.936 447.926 123.354C448.656 123.766 449.206 124.328 449.574 125.039C449.947 125.75 450.133 126.55 450.133 127.44C450.133 128.33 449.949 129.133 449.581 129.849C449.213 130.56 448.666 131.124 447.941 131.542C447.215 131.955 446.312 132.161 445.234 132.161H441.356V130.908H445.196C445.997 130.908 446.66 130.759 447.187 130.461C447.714 130.157 448.107 129.745 448.366 129.223C448.629 128.701 448.761 128.107 448.761 127.44C448.761 126.774 448.629 126.18 448.366 125.658C448.107 125.136 447.712 124.726 447.18 124.428C446.653 124.129 445.984 123.98 445.174 123.98H441.676V138H440.282ZM453.407 138V122.727H458.336C459.42 122.727 460.325 122.924 461.051 123.316C461.781 123.704 462.331 124.244 462.699 124.935C463.072 125.621 463.258 126.409 463.258 127.299C463.258 128.189 463.072 128.974 462.699 129.655C462.331 130.336 461.784 130.868 461.058 131.251C460.332 131.634 459.432 131.825 458.359 131.825H454.16V130.55H458.321C459.117 130.55 459.778 130.418 460.305 130.155C460.837 129.891 461.232 129.516 461.491 129.029C461.754 128.542 461.886 127.965 461.886 127.299C461.886 126.632 461.754 126.051 461.491 125.554C461.227 125.051 460.829 124.664 460.297 124.39C459.77 124.117 459.104 123.98 458.299 123.98H454.801V138H453.407ZM460.141 131.109L463.899 138H462.289L458.567 131.109H460.141ZM479.176 130.364C479.176 131.955 478.892 133.339 478.326 134.517C477.759 135.691 476.978 136.6 475.984 137.247C474.995 137.888 473.856 138.209 472.569 138.209C471.281 138.209 470.14 137.888 469.146 137.247C468.156 136.6 467.378 135.691 466.811 134.517C466.25 133.339 465.969 131.955 465.969 130.364C465.969 128.773 466.25 127.391 466.811 126.217C467.378 125.039 468.159 124.129 469.153 123.488C470.147 122.842 471.286 122.518 472.569 122.518C473.856 122.518 474.995 122.842 475.984 123.488C476.978 124.129 477.759 125.039 478.326 126.217C478.892 127.391 479.176 128.773 479.176 130.364ZM477.819 130.364C477.819 128.996 477.59 127.826 477.133 126.851C476.675 125.872 476.051 125.124 475.261 124.607C474.47 124.089 473.573 123.831 472.569 123.831C471.569 123.831 470.674 124.089 469.884 124.607C469.093 125.124 468.467 125.869 468.005 126.844C467.547 127.818 467.319 128.991 467.319 130.364C467.319 131.731 467.547 132.902 468.005 133.876C468.462 134.85 469.086 135.599 469.876 136.121C470.667 136.638 471.564 136.896 472.569 136.896C473.573 136.896 474.47 136.638 475.261 136.121C476.056 135.604 476.683 134.858 477.14 133.884C477.597 132.904 477.824 131.731 477.819 130.364ZM487.023 138H482.548V122.727H487.291C488.748 122.727 489.993 123.031 491.027 123.637C492.067 124.244 492.862 125.114 493.414 126.247C493.966 127.381 494.242 128.74 494.242 130.326C494.242 131.927 493.958 133.302 493.391 134.45C492.83 135.594 492.009 136.471 490.931 137.083C489.857 137.694 488.554 138 487.023 138ZM483.943 136.747H486.941C488.253 136.747 489.352 136.489 490.237 135.972C491.122 135.455 491.786 134.716 492.228 133.757C492.671 132.797 492.892 131.654 492.892 130.326C492.887 129.009 492.668 127.875 492.236 126.926C491.808 125.976 491.172 125.248 490.326 124.741C489.486 124.234 488.447 123.98 487.209 123.98H483.943V136.747ZM507.801 122.727H509.196V132.839C509.196 133.879 508.952 134.808 508.465 135.629C507.977 136.444 507.299 137.088 506.429 137.56C505.564 138.027 504.557 138.261 503.409 138.261C502.265 138.261 501.258 138.025 500.388 137.553C499.518 137.08 498.84 136.436 498.352 135.621C497.865 134.806 497.622 133.879 497.622 132.839V122.727H499.016V132.743C499.016 133.553 499.198 134.276 499.561 134.913C499.924 135.544 500.433 136.041 501.089 136.404C501.751 136.767 502.524 136.949 503.409 136.949C504.294 136.949 505.067 136.767 505.728 136.404C506.389 136.041 506.899 135.544 507.257 134.913C507.62 134.276 507.801 133.553 507.801 132.743V122.727ZM525.21 127.5H523.808C523.704 126.978 523.515 126.496 523.242 126.053C522.973 125.606 522.635 125.216 522.227 124.882C521.82 124.549 521.357 124.291 520.84 124.107C520.323 123.923 519.764 123.831 519.162 123.831C518.198 123.831 517.318 124.082 516.522 124.584C515.732 125.086 515.098 125.825 514.621 126.799C514.148 127.768 513.912 128.957 513.912 130.364C513.912 131.781 514.148 132.974 514.621 133.943C515.098 134.913 515.732 135.648 516.522 136.151C517.318 136.648 518.198 136.896 519.162 136.896C519.764 136.896 520.323 136.804 520.84 136.62C521.357 136.436 521.82 136.18 522.227 135.852C522.635 135.519 522.973 135.129 523.242 134.681C523.515 134.234 523.704 133.749 523.808 133.227H525.21C525.086 133.928 524.852 134.582 524.509 135.189C524.171 135.79 523.739 136.317 523.212 136.77C522.69 137.222 522.088 137.575 521.407 137.828C520.726 138.082 519.978 138.209 519.162 138.209C517.88 138.209 516.741 137.888 515.747 137.247C514.753 136.6 513.972 135.691 513.405 134.517C512.843 133.344 512.563 131.96 512.563 130.364C512.563 128.768 512.843 127.383 513.405 126.21C513.972 125.037 514.753 124.129 515.747 123.488C516.741 122.842 517.88 122.518 519.162 122.518C519.978 122.518 520.726 122.645 521.407 122.899C522.088 123.147 522.69 123.5 523.212 123.958C523.739 124.41 524.171 124.937 524.509 125.539C524.852 126.14 525.086 126.794 525.21 127.5ZM527.561 123.98V122.727H538.635V123.98H533.796V138H532.401V123.98H527.561Z" fill="black"/>
<rect x="426.5" y="104.5" width="125" height="52" stroke="black"/>
<line x1="196" y1="78.5" x2="327" y2="78.5" stroke="black"/>
<line x1="327.5" y1="26" x2="327.5" y2="131" stroke="black"/>
<line x1="328" y1="26.5" x2="369" y2="26.5" stroke="black"/>
<line x1="328" y1="130.5" x2="369" y2="130.5" stroke="black"/>
<rect x="133.492" y="479.707" width="76.0816" height="76.0633" transform="rotate(45 133.492 479.707)" stroke="black"/>
<path d="M111.209 525H110.408C110.348 524.702 110.24 524.426 110.084 524.173C109.931 523.918 109.738 523.695 109.505 523.504C109.272 523.314 109.007 523.166 108.712 523.061C108.417 522.956 108.097 522.903 107.753 522.903C107.202 522.903 106.699 523.047 106.245 523.334C105.793 523.621 105.431 524.043 105.158 524.599C104.888 525.153 104.753 525.832 104.753 526.636C104.753 527.446 104.888 528.128 105.158 528.682C105.431 529.236 105.793 529.656 106.245 529.943C106.699 530.227 107.202 530.369 107.753 530.369C108.097 530.369 108.417 530.317 108.712 530.212C109.007 530.107 109.272 529.96 109.505 529.773C109.738 529.582 109.931 529.359 110.084 529.104C110.24 528.848 110.348 528.571 110.408 528.273H111.209C111.138 528.673 111.005 529.047 110.809 529.393C110.615 529.737 110.368 530.038 110.067 530.297C109.769 530.555 109.425 530.757 109.036 530.902C108.647 531.047 108.219 531.119 107.753 531.119C107.02 531.119 106.37 530.936 105.801 530.57C105.233 530.2 104.787 529.68 104.463 529.01C104.142 528.339 103.982 527.548 103.982 526.636C103.982 525.724 104.142 524.933 104.463 524.263C104.787 523.592 105.233 523.074 105.801 522.707C106.37 522.338 107.02 522.153 107.753 522.153C108.219 522.153 108.647 522.226 109.036 522.371C109.425 522.513 109.769 522.714 110.067 522.976C110.368 523.234 110.615 523.536 110.809 523.879C111.005 524.223 111.138 524.597 111.209 525ZM120.236 526.636C120.236 527.545 120.074 528.337 119.75 529.01C119.426 529.68 118.98 530.2 118.412 530.57C117.847 530.936 117.196 531.119 116.46 531.119C115.724 531.119 115.072 530.936 114.504 530.57C113.939 530.2 113.494 529.68 113.17 529.01C112.849 528.337 112.689 527.545 112.689 526.636C112.689 525.727 112.849 524.937 113.17 524.267C113.494 523.594 113.94 523.074 114.509 522.707C115.077 522.338 115.727 522.153 116.46 522.153C117.196 522.153 117.847 522.338 118.412 522.707C118.98 523.074 119.426 523.594 119.75 524.267C120.074 524.937 120.236 525.727 120.236 526.636ZM119.46 526.636C119.46 525.855 119.33 525.186 119.068 524.629C118.807 524.07 118.45 523.642 117.999 523.347C117.547 523.051 117.034 522.903 116.46 522.903C115.889 522.903 115.378 523.051 114.926 523.347C114.474 523.642 114.116 524.068 113.852 524.625C113.591 525.182 113.46 525.852 113.46 526.636C113.46 527.418 113.591 528.087 113.852 528.643C114.114 529.2 114.47 529.628 114.922 529.926C115.374 530.222 115.886 530.369 116.46 530.369C117.034 530.369 117.547 530.222 117.999 529.926C118.453 529.631 118.811 529.205 119.072 528.648C119.334 528.088 119.463 527.418 119.46 526.636ZM128.96 522.273V531H128.184L123.028 523.692H122.96V531H122.163V522.273H122.934L128.108 529.589H128.176V522.273H128.96ZM131.28 531V522.273H136.33V522.989H132.077V526.274H135.934V526.99H132.077V531H131.28ZM139.108 522.273V531H138.311V522.273H139.108ZM141.429 531V522.273H144.245C144.865 522.273 145.382 522.385 145.797 522.609C146.214 522.831 146.528 523.139 146.738 523.534C146.951 523.926 147.058 524.376 147.058 524.885C147.058 525.393 146.951 525.842 146.738 526.232C146.528 526.621 146.216 526.925 145.801 527.143C145.386 527.362 144.872 527.472 144.258 527.472H141.859V526.743H144.237C144.691 526.743 145.069 526.668 145.37 526.517C145.674 526.366 145.9 526.152 146.048 525.874C146.199 525.595 146.274 525.266 146.274 524.885C146.274 524.504 146.199 524.172 146.048 523.888C145.897 523.601 145.67 523.379 145.366 523.223C145.065 523.067 144.684 522.989 144.224 522.989H142.225V531H141.429ZM145.277 527.062L147.424 531H146.504L144.377 527.062H145.277ZM148.999 522.273H149.919L153.086 529.875H153.162L156.328 522.273H157.249V531H156.499V523.956H156.431L153.486 531H152.762L149.817 523.956H149.749V531H148.999V522.273ZM117.851 541.636C117.851 542.545 117.689 543.337 117.365 544.01C117.041 544.68 116.595 545.2 116.027 545.57C115.462 545.936 114.811 546.119 114.075 546.119C113.34 546.119 112.688 545.936 112.119 545.57C111.554 545.2 111.11 544.68 110.786 544.01C110.465 543.337 110.304 542.545 110.304 541.636C110.304 540.727 110.465 539.937 110.786 539.267C111.11 538.594 111.556 538.074 112.124 537.707C112.692 537.338 113.343 537.153 114.075 537.153C114.811 537.153 115.462 537.338 116.027 537.707C116.595 538.074 117.041 538.594 117.365 539.267C117.689 539.937 117.851 540.727 117.851 541.636ZM117.075 541.636C117.075 540.855 116.945 540.186 116.683 539.629C116.422 539.07 116.066 538.642 115.614 538.347C115.162 538.051 114.649 537.903 114.075 537.903C113.504 537.903 112.993 538.051 112.541 538.347C112.09 538.642 111.732 539.068 111.468 539.625C111.206 540.182 111.075 540.852 111.075 541.636C111.075 542.418 111.206 543.087 111.468 543.643C111.729 544.2 112.085 544.628 112.537 544.926C112.989 545.222 113.502 545.369 114.075 545.369C114.649 545.369 115.162 545.222 115.614 544.926C116.068 544.631 116.426 544.205 116.688 543.648C116.949 543.088 117.078 542.418 117.075 541.636ZM119.778 546V537.273H122.595C123.214 537.273 123.731 537.385 124.146 537.609C124.564 537.831 124.878 538.139 125.088 538.534C125.301 538.926 125.407 539.376 125.407 539.885C125.407 540.393 125.301 540.842 125.088 541.232C124.878 541.621 124.565 541.925 124.15 542.143C123.736 542.362 123.221 542.472 122.608 542.472H120.209V541.743H122.586C123.041 541.743 123.419 541.668 123.72 541.517C124.024 541.366 124.25 541.152 124.398 540.874C124.548 540.595 124.623 540.266 124.623 539.885C124.623 539.504 124.548 539.172 124.398 538.888C124.247 538.601 124.02 538.379 123.716 538.223C123.415 538.067 123.034 537.989 122.574 537.989H120.575V546H119.778ZM123.626 542.062L125.774 546H124.854L122.727 542.062H123.626ZM129.905 546H127.349V537.273H130.059C130.891 537.273 131.603 537.446 132.194 537.793C132.787 538.139 133.242 538.636 133.557 539.284C133.873 539.932 134.03 540.709 134.03 541.615C134.03 542.53 133.868 543.315 133.545 543.972C133.224 544.625 132.755 545.126 132.138 545.476C131.525 545.825 130.78 546 129.905 546ZM128.145 545.284H129.858C130.608 545.284 131.236 545.136 131.742 544.841C132.248 544.545 132.627 544.124 132.88 543.575C133.133 543.027 133.259 542.374 133.259 541.615C133.256 540.862 133.131 540.214 132.884 539.672C132.64 539.129 132.276 538.713 131.793 538.423C131.313 538.134 130.719 537.989 130.012 537.989H128.145V545.284ZM135.962 546V537.273H141.024V537.989H136.759V541.274H140.756V541.99H136.759V545.284H141.11V546H135.962ZM143.087 546V537.273H145.904C146.523 537.273 147.04 537.385 147.455 537.609C147.872 537.831 148.186 538.139 148.396 538.534C148.61 538.926 148.716 539.376 148.716 539.885C148.716 540.393 148.61 540.842 148.396 541.232C148.186 541.621 147.874 541.925 147.459 542.143C147.044 542.362 146.53 542.472 145.916 542.472H143.517V541.743H145.895C146.35 541.743 146.727 541.668 147.029 541.517C147.333 541.366 147.558 541.152 147.706 540.874C147.857 540.595 147.932 540.266 147.932 539.885C147.932 539.504 147.857 539.172 147.706 538.888C147.556 538.601 147.328 538.379 147.024 538.223C146.723 538.067 146.343 537.989 145.882 537.989H143.884V546H143.087ZM146.935 542.062L149.083 546H148.162L146.036 542.062H146.935ZM151.816 543.499V543.268C151.819 542.82 151.869 542.455 151.965 542.173C152.062 541.892 152.204 541.655 152.392 541.462C152.582 541.266 152.818 541.078 153.099 540.899C153.309 540.763 153.485 540.619 153.627 540.469C153.772 540.315 153.882 540.148 153.955 539.966C154.032 539.781 154.07 539.581 154.07 539.365C154.07 539.058 153.998 538.79 153.853 538.56C153.711 538.33 153.518 538.152 153.274 538.027C153.029 537.899 152.758 537.835 152.46 537.835C152.176 537.835 151.91 537.898 151.663 538.023C151.419 538.145 151.218 538.327 151.062 538.568C150.909 538.807 150.825 539.102 150.811 539.455H150.005C150.019 538.986 150.136 538.58 150.355 538.236C150.573 537.892 150.866 537.626 151.232 537.439C151.599 537.249 152.008 537.153 152.46 537.153C152.931 537.153 153.346 537.251 153.704 537.447C154.062 537.641 154.342 537.906 154.544 538.244C154.745 538.58 154.846 538.964 154.846 539.399C154.846 539.686 154.801 539.947 154.71 540.183C154.619 540.419 154.482 540.636 154.301 540.835C154.122 541.034 153.897 541.222 153.627 541.398C153.372 541.568 153.169 541.737 153.018 541.905C152.867 542.072 152.759 542.264 152.694 542.48C152.629 542.693 152.593 542.956 152.588 543.268V543.499H151.816ZM152.225 546.064C152.058 546.064 151.913 546.004 151.791 545.885C151.671 545.763 151.612 545.618 151.612 545.45C151.612 545.28 151.671 545.135 151.791 545.016C151.913 544.896 152.058 544.837 152.225 544.837C152.393 544.837 152.536 544.896 152.656 545.016C152.778 545.135 152.839 545.28 152.839 545.45C152.839 545.561 152.811 545.663 152.754 545.757C152.7 545.851 152.626 545.926 152.532 545.983C152.441 546.037 152.339 546.064 152.225 546.064Z" fill="black"/>
<path d="M775.634 70H774.172L779.728 54.7273H781.219L786.775 70H785.313L780.526 56.5394H780.421L775.634 70ZM776.685 64.146H784.262V65.3988H776.685V64.146ZM793.867 70H789.393V54.7273H794.136C795.592 54.7273 796.838 55.0305 797.872 55.6371C798.911 56.2436 799.706 57.1136 800.258 58.2472C800.81 59.3807 801.086 60.7404 801.086 62.3263C801.086 63.9272 800.802 65.3018 800.236 66.4503C799.674 67.5937 798.854 68.4712 797.775 69.0827C796.701 69.6942 795.398 70 793.867 70ZM790.787 68.7472H793.785C795.098 68.7472 796.196 68.4886 797.081 67.9716C797.966 67.4545 798.63 66.7163 799.072 65.7567C799.515 64.7972 799.736 63.6538 799.736 62.3263C799.731 61.0089 799.512 59.8754 799.08 58.9258C798.652 57.9762 798.016 57.2479 797.171 56.7408C796.331 56.2337 795.291 55.9801 794.054 55.9801H790.787V68.7472ZM808.94 70H804.466V54.7273H809.209C810.665 54.7273 811.911 55.0305 812.945 55.6371C813.984 56.2436 814.779 57.1136 815.331 58.2472C815.883 59.3807 816.159 60.7404 816.159 62.3263C816.159 63.9272 815.876 65.3018 815.309 66.4503C814.747 67.5937 813.927 68.4712 812.848 69.0827C811.774 69.6942 810.472 70 808.94 70ZM805.86 68.7472H808.858C810.171 68.7472 811.27 68.4886 812.154 67.9716C813.039 67.4545 813.703 66.7163 814.146 65.7567C814.588 64.7972 814.809 63.6538 814.809 62.3263C814.804 61.0089 814.586 59.8754 814.153 58.9258C813.725 57.9762 813.089 57.2479 812.244 56.7408C811.404 56.2337 810.365 55.9801 809.127 55.9801H805.86V68.7472ZM754.599 80.9801V79.7273H765.674V80.9801H760.834V95H759.439V80.9801H754.599ZM780.698 87.3636C780.698 88.9545 780.415 90.3391 779.848 91.5174C779.281 92.6907 778.501 93.6005 777.507 94.2468C776.517 94.8881 775.379 95.2088 774.091 95.2088C772.803 95.2088 771.662 94.8881 770.668 94.2468C769.679 93.6005 768.901 92.6907 768.334 91.5174C767.772 90.3391 767.491 88.9545 767.491 87.3636C767.491 85.7727 767.772 84.3906 768.334 83.2173C768.901 82.0391 769.681 81.1293 770.676 80.4879C771.67 79.8416 772.808 79.5185 774.091 79.5185C775.379 79.5185 776.517 79.8416 777.507 80.4879C778.501 81.1293 779.281 82.0391 779.848 83.2173C780.415 84.3906 780.698 85.7727 780.698 87.3636ZM779.341 87.3636C779.341 85.9964 779.112 84.8256 778.655 83.8512C778.198 82.8718 777.574 82.1236 776.783 81.6065C775.993 81.0895 775.095 80.831 774.091 80.831C773.092 80.831 772.197 81.0895 771.406 81.6065C770.616 82.1236 769.989 82.8693 769.527 83.8438C769.07 84.8182 768.841 85.9915 768.841 87.3636C768.841 88.7308 769.07 89.9016 769.527 90.8761C769.985 91.8505 770.608 92.5987 771.399 93.1207C772.189 93.6378 773.087 93.8963 774.091 93.8963C775.095 93.8963 775.993 93.6378 776.783 93.1207C777.579 92.6037 778.205 91.858 778.662 90.8835C779.12 89.9041 779.346 88.7308 779.341 87.3636ZM801.939 84.5H800.537C800.432 83.978 800.243 83.4957 799.97 83.0533C799.702 82.6058 799.364 82.2156 798.956 81.8825C798.548 81.5494 798.086 81.2908 797.569 81.1069C797.052 80.9229 796.492 80.831 795.891 80.831C794.926 80.831 794.046 81.082 793.251 81.5842C792.46 82.0863 791.827 82.8246 791.349 83.799C790.877 84.7685 790.641 85.9567 790.641 87.3636C790.641 88.7805 790.877 89.9737 791.349 90.9432C791.827 91.9126 792.46 92.6484 793.251 93.1506C794.046 93.6477 794.926 93.8963 795.891 93.8963C796.492 93.8963 797.052 93.8043 797.569 93.6204C798.086 93.4364 798.548 93.1804 798.956 92.8523C799.364 92.5192 799.702 92.1289 799.97 91.6815C800.243 91.234 800.432 90.7493 800.537 90.2273H801.939C801.814 90.9283 801.581 91.582 801.238 92.1886C800.9 92.7901 800.467 93.3171 799.94 93.7695C799.418 94.2219 798.817 94.5749 798.136 94.8285C797.454 95.082 796.706 95.2088 795.891 95.2088C794.608 95.2088 793.47 94.8881 792.475 94.2468C791.481 93.6005 790.701 92.6907 790.134 91.5174C789.572 90.3441 789.291 88.9595 789.291 87.3636C789.291 85.7678 789.572 84.3832 790.134 83.2099C790.701 82.0366 791.481 81.1293 792.475 80.4879C793.47 79.8416 794.608 79.5185 795.891 79.5185C796.706 79.5185 797.454 79.6452 798.136 79.8988C798.817 80.1474 799.418 80.5004 799.94 80.9577C800.467 81.4102 800.9 81.9371 801.238 82.5387C801.581 83.1403 801.814 83.794 801.939 84.5ZM805.237 95H803.775L809.331 79.7273H810.822L816.378 95H814.917L810.129 81.5394H810.024L805.237 95ZM806.288 89.146H813.865V90.3988H806.288V89.146ZM818.996 95V79.7273H823.925C825.009 79.7273 825.914 79.9237 826.64 80.3164C827.37 80.7042 827.92 81.2436 828.288 81.9347C828.66 82.6207 828.847 83.4087 828.847 84.2987C828.847 85.1886 828.66 85.9741 828.288 86.6552C827.92 87.3363 827.373 87.8683 826.647 88.2511C825.921 88.6339 825.021 88.8253 823.947 88.8253H819.749V87.5501H823.91C824.706 87.5501 825.367 87.4183 825.894 87.1548C826.426 86.8913 826.821 86.516 827.08 86.0288C827.343 85.5415 827.475 84.9648 827.475 84.2987C827.475 83.6325 827.343 83.0508 827.08 82.5536C826.816 82.0515 826.418 81.6637 825.886 81.3903C825.359 81.1168 824.693 80.9801 823.888 80.9801H820.39V95H818.996ZM825.73 88.1094L829.488 95H827.877L824.156 88.1094H825.73ZM831.319 80.9801V79.7273H842.393V80.9801H837.553V95H836.159V80.9801H831.319Z" fill="black"/>
<line x1="758" y1="34.5" x2="833" y2="34.5" stroke="black"/>
<line x1="734.5" y1="111.5" x2="857.5" y2="111.5" stroke="black" stroke-linecap="round"/>
<line x1="758.477" y1="34.1488" x2="734.477" y2="111.149" stroke="black"/>
<line x1="833.478" y1="33.853" x2="857.478" y2="111.853" stroke="black"/>
<path d="M326.751 301.364C326.694 300.797 326.444 300.346 326 300.011C325.556 299.677 324.997 299.509 324.325 299.509C323.851 299.509 323.433 299.59 323.072 299.753C322.714 299.915 322.432 300.141 322.227 300.429C322.024 300.714 321.923 301.039 321.923 301.403C321.923 301.672 321.981 301.907 322.097 302.109C322.213 302.312 322.369 302.486 322.565 302.631C322.764 302.774 322.982 302.897 323.221 302.999C323.463 303.102 323.707 303.188 323.952 303.258L325.026 303.566C325.35 303.656 325.675 303.77 326 303.909C326.325 304.048 326.622 304.224 326.89 304.436C327.162 304.645 327.379 304.902 327.541 305.207C327.707 305.508 327.79 305.871 327.79 306.295C327.79 306.839 327.649 307.328 327.367 307.762C327.086 308.196 326.681 308.541 326.154 308.796C325.627 309.048 324.996 309.174 324.26 309.174C323.567 309.174 322.966 309.06 322.455 308.831C321.945 308.599 321.544 308.279 321.252 307.871C320.961 307.464 320.796 306.991 320.76 306.455H321.715C321.748 306.856 321.88 307.195 322.112 307.474C322.344 307.752 322.646 307.964 323.017 308.11C323.388 308.253 323.803 308.324 324.26 308.324C324.767 308.324 325.218 308.239 325.612 308.07C326.01 307.898 326.322 307.659 326.547 307.354C326.776 307.046 326.89 306.688 326.89 306.281C326.89 305.936 326.801 305.647 326.622 305.415C326.443 305.18 326.192 304.983 325.871 304.824C325.553 304.665 325.183 304.524 324.762 304.401L323.544 304.043C322.745 303.805 322.126 303.475 321.685 303.054C321.244 302.633 321.024 302.096 321.024 301.443C321.024 300.896 321.169 300.416 321.461 300.001C321.756 299.584 322.154 299.259 322.654 299.027C323.158 298.792 323.723 298.674 324.35 298.674C324.983 298.674 325.543 298.79 326.03 299.022C326.517 299.254 326.903 299.574 327.188 299.982C327.477 300.386 327.631 300.847 327.651 301.364H326.751ZM330.027 309V298.818H335.933V299.653H330.957V303.487H335.62V304.322H330.957V308.165H336.033V309H330.027ZM338.34 309V298.818H339.269V308.165H344.122V309H338.34ZM346.215 309V298.818H352.121V299.653H347.144V303.487H351.808V304.322H347.144V308.165H352.22V309H346.215ZM362.502 302H361.567C361.497 301.652 361.371 301.33 361.189 301.036C361.01 300.737 360.785 300.477 360.513 300.255C360.241 300.033 359.933 299.861 359.588 299.738C359.243 299.615 358.871 299.554 358.47 299.554C357.827 299.554 357.24 299.721 356.71 300.056C356.183 300.391 355.76 300.883 355.442 301.533C355.127 302.179 354.97 302.971 354.97 303.909C354.97 304.854 355.127 305.649 355.442 306.295C355.76 306.942 356.183 307.432 356.71 307.767C357.24 308.098 357.827 308.264 358.47 308.264C358.871 308.264 359.243 308.203 359.588 308.08C359.933 307.958 360.241 307.787 360.513 307.568C360.785 307.346 361.01 307.086 361.189 306.788C361.371 306.489 361.497 306.166 361.567 305.818H362.502C362.419 306.286 362.263 306.721 362.034 307.126C361.809 307.527 361.52 307.878 361.169 308.18C360.821 308.481 360.42 308.717 359.966 308.886C359.512 309.055 359.013 309.139 358.47 309.139C357.614 309.139 356.855 308.925 356.193 308.498C355.53 308.067 355.009 307.46 354.631 306.678C354.257 305.896 354.07 304.973 354.07 303.909C354.07 302.845 354.257 301.922 354.631 301.14C355.009 300.358 355.53 299.753 356.193 299.325C356.855 298.894 357.614 298.679 358.47 298.679C359.013 298.679 359.512 298.763 359.966 298.933C360.42 299.098 360.821 299.334 361.169 299.638C361.52 299.94 361.809 300.291 362.034 300.692C362.263 301.094 362.419 301.529 362.502 302ZM364.069 299.653V298.818H371.452V299.653H368.225V309H367.295V299.653H364.069ZM315.117 322.818H316.151L317.453 324.543L317.672 324.832L319.273 326.955H318.239L317.066 325.388L316.857 325.11L315.117 322.818ZM319.651 320.909C319.651 321.97 319.462 322.893 319.084 323.678C318.706 324.46 318.186 325.067 317.523 325.498C316.863 325.925 316.104 326.139 315.246 326.139C314.387 326.139 313.627 325.925 312.964 325.498C312.304 325.067 311.786 324.46 311.408 323.678C311.033 322.893 310.846 321.97 310.846 320.909C310.846 319.848 311.033 318.927 311.408 318.145C311.786 317.359 312.306 316.753 312.969 316.325C313.632 315.894 314.391 315.679 315.246 315.679C316.104 315.679 316.863 315.894 317.523 316.325C318.186 316.753 318.706 317.359 319.084 318.145C319.462 318.927 319.651 319.848 319.651 320.909ZM318.746 320.909C318.746 319.998 318.593 319.217 318.289 318.567C317.984 317.915 317.568 317.416 317.041 317.071C316.514 316.726 315.915 316.554 315.246 316.554C314.58 316.554 313.983 316.726 313.456 317.071C312.929 317.416 312.512 317.913 312.203 318.562C311.898 319.212 311.746 319.994 311.746 320.909C311.746 321.821 311.898 322.601 312.203 323.251C312.508 323.9 312.924 324.399 313.451 324.747C313.978 325.092 314.576 325.264 315.246 325.264C315.915 325.264 316.514 325.092 317.041 324.747C317.571 324.402 317.989 323.905 318.294 323.256C318.598 322.603 318.749 321.821 318.746 320.909ZM328.685 315.818H329.615V322.56C329.615 323.252 329.453 323.872 329.128 324.419C328.803 324.963 328.351 325.392 327.771 325.707C327.194 326.018 326.523 326.174 325.757 326.174C324.995 326.174 324.324 326.017 323.744 325.702C323.164 325.387 322.711 324.958 322.386 324.414C322.062 323.871 321.899 323.252 321.899 322.56V315.818H322.829V322.495C322.829 323.035 322.95 323.518 323.192 323.942C323.434 324.363 323.773 324.694 324.211 324.936C324.652 325.178 325.167 325.299 325.757 325.299C326.347 325.299 326.862 325.178 327.303 324.936C327.744 324.694 328.084 324.363 328.322 323.942C328.564 323.518 328.685 323.035 328.685 322.495V315.818ZM332.332 326H331.358L335.061 315.818H336.056L339.76 326H338.785L335.593 317.026H335.524L332.332 326ZM333.033 322.097H338.084V322.933H333.033V322.097ZM349.434 315.818V326H348.529L342.514 317.474H342.434V326H341.505V315.818H342.404L348.44 324.354H348.52V315.818H349.434ZM351.525 316.653V315.818H358.908V316.653H355.681V326H354.751V316.653H351.525ZM361.93 315.818V326H361.001V315.818H361.93ZM364.021 316.653V315.818H371.404V316.653H368.177V326H367.248V316.653H364.021ZM372.542 315.818H373.616L376.634 320.651H376.723L379.741 315.818H380.815L377.141 321.59V326H376.216V321.59L372.542 315.818ZM385.683 315.341L382.402 327.531H381.572L384.853 315.341H385.683ZM306.772 337.909C306.772 338.97 306.583 339.893 306.205 340.678C305.827 341.46 305.307 342.067 304.644 342.498C303.984 342.925 303.225 343.139 302.367 343.139C301.509 343.139 300.748 342.925 300.085 342.498C299.425 342.067 298.907 341.46 298.529 340.678C298.154 339.893 297.967 338.97 297.967 337.909C297.967 336.848 298.154 335.927 298.529 335.145C298.907 334.359 299.427 333.753 300.09 333.325C300.753 332.894 301.512 332.679 302.367 332.679C303.225 332.679 303.984 332.894 304.644 333.325C305.307 333.753 305.827 334.359 306.205 335.145C306.583 335.927 306.772 336.848 306.772 337.909ZM305.867 337.909C305.867 336.998 305.715 336.217 305.41 335.567C305.105 334.915 304.689 334.416 304.162 334.071C303.635 333.726 303.037 333.554 302.367 333.554C301.701 333.554 301.104 333.726 300.577 334.071C300.05 334.416 299.633 334.913 299.324 335.562C299.019 336.212 298.867 336.994 298.867 337.909C298.867 338.821 299.019 339.601 299.324 340.251C299.629 340.9 300.045 341.399 300.572 341.747C301.099 342.092 301.698 342.264 302.367 342.264C303.037 342.264 303.635 342.092 304.162 341.747C304.692 341.402 305.11 340.905 305.415 340.256C305.72 339.603 305.87 338.821 305.867 337.909ZM309.02 343V332.818H312.306C313.029 332.818 313.632 332.949 314.116 333.211C314.603 333.469 314.97 333.829 315.215 334.29C315.463 334.747 315.588 335.272 315.588 335.866C315.588 336.459 315.463 336.983 315.215 337.437C314.97 337.891 314.605 338.246 314.121 338.501C313.637 338.756 313.037 338.884 312.321 338.884H309.522V338.033H312.297C312.827 338.033 313.268 337.946 313.619 337.77C313.974 337.594 314.237 337.344 314.409 337.019C314.585 336.694 314.673 336.31 314.673 335.866C314.673 335.422 314.585 335.034 314.409 334.702C314.234 334.368 313.969 334.109 313.614 333.927C313.263 333.745 312.819 333.653 312.282 333.653H309.95V343H309.02ZM313.51 338.406L316.015 343H314.941L312.461 338.406H313.51ZM320.835 343H317.852V332.818H321.014C321.985 332.818 322.816 333.02 323.505 333.425C324.198 333.829 324.728 334.409 325.096 335.165C325.464 335.92 325.648 336.827 325.648 337.884C325.648 338.951 325.459 339.868 325.081 340.634C324.706 341.396 324.16 341.981 323.44 342.388C322.724 342.796 321.856 343 320.835 343ZM318.782 342.165H320.781C321.656 342.165 322.388 341.992 322.978 341.648C323.568 341.303 324.01 340.811 324.305 340.171C324.6 339.531 324.748 338.769 324.748 337.884C324.745 337.006 324.599 336.25 324.31 335.617C324.025 334.984 323.601 334.499 323.038 334.161C322.478 333.822 321.785 333.653 320.96 333.653H318.782V342.165ZM327.901 343V332.818H333.807V333.653H328.831V337.487H333.494V338.322H328.831V342.165H333.907V343H327.901ZM336.214 343V332.818H339.5C340.222 332.818 340.826 332.949 341.309 333.211C341.797 333.469 342.163 333.829 342.408 334.29C342.657 334.747 342.781 335.272 342.781 335.866C342.781 336.459 342.657 336.983 342.408 337.437C342.163 337.891 341.798 338.246 341.314 338.501C340.831 338.756 340.231 338.884 339.515 338.884H336.716V338.033H339.49C340.02 338.033 340.461 337.946 340.812 337.77C341.167 337.594 341.43 337.344 341.603 337.019C341.778 336.694 341.866 336.31 341.866 335.866C341.866 335.422 341.778 335.034 341.603 334.702C341.427 334.368 341.162 334.109 340.807 333.927C340.456 333.745 340.012 333.653 339.475 333.653H337.143V343H336.214ZM340.703 338.406L343.209 343H342.135L339.654 338.406H340.703ZM348.983 343V332.818H352.269C352.992 332.818 353.595 332.949 354.079 333.211C354.566 333.469 354.932 333.829 355.178 334.29C355.426 334.747 355.551 335.272 355.551 335.866C355.551 336.459 355.426 336.983 355.178 337.437C354.932 337.891 354.568 338.246 354.084 338.501C353.6 338.756 353 338.884 352.284 338.884H349.485V338.033H352.259C352.79 338.033 353.231 337.946 353.582 337.77C353.936 337.594 354.2 337.344 354.372 337.019C354.548 336.694 354.636 336.31 354.636 335.866C354.636 335.422 354.548 335.034 354.372 334.702C354.197 334.368 353.932 334.109 353.577 333.927C353.226 333.745 352.781 333.653 352.244 333.653H349.913V343H348.983ZM353.472 338.406L355.978 343H354.904L352.423 338.406H353.472ZM357.815 343V332.818H363.721V333.653H358.745V337.487H363.408V338.322H358.745V342.165H363.821V343H357.815ZM366.143 332.818L369.324 341.792H369.414L372.596 332.818H373.57L369.866 343H368.872L365.168 332.818H366.143ZM376.245 332.818V343H375.315V332.818H376.245ZM378.952 343V332.818H384.858V333.653H379.882V337.487H384.545V338.322H379.882V342.165H384.958V343H378.952ZM389.034 343L386.245 332.818H387.19L389.497 341.573H389.576L391.883 332.818H392.957L395.264 341.573H395.343L397.65 332.818H398.6L395.811 343H394.816L392.455 334.364H392.39L390.029 343H389.034Z" fill="black"/>
<line x1="299.162" y1="281.5" x2="396.541" y2="281.5" stroke="black"/>
<line x1="268.5" y1="358.5" x2="428.5" y2="358.5" stroke="black" stroke-linecap="round"/>
<line y1="-0.5" x2="83.0664" y2="-0.5" transform="matrix(-0.375137 0.926969 -0.972374 -0.233426 299.162 281)" stroke="black"/>
<line y1="-0.5" x2="83.9942" y2="-0.5" transform="matrix(0.370993 0.928636 -0.97305 0.230594 396.541 281)" stroke="black"/>
<line x1="619" y1="67.5" x2="748" y2="67.5" stroke="black"/>
<line x1="845" y1="67.5" x2="896" y2="67.5" stroke="black"/>
<line x1="187" y1="319.5" x2="284" y2="319.5" stroke="black"/>
<line x1="413" y1="319.5" x2="497" y2="319.5" stroke="black"/>
<line x1="655" y1="319.5" x2="686" y2="319.5" stroke="black"/>
<line x1="837" y1="319.5" x2="868" y2="319.5" stroke="black"/>
<line x1="59.9199" y1="193.5" x2="895.172" y2="193.5" stroke="black"/>
<path fill-rule="evenodd" clip-rule="evenodd" d="M895.172 194H914C937.196 194 956 175.196 956 152V109C956 85.804 937.196 67 914 67H895.172V68H914C936.644 68 955 86.3563 955 109V152C955 174.644 936.644 193 914 193H895.172V194Z" fill="black"/>
<path fill-rule="evenodd" clip-rule="evenodd" d="M60.8281 193L41.9998 193C18.8038 193 -0.000199322 211.804 -0.000197481 235L-0.000194068 278C-0.000192227 301.196 18.8038 320 41.9998 320L60.8281 320L60.8281 319L41.9998 319C19.3561 319 0.999808 300.644 0.999806 278L0.999803 235C0.999801 212.356 19.3561 194 41.9998 194L60.8281 194L60.8281 193Z" fill="black"/>
<line x1="77.5059" y1="423.935" x2="1032.45" y2="423.935" stroke="black"/>
<path fill-rule="evenodd" clip-rule="evenodd" d="M1032.46 424.435H1060C1083.2 424.435 1102 405.631 1102 382.435V356C1102 332.804 1083.2 314 1060 314H1032.46V315H1060C1082.65 315 1101 333.356 1101 356V382.435C1101 405.078 1082.65 423.435 1060 423.435H1032.46V424.435Z" fill="black"/>
<path fill-rule="evenodd" clip-rule="evenodd" d="M78.5449 423.565L51.0003 423.565C27.8043 423.565 9.00026 442.369 9.00026 465.565L9.00026 492C9.00027 515.196 27.8043 534 51.0002 534L78.5449 534L78.5449 533L51.0002 533C28.3566 533 10.0003 514.644 10.0003 492L10.0003 465.565C10.0003 442.922 28.3566 424.565 51.0003 424.565L78.5449 424.565L78.5449 423.565Z" fill="black"/>
<line x1="185" y1="532.5" x2="261" y2="532.5" stroke="black"/>
<line x1="363" y1="532.5" x2="439" y2="532.5" stroke="black"/>
<path d="M292.96 524.727H294.571L299.098 531.976H299.232L303.759 524.727H305.369L299.858 533.385V540H298.471V533.385L292.96 524.727ZM307.989 540V524.727H316.848V525.98H309.383V531.73H316.378V532.983H309.383V538.747H316.997V540H307.989ZM328.75 528.545C328.666 527.695 328.29 527.019 327.624 526.517C326.958 526.015 326.12 525.764 325.111 525.764C324.4 525.764 323.774 525.886 323.232 526.129C322.695 526.373 322.272 526.711 321.964 527.143C321.661 527.571 321.509 528.058 321.509 528.605C321.509 529.008 321.596 529.361 321.77 529.664C321.944 529.967 322.178 530.228 322.471 530.447C322.769 530.661 323.098 530.845 323.455 530.999C323.818 531.153 324.184 531.282 324.552 531.387L326.163 531.849C326.65 531.983 327.137 532.155 327.624 532.364C328.111 532.572 328.556 532.836 328.959 533.154C329.367 533.467 329.692 533.853 329.936 534.31C330.185 534.762 330.309 535.307 330.309 535.943C330.309 536.759 330.098 537.492 329.675 538.143C329.252 538.794 328.646 539.311 327.855 539.694C327.065 540.072 326.118 540.261 325.014 540.261C323.975 540.261 323.073 540.089 322.307 539.746C321.541 539.398 320.94 538.919 320.502 538.307C320.065 537.696 319.819 536.987 319.764 536.182H321.196C321.246 536.783 321.444 537.293 321.792 537.711C322.14 538.128 322.593 538.446 323.15 538.665C323.707 538.879 324.328 538.986 325.014 538.986C325.775 538.986 326.451 538.859 327.042 538.605C327.639 538.347 328.106 537.989 328.444 537.532C328.788 537.069 328.959 536.532 328.959 535.921C328.959 535.404 328.825 534.971 328.556 534.623C328.288 534.27 327.913 533.974 327.43 533.736C326.953 533.497 326.399 533.286 325.767 533.102L323.94 532.565C322.742 532.207 321.812 531.712 321.151 531.081C320.49 530.45 320.159 529.644 320.159 528.665C320.159 527.844 320.378 527.124 320.816 526.502C321.258 525.876 321.855 525.388 322.605 525.04C323.361 524.687 324.209 524.511 325.148 524.511C326.098 524.511 326.938 524.685 327.669 525.033C328.4 525.381 328.979 525.861 329.406 526.472C329.839 527.079 330.07 527.77 330.1 528.545H328.75Z" fill="black"/>
</svg>
