<svg width="165" height="90" viewBox="0 0 165 90" fill="none" xmlns="http://www.w3.org/2000/svg">
<g clip-path="url(#clip0_763_58)">
<path d="M26 14.6797L35.5 23.1503V37.8515H31.7V26.5574H20.3V37.8515H16.5V23.1503L26 14.6797ZM26 9.61621L7 26.5574H12.7V41.6162H24.1V30.3221H27.9V41.6162H39.3V26.5574H45" fill="black"/>
<path d="M89 23.2526C81.6309 23.2526 75.6364 29.2471 75.6364 36.6162H79.4545C79.4545 31.3471 83.7309 27.0707 89 27.0707C94.2691 27.0707 98.5455 31.3471 98.5455 36.6162H102.364C102.364 29.2471 96.3691 23.2526 89 23.2526ZM89 15.6162C77.4118 15.6162 68 25.028 68 36.6162H71.8182C71.8182 27.1471 79.5309 19.4344 89 19.4344C98.4691 19.4344 106.182 27.1471 106.182 36.6162H110C110 25.028 100.588 15.6162 89 15.6162Z" fill="black"/>
<path d="M159.208 26.9851L149.889 36.4118V39.6162H153.051L162.355 30.174L159.208 26.9851ZM164.781 26.5184L162.816 24.5273C162.662 24.3562 162.448 24.2629 162.233 24.2629C162.002 24.2784 161.787 24.3562 161.634 24.5273L160.098 26.0829L163.246 29.194L164.781 27.6384C165.073 27.3273 165.073 26.8295 164.781 26.5184ZM146.818 33.394H136.071V17.8384L148.353 25.6162L160.636 17.8384V20.9495H163.706V14.7273C163.706 13.0162 162.325 11.6162 160.636 11.6162H136.071C134.382 11.6162 133 13.0162 133 14.7273V33.394C133 35.1051 134.382 36.5051 136.071 36.5051H146.818V33.394ZM160.636 14.7273L148.353 22.5051L136.071 14.7273H160.636Z" fill="black"/>
<path d="M26.5 56.8037C24.4891 56.8037 22.498 57.1999 20.6402 57.9698C18.7824 58.7396 17.0943 59.868 15.6724 61.2905C12.8008 64.1634 11.1875 68.0599 11.1875 72.1227C11.1875 78.8937 15.5822 84.6384 21.6613 86.6758C22.4269 86.7984 22.6719 86.3235 22.6719 85.9099C22.6719 85.5575 22.6719 84.5924 22.6719 83.3209C18.4303 84.2401 17.5269 81.2682 17.5269 81.2682C16.8225 79.4912 15.8272 79.0163 15.8272 79.0163C14.4338 78.0665 15.9344 78.0971 15.9344 78.0971C17.4656 78.2044 18.2772 79.675 18.2772 79.675C19.6094 82.0035 21.8603 81.3141 22.7331 80.9465C22.8709 79.9508 23.2691 79.2767 23.6978 78.8937C20.2984 78.5108 16.7306 77.1933 16.7306 71.3568C16.7306 69.6564 17.3125 68.293 18.3078 67.2053C18.1547 66.8223 17.6187 65.2292 18.4609 63.1611C18.4609 63.1611 19.7472 62.7475 22.6719 64.7236C23.8816 64.3866 25.1984 64.2181 26.5 64.2181C27.8016 64.2181 29.1184 64.3866 30.3281 64.7236C33.2528 62.7475 34.5391 63.1611 34.5391 63.1611C35.3813 65.2292 34.8453 66.8223 34.6922 67.2053C35.6875 68.293 36.2694 69.6564 36.2694 71.3568C36.2694 77.2086 32.6863 78.4954 29.2716 78.8784C29.8228 79.3533 30.3281 80.2878 30.3281 81.7124C30.3281 83.7652 30.3281 85.4196 30.3281 85.9099C30.3281 86.3235 30.5731 86.8137 31.3541 86.6758C37.4331 84.6231 41.8125 78.8937 41.8125 72.1227C41.8125 70.111 41.4164 68.119 40.6469 66.2604C39.8774 64.4018 38.7495 62.713 37.3276 61.2905C35.9057 59.868 34.2176 58.7396 32.3598 57.9698C30.502 57.1999 28.5109 56.8037 26.5 56.8037Z" fill="black"/>
<path d="M82.7525 57.2412H95.2475C100.008 57.2412 103.875 61.1087 103.875 65.8687V78.3637C103.875 80.6519 102.966 82.8463 101.348 84.4643C99.7301 86.0822 97.5357 86.9912 95.2475 86.9912H82.7525C77.9925 86.9912 74.125 83.1237 74.125 78.3637V65.8687C74.125 63.5805 75.034 61.3861 76.6519 59.7681C78.2699 58.1502 80.4643 57.2412 82.7525 57.2412ZM82.455 60.2162C81.0348 60.2162 79.6727 60.7804 78.6684 61.7846C77.6642 62.7889 77.1 64.151 77.1 65.5712V78.6612C77.1 81.6213 79.4949 84.0162 82.455 84.0162H95.545C96.9652 84.0162 98.3273 83.452 99.3316 82.4478C100.336 81.4435 100.9 80.0814 100.9 78.6612V65.5712C100.9 62.6111 98.5051 60.2162 95.545 60.2162H82.455ZM96.8094 62.4474C97.3025 62.4474 97.7755 62.6433 98.1242 62.992C98.4729 63.3407 98.6687 63.8137 98.6687 64.3068C98.6687 64.8 98.4729 65.2729 98.1242 65.6216C97.7755 65.9703 97.3025 66.1662 96.8094 66.1662C96.3162 66.1662 95.8433 65.9703 95.4946 65.6216C95.1459 65.2729 94.95 64.8 94.95 64.3068C94.95 63.8137 95.1459 63.3407 95.4946 62.992C95.8433 62.6433 96.3162 62.4474 96.8094 62.4474ZM89 64.6787C90.9725 64.6787 92.8643 65.4623 94.2591 66.8571C95.6539 68.2519 96.4375 70.1437 96.4375 72.1162C96.4375 74.0887 95.6539 75.9805 94.2591 77.3753C92.8643 78.7701 90.9725 79.5537 89 79.5537C87.0275 79.5537 85.1357 78.7701 83.7409 77.3753C82.3461 75.9805 81.5625 74.0887 81.5625 72.1162C81.5625 70.1437 82.3461 68.2519 83.7409 66.8571C85.1357 65.4623 87.0275 64.6787 89 64.6787ZM89 67.6537C87.8165 67.6537 86.6814 68.1239 85.8445 68.9607C85.0077 69.7976 84.5375 70.9327 84.5375 72.1162C84.5375 73.2997 85.0077 74.4348 85.8445 75.2717C86.6814 76.1085 87.8165 76.5787 89 76.5787C90.1835 76.5787 91.3186 76.1085 92.1555 75.2717C92.9923 74.4348 93.4625 73.2997 93.4625 72.1162C93.4625 70.9327 92.9923 69.7976 92.1555 68.9607C91.3186 68.1239 90.1835 67.6537 89 67.6537Z" fill="black"/>
<path d="M143.625 72.1162L141.564 73.4957V70.7367L143.625 72.1162ZM148.678 68.7372V64.8932L142.23 69.2022L145.098 71.1242L148.678 68.7372ZM156.785 69.2022L150.321 64.8932V68.7372L153.902 71.1242L156.785 69.2022ZM142.23 75.0302L148.678 79.3392V75.4952L145.098 73.1082L142.23 75.0302ZM150.321 75.4952V79.3392L156.785 75.0302L153.902 73.1082L150.321 75.4952ZM149.5 70.1632L146.586 72.1162L149.5 74.0692L152.414 72.1162L149.5 70.1632ZM165 72.1162C165 80.6412 158.025 87.6162 149.5 87.6162C140.975 87.6162 134 80.6412 134 72.1162C134 63.5912 140.975 56.6162 149.5 56.6162C158.025 56.6162 165 63.5912 165 72.1162ZM159.079 69.2022C159.079 69.1557 159.079 69.1247 159.079 69.0937L159.063 69.0162L159.048 68.9387C159.032 68.9232 159.032 68.9077 159.017 68.8767L159.001 68.8457L158.971 68.7837L158.955 68.7527L158.924 68.7062L158.893 68.6597L158.847 68.6132L158.8 68.5822V68.5512L158.738 68.5202L158.723 68.5047L149.965 62.6767C149.686 62.4907 149.329 62.4907 149.05 62.6767L140.278 68.5047V68.5202L140.2 68.5512C140.2 68.5667 140.2 68.5822 140.2 68.5822L140.153 68.6132L140.107 68.6597L140.091 68.7062L140.045 68.7527L140.029 68.7837L139.998 68.8457L139.983 68.8767L139.952 68.9387V69.0162H139.936L139.921 69.0937C139.921 69.1247 139.921 69.1557 139.921 69.2022V75.0302C139.921 75.0767 139.921 75.1077 139.921 75.1387L139.936 75.2162H139.952V75.2937C139.968 75.3092 139.968 75.3247 139.983 75.3557L139.998 75.3867L140.029 75.4487L140.045 75.4797L140.076 75.5262L140.107 75.5727C140.122 75.5882 140.138 75.6037 140.153 75.6192L140.2 75.6502V75.6812L140.262 75.7122L140.278 75.7277L149.05 81.5712C149.174 81.6642 149.345 81.6952 149.5 81.6952C149.655 81.6952 149.825 81.6487 149.965 81.5712L158.723 75.7277L158.738 75.7122L158.8 75.6812V75.6502L158.847 75.6192L158.893 75.5727L158.924 75.5262L158.955 75.4797L158.971 75.4487L159.001 75.3867L159.017 75.3557L159.048 75.2937V75.2162H159.063L159.079 75.1387C159.079 75.1077 159.079 75.0767 159.079 75.0302V69.2022ZM157.436 73.4957V70.7367L155.374 72.1162L157.436 73.4957Z" fill="black"/>
</g>
<defs>
<clipPath id="clip0_763_58">
<rect width="165" height="89" fill="white" transform="translate(0 0.616211)"/>
</clipPath>
</defs>
</svg>
