<svg width="411" height="57" viewBox="0 0 411 57" fill="none" xmlns="http://www.w3.org/2000/svg">
<rect width="70" height="57" rx="16" fill="#1D1A1B"/>
<path d="M15.2784 33.3877L16.7102 24.6604H17.3707L15.9389 33.3877H15.2784ZM11.2259 30.8692L11.3366 30.213H17.848L17.7372 30.8692H11.2259ZM12.2102 33.3877L13.642 24.6604H14.3026L12.8707 33.3877H12.2102ZM11.733 27.8351L11.8395 27.1789H18.3509L18.2443 27.8351H11.733ZM22.2468 24.6604V33.3877H21.4499V25.4956H21.3988L19.3533 26.855V26.0283L21.4158 24.6604H22.2468ZM27.6417 33.3877H25.0849V24.6604H27.7951C28.6275 24.6604 29.3391 24.8337 29.93 25.1803C30.5238 25.5269 30.9783 26.0241 31.2937 26.6718C31.609 27.3195 31.7667 28.0965 31.7667 29.0028C31.7667 29.9175 31.6048 30.703 31.2809 31.3593C30.9599 32.0127 30.4911 32.5141 29.8746 32.8635C29.261 33.213 28.5167 33.3877 27.6417 33.3877ZM25.8817 32.6718H27.5948C28.3448 32.6718 28.9727 32.5241 29.4783 32.2286C29.984 31.9331 30.3633 31.5113 30.6161 30.963C30.869 30.4147 30.9954 29.7613 30.9954 29.0028C30.9925 28.2499 30.8675 27.6022 30.6204 27.0596C30.3761 26.517 30.0124 26.1008 29.5295 25.811C29.0494 25.5212 28.4556 25.3763 27.7482 25.3763H25.8817V32.6718ZM36.2038 24.6604V33.3877H35.407V25.4956H35.3558L33.3104 26.855V26.0283L35.3729 24.6604H36.2038ZM39.0547 33.3877H38.2195L41.3942 24.6604H42.2464L45.4212 33.3877H44.5859L41.8501 25.6959H41.7905L39.0547 33.3877ZM39.6555 30.0425H43.9851V30.7584H39.6555V30.0425ZM49.0124 24.6604V33.3877H48.2156V25.4956H48.1644L46.119 26.855V26.0283L48.1815 24.6604H49.0124ZM51.8505 33.3877V24.6604H54.7951C55.3633 24.6604 55.8363 24.7599 56.2141 24.9587C56.5948 25.1576 56.8803 25.4289 57.0707 25.7726C57.261 26.1164 57.3562 26.507 57.3562 26.9445C57.3562 27.3081 57.2951 27.6192 57.1729 27.8778C57.0508 28.1363 56.8846 28.3451 56.6744 28.5042C56.4641 28.6633 56.2298 28.7783 55.9712 28.8493V28.9175C56.2525 28.9374 56.5252 29.0368 56.7894 29.2158C57.0536 29.392 57.271 29.6391 57.4414 29.9573C57.6119 30.2755 57.6971 30.6562 57.6971 31.0993C57.6971 31.5397 57.5991 31.9331 57.4031 32.2797C57.207 32.6235 56.9059 32.8948 56.4996 33.0937C56.0962 33.2897 55.582 33.3877 54.957 33.3877H51.8505ZM52.6474 32.6718H54.957C55.6303 32.6718 56.1275 32.5226 56.4485 32.2243C56.7724 31.926 56.9343 31.551 56.9343 31.0993C56.9343 30.767 56.8533 30.4658 56.6914 30.1959C56.5323 29.9232 56.3065 29.7073 56.0138 29.5482C55.7241 29.3891 55.3832 29.3096 54.9911 29.3096H52.6474V32.6718ZM52.6474 28.6022H54.8675C55.2113 28.6022 55.5124 28.5312 55.771 28.3891C56.0295 28.2471 56.2312 28.051 56.3761 27.801C56.521 27.551 56.5934 27.2655 56.5934 26.9445C56.5934 26.4814 56.4428 26.105 56.1417 25.8153C55.8406 25.5226 55.3917 25.3763 54.7951 25.3763H52.6474V28.6022Z" fill="#F8F8F8"/>
<rect x="85" width="70" height="57" rx="16" fill="#CFCFCF"/>
<path d="M97.1925 32.3877L98.6243 23.6604H99.2848L97.853 32.3877H97.1925ZM93.1399 29.8692L93.2507 29.213H99.7621L99.6513 29.8692H93.1399ZM94.1243 32.3877L95.5561 23.6604H96.2166L94.7848 32.3877H94.1243ZM93.647 26.8351L93.7536 26.1789H100.265L100.158 26.8351H93.647ZM108.49 26.3877H107.689C107.63 26.0894 107.522 25.8138 107.365 25.561C107.212 25.3053 107.019 25.0823 106.786 24.892C106.553 24.7016 106.289 24.5539 105.993 24.4488C105.698 24.3437 105.378 24.2911 105.034 24.2911C104.483 24.2911 103.98 24.4346 103.526 24.7215C103.074 25.0084 102.712 25.4303 102.439 25.9871C102.169 26.5411 102.034 27.2201 102.034 28.0241C102.034 28.8337 102.169 29.5155 102.439 30.0695C102.712 30.6235 103.074 31.0439 103.526 31.3309C103.98 31.615 104.483 31.757 105.034 31.757C105.378 31.757 105.698 31.7045 105.993 31.5993C106.289 31.4942 106.553 31.3479 106.786 31.1604C107.019 30.9701 107.212 30.7471 107.365 30.4914C107.522 30.2357 107.63 29.9587 107.689 29.6604H108.49C108.419 30.061 108.286 30.4346 108.09 30.7812C107.897 31.1249 107.65 31.426 107.348 31.6846C107.05 31.9431 106.706 32.1448 106.317 32.2897C105.928 32.4346 105.5 32.507 105.034 32.507C104.301 32.507 103.651 32.3238 103.083 31.9573C102.515 31.588 102.069 31.0681 101.745 30.3976C101.424 29.7272 101.263 28.936 101.263 28.0241C101.263 27.1121 101.424 26.3209 101.745 25.6505C102.069 24.98 102.515 24.4616 103.083 24.0951C103.651 23.7258 104.301 23.5411 105.034 23.5411C105.5 23.5411 105.928 23.6135 106.317 23.7584C106.706 23.9005 107.05 24.1022 107.348 24.3635C107.65 24.6221 107.897 24.9232 108.09 25.267C108.286 25.6107 108.419 25.9843 108.49 26.3877ZM110.362 32.3877V23.6604H115.412V24.3763H111.159V27.6618H115.016V28.3778H111.159V32.3877H110.362ZM124.229 26.3877H123.428C123.368 26.0894 123.26 25.8138 123.104 25.561C122.95 25.3053 122.757 25.0823 122.524 24.892C122.291 24.7016 122.027 24.5539 121.732 24.4488C121.436 24.3437 121.116 24.2911 120.773 24.2911C120.222 24.2911 119.719 24.4346 119.264 24.7215C118.813 25.0084 118.45 25.4303 118.178 25.9871C117.908 26.5411 117.773 27.2201 117.773 28.0241C117.773 28.8337 117.908 29.5155 118.178 30.0695C118.45 30.6235 118.813 31.0439 119.264 31.3309C119.719 31.615 120.222 31.757 120.773 31.757C121.116 31.757 121.436 31.7045 121.732 31.5993C122.027 31.4942 122.291 31.3479 122.524 31.1604C122.757 30.9701 122.95 30.7471 123.104 30.4914C123.26 30.2357 123.368 29.9587 123.428 29.6604H124.229C124.158 30.061 124.024 30.4346 123.828 30.7812C123.635 31.1249 123.388 31.426 123.087 31.6846C122.788 31.9431 122.445 32.1448 122.055 32.2897C121.666 32.4346 121.239 32.507 120.773 32.507C120.04 32.507 119.389 32.3238 118.821 31.9573C118.253 31.588 117.807 31.0681 117.483 30.3976C117.162 29.7272 117.001 28.936 117.001 28.0241C117.001 27.1121 117.162 26.3209 117.483 25.6505C117.807 24.98 118.253 24.4616 118.821 24.0951C119.389 23.7258 120.04 23.5411 120.773 23.5411C121.239 23.5411 121.666 23.6135 122.055 23.7584C122.445 23.9005 122.788 24.1022 123.087 24.3635C123.388 24.6221 123.635 24.9232 123.828 25.267C124.024 25.6107 124.158 25.9843 124.229 26.3877ZM126.1 32.3877V23.6604H131.15V24.3763H126.897V27.6618H130.754V28.3778H126.897V32.3877H126.1ZM139.967 26.3877H139.166C139.106 26.0894 138.998 25.8138 138.842 25.561C138.689 25.3053 138.495 25.0823 138.262 24.892C138.029 24.7016 137.765 24.5539 137.47 24.4488C137.174 24.3437 136.855 24.2911 136.511 24.2911C135.96 24.2911 135.457 24.4346 135.002 24.7215C134.551 25.0084 134.189 25.4303 133.916 25.9871C133.646 26.5411 133.511 27.2201 133.511 28.0241C133.511 28.8337 133.646 29.5155 133.916 30.0695C134.189 30.6235 134.551 31.0439 135.002 31.3309C135.457 31.615 135.96 31.757 136.511 31.757C136.855 31.757 137.174 31.7045 137.47 31.5993C137.765 31.4942 138.029 31.3479 138.262 31.1604C138.495 30.9701 138.689 30.7471 138.842 30.4914C138.998 30.2357 139.106 29.9587 139.166 29.6604H139.967C139.896 30.061 139.762 30.4346 139.566 30.7812C139.373 31.1249 139.126 31.426 138.825 31.6846C138.527 31.9431 138.183 32.1448 137.794 32.2897C137.404 32.4346 136.977 32.507 136.511 32.507C135.778 32.507 135.127 32.3238 134.559 31.9573C133.991 31.588 133.545 31.0681 133.221 30.3976C132.9 29.7272 132.74 28.936 132.74 28.0241C132.74 27.1121 132.9 26.3209 133.221 25.6505C133.545 24.98 133.991 24.4616 134.559 24.0951C135.127 23.7258 135.778 23.5411 136.511 23.5411C136.977 23.5411 137.404 23.6135 137.794 23.7584C138.183 23.9005 138.527 24.1022 138.825 24.3635C139.126 24.6221 139.373 24.9232 139.566 25.267C139.762 25.6107 139.896 25.9843 139.967 26.3877ZM141.839 32.3877V23.6604H146.888V24.3763H142.636V27.6618H146.492V28.3778H142.636V32.3877H141.839Z" fill="#F8F8F8"/>
<rect x="170" width="70" height="57" rx="16" fill="#F0F0F0"/>
<path d="M182.735 32.3877L184.167 23.6604H184.828L183.396 32.3877H182.735ZM178.683 29.8692L178.794 29.213H185.305L185.194 29.8692H178.683ZM179.667 32.3877L181.099 23.6604H181.76L180.328 32.3877H179.667ZM179.19 26.8351L179.297 26.1789H185.808L185.701 26.8351H179.19ZM187.198 32.3877V23.6604H192.248V24.3763H187.995V27.6618H191.852V28.3778H187.995V32.3877H187.198ZM196.752 32.507C196.138 32.507 195.614 32.3309 195.18 31.9786C194.748 31.6235 194.415 31.1107 194.183 30.4403C193.952 29.7698 193.837 28.9644 193.837 28.0241C193.837 27.0866 193.952 26.284 194.183 25.6164C194.415 24.9459 194.749 24.4331 195.184 24.078C195.621 23.7201 196.144 23.5411 196.752 23.5411C197.36 23.5411 197.881 23.7201 198.316 24.078C198.754 24.4331 199.087 24.9459 199.317 25.6164C199.55 26.284 199.667 27.0866 199.667 28.0241C199.667 28.9644 199.55 29.7698 199.317 30.4403C199.087 31.1107 198.755 31.6235 198.32 31.9786C197.888 32.3309 197.366 32.507 196.752 32.507ZM196.752 31.7911C197.425 31.7911 197.951 31.463 198.329 30.8067C198.707 30.1476 198.896 29.2201 198.896 28.0241C198.896 27.2286 198.809 26.5496 198.636 25.9871C198.465 25.4218 198.219 24.99 197.898 24.6917C197.58 24.3934 197.198 24.2442 196.752 24.2442C196.085 24.2442 195.56 24.5766 195.18 25.2414C194.799 25.9033 194.609 26.8309 194.609 28.0241C194.609 28.8195 194.694 29.4985 194.864 30.061C195.038 30.6235 195.283 31.0525 195.602 31.3479C195.923 31.6434 196.306 31.7911 196.752 31.7911ZM201.589 32.3877V23.6604H206.638V24.3763H202.386V27.6618H206.242V28.3778H202.386V32.3877H201.589ZM211.143 32.507C210.529 32.507 210.005 32.3309 209.57 31.9786C209.138 31.6235 208.806 31.1107 208.573 30.4403C208.343 29.7698 208.228 28.9644 208.228 28.0241C208.228 27.0866 208.343 26.284 208.573 25.6164C208.806 24.9459 209.14 24.4331 209.575 24.078C210.012 23.7201 210.535 23.5411 211.143 23.5411C211.751 23.5411 212.272 23.7201 212.707 24.078C213.144 24.4331 213.478 24.9459 213.708 25.6164C213.941 26.284 214.058 27.0866 214.058 28.0241C214.058 28.9644 213.941 29.7698 213.708 30.4403C213.478 31.1107 213.146 31.6235 212.711 31.9786C212.279 32.3309 211.756 32.507 211.143 32.507ZM211.143 31.7911C211.816 31.7911 212.342 31.463 212.719 30.8067C213.097 30.1476 213.286 29.2201 213.286 28.0241C213.286 27.2286 213.2 26.5496 213.026 25.9871C212.856 25.4218 212.61 24.99 212.289 24.6917C211.971 24.3934 211.589 24.2442 211.143 24.2442C210.475 24.2442 209.951 24.5766 209.57 25.2414C209.19 25.9033 208.999 26.8309 208.999 28.0241C208.999 28.8195 209.085 29.4985 209.255 30.061C209.428 30.6235 209.674 31.0525 209.992 31.3479C210.313 31.6434 210.697 31.7911 211.143 31.7911ZM215.979 32.3877V23.6604H221.029V24.3763H216.776V27.6618H220.633V28.3778H216.776V32.3877H215.979ZM225.533 32.507C224.92 32.507 224.396 32.3309 223.961 31.9786C223.529 31.6235 223.197 31.1107 222.964 30.4403C222.734 29.7698 222.619 28.9644 222.619 28.0241C222.619 27.0866 222.734 26.284 222.964 25.6164C223.197 24.9459 223.531 24.4331 223.965 24.078C224.403 23.7201 224.925 23.5411 225.533 23.5411C226.141 23.5411 226.663 23.7201 227.097 24.078C227.535 24.4331 227.869 24.9459 228.099 25.6164C228.332 26.284 228.448 27.0866 228.448 28.0241C228.448 28.9644 228.332 29.7698 228.099 30.4403C227.869 31.1107 227.536 31.6235 227.102 31.9786C226.67 32.3309 226.147 32.507 225.533 32.507ZM225.533 31.7911C226.207 31.7911 226.732 31.463 227.11 30.8067C227.488 30.1476 227.677 29.2201 227.677 28.0241C227.677 27.2286 227.59 26.5496 227.417 25.9871C227.246 25.4218 227.001 24.99 226.68 24.6917C226.362 24.3934 225.979 24.2442 225.533 24.2442C224.866 24.2442 224.342 24.5766 223.961 25.2414C223.58 25.9033 223.39 26.8309 223.39 28.0241C223.39 28.8195 223.475 29.4985 223.646 30.061C223.819 30.6235 224.065 31.0525 224.383 31.3479C224.704 31.6434 225.087 31.7911 225.533 31.7911Z" fill="#9A9A9A"/>
<rect x="255" width="70" height="57" rx="16" fill="#FF85C7"/>
<path d="M267.278 33.3877L268.71 24.6604H269.371L267.939 33.3877H267.278ZM263.226 30.8692L263.337 30.213H269.848L269.737 30.8692H263.226ZM264.21 33.3877L265.642 24.6604H266.303L264.871 33.3877H264.21ZM263.733 27.8351L263.839 27.1789H270.351L270.244 27.8351H263.733ZM271.741 33.3877V24.6604H276.791V25.3763H272.538V28.6618H276.395V29.3778H272.538V33.3877H271.741ZM278.772 33.3877V24.6604H283.822V25.3763H279.569V28.6618H283.426V29.3778H279.569V33.3877H278.772ZM288.314 33.507C287.757 33.507 287.261 33.4019 286.826 33.1917C286.392 32.9814 286.051 32.6945 285.804 32.3309C285.556 31.9644 285.433 31.551 285.433 31.0908C285.433 30.73 285.508 30.3934 285.659 30.0809C285.809 29.7655 286.017 29.5013 286.281 29.2883C286.545 29.0724 286.842 28.9317 287.172 28.8664V28.8195C286.743 28.6945 286.397 28.4488 286.136 28.0823C285.875 27.713 285.745 27.2939 285.748 26.8252C285.745 26.3905 285.856 26.0013 286.081 25.6576C286.305 25.3138 286.61 25.0425 286.997 24.8437C287.386 24.642 287.825 24.5411 288.314 24.5411C288.799 24.5411 289.235 24.642 289.622 24.8437C290.008 25.0425 290.314 25.3138 290.538 25.6576C290.765 26.0013 290.88 26.3905 290.883 26.8252C290.88 27.2911 290.748 27.7101 290.487 28.0823C290.225 28.4516 289.882 28.6974 289.456 28.8195V28.8664C289.785 28.9289 290.081 29.0681 290.342 29.284C290.603 29.4999 290.811 29.7655 290.964 30.0809C291.118 30.3934 291.194 30.73 291.194 31.0908C291.194 31.551 291.069 31.9644 290.819 32.3309C290.572 32.6945 290.231 32.9814 289.797 33.1917C289.365 33.4019 288.87 33.507 288.314 33.507ZM288.314 32.7911C288.728 32.7911 289.092 32.7172 289.404 32.5695C289.72 32.4189 289.966 32.213 290.142 31.9516C290.321 31.6903 290.41 31.3905 290.41 31.0525C290.41 30.703 290.318 30.392 290.133 30.1192C289.949 29.8437 289.699 29.6263 289.383 29.4672C289.068 29.3053 288.711 29.2243 288.314 29.2243C287.916 29.2243 287.558 29.3053 287.24 29.4672C286.924 29.6263 286.674 29.8437 286.49 30.1192C286.308 30.392 286.217 30.703 286.217 31.0525C286.217 31.3905 286.304 31.6903 286.477 31.9516C286.653 32.213 286.899 32.4189 287.214 32.5695C287.532 32.7172 287.899 32.7911 288.314 32.7911ZM288.314 28.5425C288.654 28.5425 288.96 28.4701 289.23 28.3252C289.5 28.1803 289.713 27.9829 289.869 27.7329C290.028 27.48 290.109 27.1931 290.112 26.8721C290.109 26.5539 290.029 26.2726 289.873 26.0283C289.717 25.7812 289.504 25.5894 289.234 25.453C288.967 25.3138 288.66 25.2442 288.314 25.2442C287.967 25.2442 287.657 25.3138 287.385 25.453C287.115 25.5894 286.902 25.7812 286.745 26.0283C286.592 26.2726 286.517 26.5539 286.52 26.8721C286.517 27.1931 286.593 27.48 286.75 27.7329C286.909 27.9829 287.123 28.1803 287.393 28.3252C287.666 28.4701 287.973 28.5425 288.314 28.5425ZM295.516 33.507C295.031 33.507 294.596 33.409 294.212 33.213C293.832 33.0141 293.528 32.7414 293.3 32.3948C293.076 32.0482 292.957 31.6519 292.942 31.2059H293.714C293.739 31.6689 293.921 32.0496 294.259 32.3479C294.597 32.6434 295.016 32.7911 295.516 32.7911C295.906 32.7911 296.252 32.6988 296.556 32.5141C296.86 32.3266 297.097 32.0709 297.268 31.7471C297.441 31.4204 297.528 31.0525 297.528 30.6434C297.525 30.2172 297.433 29.8422 297.251 29.5184C297.069 29.1917 296.822 28.936 296.509 28.7513C296.2 28.5667 295.852 28.4743 295.465 28.4743C295.173 28.4715 294.886 28.5198 294.604 28.6192C294.323 28.7187 294.089 28.8465 293.901 29.0028L293.104 28.9005L293.629 24.6604H297.941V25.3763H294.298L293.948 28.2954H293.991C294.184 28.1334 294.418 28.0013 294.694 27.8991C294.972 27.7968 295.266 27.7456 295.576 27.7456C296.09 27.7456 296.552 27.8692 296.961 28.1164C297.373 28.3635 297.698 28.7045 297.937 29.1391C298.178 29.5709 298.299 30.0681 298.299 30.6306C298.299 31.1817 298.178 31.6746 297.937 32.1093C297.698 32.5411 297.369 32.882 296.948 33.132C296.531 33.382 296.053 33.507 295.516 33.507ZM307.135 27.3877H306.334C306.274 27.0894 306.166 26.8138 306.01 26.561C305.857 26.3053 305.663 26.0823 305.43 25.892C305.197 25.7016 304.933 25.5539 304.638 25.4488C304.342 25.3437 304.023 25.2911 303.679 25.2911C303.128 25.2911 302.625 25.4346 302.17 25.7215C301.719 26.0084 301.357 26.4303 301.084 26.9871C300.814 27.5411 300.679 28.2201 300.679 29.0241C300.679 29.8337 300.814 30.5155 301.084 31.0695C301.357 31.6235 301.719 32.0439 302.17 32.3309C302.625 32.615 303.128 32.757 303.679 32.757C304.023 32.757 304.342 32.7045 304.638 32.5993C304.933 32.4942 305.197 32.3479 305.43 32.1604C305.663 31.9701 305.857 31.7471 306.01 31.4914C306.166 31.2357 306.274 30.9587 306.334 30.6604H307.135C307.064 31.061 306.93 31.4346 306.734 31.7812C306.541 32.1249 306.294 32.426 305.993 32.6846C305.695 32.9431 305.351 33.1448 304.962 33.2897C304.572 33.4346 304.145 33.507 303.679 33.507C302.946 33.507 302.295 33.3238 301.727 32.9573C301.159 32.588 300.713 32.0681 300.389 31.3976C300.068 30.7272 299.908 29.936 299.908 29.0241C299.908 28.1121 300.068 27.3209 300.389 26.6505C300.713 25.98 301.159 25.4616 301.727 25.0951C302.295 24.7258 302.946 24.5411 303.679 24.5411C304.145 24.5411 304.572 24.6135 304.962 24.7584C305.351 24.9005 305.695 25.1022 305.993 25.3635C306.294 25.6221 306.541 25.9232 306.734 26.267C306.93 26.6107 307.064 26.9843 307.135 27.3877ZM309.071 33.3877L313.047 25.4317V25.3763H308.466V24.6604H313.882V25.4104L309.91 33.3877H309.071Z" fill="#F8F8F8"/>
<rect x="340" width="70.4401" height="57" rx="16" fill="#D4D7CE"/>
<path d="M352.278 33L353.71 24.2727H354.371L352.939 33H352.278ZM348.226 30.4815L348.337 29.8253H354.848L354.737 30.4815H348.226ZM349.21 33L350.642 24.2727H351.303L349.871 33H349.21ZM348.733 27.4474L348.839 26.7912H355.351L355.244 27.4474H348.733ZM359.298 33H356.741V24.2727H359.451C360.284 24.2727 360.995 24.446 361.586 24.7926C362.18 25.1392 362.635 25.6364 362.95 26.2841C363.265 26.9318 363.423 27.7088 363.423 28.6151C363.423 29.5298 363.261 30.3153 362.937 30.9716C362.616 31.625 362.147 32.1264 361.531 32.4759C360.917 32.8253 360.173 33 359.298 33ZM357.538 32.2841H359.251C360.001 32.2841 360.629 32.1364 361.135 31.8409C361.64 31.5455 362.02 31.1236 362.272 30.5753C362.525 30.027 362.652 29.3736 362.652 28.6151C362.649 27.8622 362.524 27.2145 362.277 26.6719C362.032 26.1293 361.669 25.7131 361.186 25.4233C360.706 25.1335 360.112 24.9886 359.404 24.9886H357.538V32.2841ZM364.958 31.125V30.4773L368.849 24.2727H369.326V25.3594H368.972L365.849 30.3537V30.4091H370.95V31.125H364.958ZM369.032 33V30.9205V30.6222V24.2727H369.79V33H369.032ZM375.423 33H372.866V24.2727H375.576C376.409 24.2727 377.12 24.446 377.711 24.7926C378.305 25.1392 378.76 25.6364 379.075 26.2841C379.39 26.9318 379.548 27.7088 379.548 28.6151C379.548 29.5298 379.386 30.3153 379.062 30.9716C378.741 31.625 378.272 32.1264 377.656 32.4759C377.042 32.8253 376.298 33 375.423 33ZM373.663 32.2841H375.376C376.126 32.2841 376.754 32.1364 377.26 31.8409C377.765 31.5455 378.145 31.1236 378.397 30.5753C378.65 30.027 378.777 29.3736 378.777 28.6151C378.774 27.8622 378.649 27.2145 378.402 26.6719C378.157 26.1293 377.794 25.7131 377.311 25.4233C376.831 25.1335 376.237 24.9886 375.529 24.9886H373.663V32.2841ZM381.543 33L385.519 25.044V24.9886H380.938V24.2727H386.354V25.0227L382.383 33H381.543ZM395.076 27H394.275C394.216 26.7017 394.108 26.4261 393.951 26.1733C393.798 25.9176 393.605 25.6946 393.372 25.5043C393.139 25.3139 392.875 25.1662 392.579 25.0611C392.284 24.956 391.964 24.9034 391.62 24.9034C391.069 24.9034 390.566 25.0469 390.112 25.3338C389.66 25.6207 389.298 26.0426 389.025 26.5994C388.755 27.1534 388.62 27.8324 388.62 28.6364C388.62 29.446 388.755 30.1278 389.025 30.6818C389.298 31.2358 389.66 31.6562 390.112 31.9432C390.566 32.2273 391.069 32.3693 391.62 32.3693C391.964 32.3693 392.284 32.3168 392.579 32.2116C392.875 32.1065 393.139 31.9602 393.372 31.7727C393.605 31.5824 393.798 31.3594 393.951 31.1037C394.108 30.848 394.216 30.571 394.275 30.2727H395.076C395.005 30.6733 394.872 31.0469 394.676 31.3935C394.483 31.7372 394.235 32.0384 393.934 32.2969C393.636 32.5554 393.292 32.7571 392.903 32.902C392.514 33.0469 392.086 33.1193 391.62 33.1193C390.887 33.1193 390.237 32.9361 389.669 32.5696C389.1 32.2003 388.654 31.6804 388.331 31.0099C388.01 30.3395 387.849 29.5483 387.849 28.6364C387.849 27.7244 388.01 26.9332 388.331 26.2628C388.654 25.5923 389.1 25.0739 389.669 24.7074C390.237 24.3381 390.887 24.1534 391.62 24.1534C392.086 24.1534 392.514 24.2259 392.903 24.3707C393.292 24.5128 393.636 24.7145 393.934 24.9759C394.235 25.2344 394.483 25.5355 394.676 25.8793C394.872 26.223 395.005 26.5966 395.076 27ZM396.948 33V24.2727H402.011V24.9886H397.745V28.2741H401.742V28.9901H397.745V32.2841H402.096V33H396.948Z" fill="#F8F8F8"/>
</svg>
